M48
;FILE_FORMAT=2:4
INCH
FMAT,2
ICI,OFF
;TYPE=PLATED
T1C.037
T2C.03937
%
M72
G90
G93X0Y0
T1C.037F197S550
X003750Y008287
X003720Y013996
X003750Y019291
X014272Y011496
X013957Y009252
T2C.03937F197S550
X020079Y003283
X021079Y003283
X020079Y004283
X021079Y004283
X020079Y005283
X021079Y005283
X020079Y006283
X021079Y006283
X020079Y007283
X021079Y007283
X020079Y008283
X021079Y008283
X020079Y009283
X021079Y009283
X020079Y010283
X021079Y010283
X020079Y011283
X021079Y011283
X020079Y012283
X021079Y012283
X020079Y013283
X021079Y013283
X020079Y014283
X021079Y014283
X020079Y015283
X021079Y015283
X020079Y016283
X021079Y016283
X020079Y017283
X021079Y017283
X020079Y018283
X021079Y018283
X020079Y019283
X021079Y019283
X020079Y020283
X021079Y020283
X020079Y021283
X021079Y021283
X020079Y022283
X021079Y022283
M30
