*
*
G04 PADS VX.2.6 Build Number: 14487894 generated Gerber (RS-274-X) file*
G04 PC Version=2.1*
*
%IN "Swallow.pcb"*%
*
%MOMM*%
*
%FSDIX24Y24*%
*
*
*
*
G04 PC Standard Apertures*
*
*
G04 Thermal Relief Aperture macro.*
%AMTER*
1,1,$1,0,0*
1,0,$1-$2,0,0*
21,0,$3,$4,0,0,45*
21,0,$3,$4,0,0,135*
%
*
*
G04 Annular Aperture macro.*
%AMANN*
1,1,$1,0,0*
1,0,$2,0,0*
%
*
*
G04 Odd Aperture macro.*
%AMODD*
1,1,$1,0,0*
1,0,$1-0.005,0,0*
%
*
*
G04 PC Custom Aperture Macros*
*
*
*
*
*
*
G04 PC Aperture Table*
*
%ADD010C,0.0254*%
%ADD011C,0.254*%
%ADD062C,0.05*%
%ADD063C,0.21996*%
*
*
*
*
G04 PC Circuitry*
G04 Layer Name Swallow.pcb - circuitry*
%LPD*%
*
*
G04 PC Custom Flashes*
G04 Layer Name Swallow.pcb - flashes*
%LPD*%
*
*
G04 PC Circuitry*
G04 Layer Name Swallow.pcb - circuitry*
%LPD*%
*
G54D10*
G01X000127Y030124D02*
G75*
G03X029995Y-029994I033321J003326D01*
G01X000005Y-000000D02*
X505000Y-000000D01*
X-000005Y-000000D02*
G03X030004Y030004I000362J029642D01*
G01X000001Y-000004D02*
X000000Y589999D01*
X000000Y-000001D02*
G03X-030001Y030001I-030863J-000862D01*
G01X000001Y000000D02*
X-160000Y000000D01*
X-000001Y000000D02*
G03X-009998Y-009998I001108J-011107D01*
G01X-000001Y-000001D02*
X000000Y-030000D01*
X-009997Y-010001D02*
G03X009997Y009998I000497J009500D01*
G01X-010000Y-009997D02*
X-150000Y-000000D01*
X-010000Y009987D02*
G03X010005Y-009987I009750J-000237D01*
G01X-010005Y009999D02*
X000000Y030000D01*
X-000000Y-000005D02*
G03X-009988Y010005I-009750J000255D01*
G01X-000012Y000000D02*
X-155000Y000000D01*
X-000016Y-000000D02*
G03X-029986Y-030038I001657J-031641D01*
G01X000002Y000038D02*
X000000Y-589999D01*
X050033Y004999D02*
G03X000000Y000000I-015033J0D01*
G01X490000Y000000D02*
G03X000000Y000000I-015033J0D01*
G01X-490024Y580000D02*
G03X000000Y000000I-015009J0D01*
G01X490065Y000000D02*
G03X000000Y000000I-015074J0D01*
G54D11*
G01X-119194Y-496329D02*
X-007960Y-000000D01*
X000000Y-000000D02*
X000000Y014659D01*
X007960Y000000*
X000000Y-014659*
X-007960Y000709D02*
X007960Y000000D01*
X-007960Y002540D02*
X007960Y000000D01*
X-007960Y002540D02*
X007960Y000000D01*
X-007960Y002540D02*
X007960Y000000D01*
X-007960Y002540D02*
X007960Y000000D01*
X-007960Y002540D02*
X007960Y000000D01*
X-006860Y-013409D02*
X000000Y014659D01*
X002540Y-014659D02*
X000000Y014659D01*
X002540Y-014659D02*
X000000Y014659D01*
X030980Y-014659D02*
X-007960Y-000000D01*
X-000000Y-000000D02*
X-000000Y014659D01*
X007960Y000000*
X-000000Y-014659*
X-007960Y000709D02*
X007960Y000000D01*
X-007960Y002540D02*
X007960Y000000D01*
X-007960Y002540D02*
X007960Y000000D01*
X-007960Y002540D02*
X007960Y000000D01*
X-007960Y002540D02*
X007960Y000000D01*
X-007960Y002540D02*
X007960Y000000D01*
X-005580Y-013409D02*
X000000Y014659D01*
X002540Y-014659D02*
X000000Y014659D01*
X002540Y-014659D02*
X000000Y014659D01*
X-028700Y055340D02*
X-007960Y000000D01*
X000000Y014660*
X007960Y000000*
X000000Y-014659*
X-007960Y001829D02*
X007960Y000000D01*
X-007960Y002540D02*
X007960Y000000D01*
X-007960Y002540D02*
X007960Y000000D01*
X-007960Y002540D02*
X007960Y000000D01*
X-007960Y002540D02*
X007960Y000000D01*
X-007960Y002540D02*
X007960Y000000D01*
X-006860Y-014529D02*
X000000Y014659D01*
X002540Y-014659D02*
X000000Y014659D01*
X002540Y-014659D02*
X000000Y014659D01*
X030980Y-014659D02*
X-007960Y-000000D01*
X-000000Y-000000D02*
X-000000Y014659D01*
X007960Y000000*
X-000000Y-014659*
X-007960Y001829D02*
X007960Y000000D01*
X-007960Y002540D02*
X007960Y000000D01*
X-007960Y002540D02*
X007960Y000000D01*
X-007960Y002540D02*
X007960Y000000D01*
X-007960Y002540D02*
X007960Y000000D01*
X-007960Y002540D02*
X007960Y000000D01*
X-005580Y-014529D02*
X000000Y014659D01*
X002540Y-014659D02*
X000000Y014659D01*
X002540Y-014659D02*
X000000Y014659D01*
X-028700Y101840D02*
X-007960Y000000D01*
X000000Y014660*
X007960Y000000*
X000000Y-014659*
X-007960Y002169D02*
X007960Y000000D01*
X-007960Y002540D02*
X007960Y000000D01*
X-007960Y002540D02*
X007960Y000000D01*
X-007960Y002540D02*
X007960Y000000D01*
X-007960Y002540D02*
X007960Y000000D01*
X-006860Y-012329D02*
X000000Y014659D01*
X002540Y-014659D02*
X000000Y014659D01*
X002540Y-014659D02*
X000000Y014659D01*
X030980Y-014659D02*
X-007960Y-000000D01*
X-000000Y-000000D02*
X-000000Y014659D01*
X007960Y000000*
X-000000Y-014659*
X-007960Y002169D02*
X007960Y000000D01*
X-007960Y002540D02*
X007960Y000000D01*
X-007960Y002540D02*
X007960Y000000D01*
X-007960Y002540D02*
X007960Y000000D01*
X-007960Y002540D02*
X007960Y000000D01*
X-005580Y-012329D02*
X000000Y014659D01*
X002540Y-014659D02*
X000000Y014659D01*
X002540Y-014659D02*
X000000Y014659D01*
X-028700Y054840D02*
X-007960Y000000D01*
X000000Y014660*
X007960Y000000*
X000000Y-014659*
X-007960Y001249D02*
X007960Y000000D01*
X-007960Y002540D02*
X007960Y000000D01*
X-007960Y002540D02*
X007960Y000000D01*
X-007960Y002540D02*
X007960Y000000D01*
X-007960Y002540D02*
X007960Y000000D01*
X-007960Y002540D02*
X007960Y000000D01*
X-006860Y-013949D02*
X000000Y014659D01*
X002540Y-014659D02*
X000000Y014659D01*
X002540Y-014659D02*
X000000Y014659D01*
X030980Y-014659D02*
X-007960Y-000000D01*
X-000000Y-000000D02*
X-000000Y014659D01*
X007960Y000000*
X-000000Y-014659*
X-007960Y001249D02*
X007960Y000000D01*
X-007960Y002540D02*
X007960Y000000D01*
X-007960Y002540D02*
X007960Y000000D01*
X-007960Y002540D02*
X007960Y000000D01*
X-007960Y002540D02*
X007960Y000000D01*
X-007960Y002540D02*
X007960Y000000D01*
X-005580Y-013949D02*
X000000Y014659D01*
X002540Y-014659D02*
X000000Y014659D01*
X002540Y-014659D02*
X000000Y014659D01*
X-028700Y055340D02*
X-007960Y000000D01*
X000000Y014660*
X007960Y000000*
X000000Y-014659*
X-007960Y002369D02*
X007960Y000000D01*
X-007960Y002540D02*
X007960Y000000D01*
X-007960Y002540D02*
X007960Y000000D01*
X-007960Y002540D02*
X007960Y000000D01*
X-007960Y002540D02*
X007960Y000000D01*
X-006860Y-012529D02*
X000000Y014659D01*
X002540Y-014659D02*
X000000Y014659D01*
X002540Y-014659D02*
X000000Y014659D01*
X030980Y-014659D02*
X-007960Y-000000D01*
X-000000Y-000000D02*
X-000000Y014659D01*
X007960Y000000*
X-000000Y-014659*
X-007960Y002369D02*
X007960Y000000D01*
X-007960Y002540D02*
X007960Y000000D01*
X-007960Y002540D02*
X007960Y000000D01*
X-007960Y002540D02*
X007960Y000000D01*
X-007960Y002540D02*
X007960Y000000D01*
X-005580Y-012529D02*
X000000Y014659D01*
X002540Y-014659D02*
X000000Y014659D01*
X002540Y-014659D02*
X000000Y014659D01*
G54D62*
X-380328Y-233578D02*
X-000003Y-020500D01*
X-000000Y-000000D02*
X013499Y-000003D01*
X000003Y020500*
X000000Y000000D02*
X-013499Y000002D01*
X-000003Y-020250D02*
X013499Y-000000D01*
X-013499Y000499D02*
X013499Y000000D01*
X-013499Y000500D02*
X013499Y000000D01*
X-013499Y000500D02*
X013499Y000000D01*
X-013499Y000500D02*
X013499Y000000D01*
X-013499Y000500D02*
X013499Y000000D01*
X-013499Y000500D02*
X013499Y000000D01*
X-013499Y000500D02*
X013499Y000000D01*
X-013499Y000500D02*
X013500Y000000D01*
X-013499Y000500D02*
X013499Y000000D01*
X-013499Y000500D02*
X013499Y000000D01*
X-013499Y000500D02*
X013499Y000000D01*
X-013499Y000500D02*
X013499Y000000D01*
X-013499Y000500D02*
X013499Y000000D01*
X-013499Y000500D02*
X013499Y000000D01*
X-013499Y000500D02*
X013499Y000000D01*
X-013499Y000500D02*
X013499Y000000D01*
X-013499Y000500D02*
X013499Y000000D01*
X-013499Y000500D02*
X013499Y000000D01*
X-013499Y000500D02*
X013499Y000000D01*
X-013499Y000500D02*
X013500Y000000D01*
X-013499Y000500D02*
X013499Y000000D01*
X-013499Y000500D02*
X013499Y000000D01*
X-013499Y000500D02*
X013499Y000000D01*
X-013499Y000500D02*
X013499Y000000D01*
X-013499Y000500D02*
X013499Y000000D01*
X-013499Y000500D02*
X013499Y000000D01*
X-013499Y000500D02*
X013499Y000000D01*
X-013499Y000500D02*
X013499Y000000D01*
X-013499Y000500D02*
X013499Y000000D01*
X-013499Y000500D02*
X013499Y000000D01*
X-013499Y000500D02*
X013500Y000000D01*
X-013499Y000500D02*
X013499Y000000D01*
X-013499Y000500D02*
X013499Y000000D01*
X-013499Y000500D02*
X013499Y000000D01*
X-013499Y000500D02*
X013499Y000000D01*
X-013499Y000500D02*
X013499Y000000D01*
X-013499Y000500D02*
X013499Y000000D01*
X-013499Y000500D02*
X013499Y000000D01*
X-013499Y000500D02*
X013499Y000000D01*
X-013499Y000500D02*
X013499Y000000D01*
X-013251Y-020248D02*
X000000Y020499D01*
X000500Y-020499D02*
X000000Y020499D01*
X000500Y-020499D02*
X000000Y020499D01*
X000500Y-020499D02*
X000000Y020499D01*
X000500Y-020500D02*
X000000Y020500D01*
X000500Y-020500D02*
X000000Y020499D01*
X000500Y-020499D02*
X000000Y020499D01*
X000500Y-020499D02*
X000000Y020499D01*
X000500Y-020499D02*
X000000Y020499D01*
X000500Y-020499D02*
X000000Y020499D01*
X000500Y-020499D02*
X000000Y020499D01*
X000500Y-020499D02*
X000000Y020499D01*
X000500Y-020499D02*
X000000Y020499D01*
X000500Y-020499D02*
X000000Y020499D01*
X000500Y-020499D02*
X000000Y020499D01*
X000500Y-020500D02*
X000000Y020500D01*
X000500Y-020500D02*
X000000Y020499D01*
X000500Y-020499D02*
X000000Y020499D01*
X000500Y-020499D02*
X000000Y020499D01*
X000500Y-020499D02*
X000000Y020499D01*
X000500Y-020499D02*
X000000Y020499D01*
X000500Y-020499D02*
X000000Y020499D01*
X000500Y-020499D02*
X000000Y020499D01*
X000500Y-020499D02*
X000000Y020499D01*
X000500Y-020499D02*
X000000Y020499D01*
X000500Y-020499D02*
X000000Y020499D01*
X000500Y-020499D02*
X000000Y020499D01*
X-013248Y-090997D02*
X-000003Y-020500D01*
X-000000Y-000000D02*
X013499Y-000003D01*
X000003Y020499*
X000000Y000000D02*
X-013499Y000003D01*
X-000003Y-020250D02*
X013499Y-000000D01*
X-013499Y000499D02*
X013499Y000000D01*
X-013499Y000500D02*
X013499Y000000D01*
X-013499Y000500D02*
X013499Y000000D01*
X-013499Y000500D02*
X013499Y000000D01*
X-013499Y000500D02*
X013499Y000000D01*
X-013499Y000500D02*
X013499Y000000D01*
X-013499Y000500D02*
X013499Y000000D01*
X-013499Y000500D02*
X013500Y000000D01*
X-013499Y000500D02*
X013499Y000000D01*
X-013499Y000500D02*
X013499Y000000D01*
X-013499Y000500D02*
X013499Y000000D01*
X-013499Y000500D02*
X013499Y000000D01*
X-013499Y000500D02*
X013499Y000000D01*
X-013499Y000500D02*
X013499Y000000D01*
X-013499Y000500D02*
X013499Y000000D01*
X-013499Y000500D02*
X013499Y000000D01*
X-013499Y000500D02*
X013499Y000000D01*
X-013499Y000500D02*
X013499Y000000D01*
X-013499Y000500D02*
X013499Y000000D01*
X-013499Y000500D02*
X013500Y000000D01*
X-013499Y000500D02*
X013499Y000000D01*
X-013499Y000500D02*
X013499Y000000D01*
X-013499Y000500D02*
X013499Y000000D01*
X-013499Y000500D02*
X013499Y000000D01*
X-013499Y000500D02*
X013499Y000000D01*
X-013499Y000500D02*
X013499Y000000D01*
X-013499Y000500D02*
X013499Y000000D01*
X-013499Y000500D02*
X013499Y000000D01*
X-013499Y000500D02*
X013499Y000000D01*
X-013499Y000500D02*
X013499Y000000D01*
X-013499Y000500D02*
X013500Y000000D01*
X-013499Y000500D02*
X013499Y000000D01*
X-013499Y000500D02*
X013499Y000000D01*
X-013499Y000500D02*
X013499Y000000D01*
X-013499Y000500D02*
X013499Y000000D01*
X-013499Y000500D02*
X013499Y000000D01*
X-013499Y000500D02*
X013499Y000000D01*
X-013499Y000500D02*
X013499Y000000D01*
X-013499Y000500D02*
X013499Y000000D01*
X-013499Y000500D02*
X013499Y000000D01*
X-013251Y-020248D02*
X000000Y020499D01*
X000500Y-020499D02*
X000000Y020499D01*
X000500Y-020499D02*
X000000Y020499D01*
X000500Y-020500D02*
X000000Y020500D01*
X000500Y-020500D02*
X000000Y020499D01*
X000500Y-020499D02*
X000000Y020499D01*
X000500Y-020499D02*
X000000Y020499D01*
X000500Y-020499D02*
X000000Y020499D01*
X000500Y-020499D02*
X000000Y020499D01*
X000500Y-020499D02*
X000000Y020499D01*
X000500Y-020499D02*
X000000Y020499D01*
X000500Y-020499D02*
X000000Y020499D01*
X000500Y-020499D02*
X000000Y020499D01*
X000500Y-020499D02*
X000000Y020499D01*
X000500Y-020500D02*
X000000Y020500D01*
X000500Y-020500D02*
X000000Y020499D01*
X000500Y-020499D02*
X000000Y020499D01*
X000500Y-020499D02*
X000000Y020499D01*
X000500Y-020499D02*
X000000Y020499D01*
X000500Y-020499D02*
X000000Y020499D01*
X000500Y-020499D02*
X000000Y020499D01*
X000500Y-020499D02*
X000000Y020499D01*
X000500Y-020499D02*
X000000Y020499D01*
X000500Y-020499D02*
X000000Y020499D01*
X000500Y-020499D02*
X000000Y020499D01*
X000500Y-020499D02*
X000000Y020499D01*
X000500Y-020500D02*
X000000Y020500D01*
X-058248Y091002D02*
X-000003Y-020499D01*
X-000000Y-000000D02*
X013499Y-000003D01*
X000003Y020500*
X000000Y000000D02*
X-013499Y000002D01*
X-000003Y-020250D02*
X013499Y-000000D01*
X-013499Y000499D02*
X013499Y000000D01*
X-013499Y000500D02*
X013499Y000000D01*
X-013499Y000500D02*
X013499Y000000D01*
X-013499Y000500D02*
X013499Y000000D01*
X-013499Y000500D02*
X013499Y000000D01*
X-013499Y000500D02*
X013499Y000000D01*
X-013499Y000500D02*
X013499Y000000D01*
X-013499Y000500D02*
X013499Y000000D01*
X-013499Y000500D02*
X013500Y000000D01*
X-013499Y000500D02*
X013499Y000000D01*
X-013499Y000500D02*
X013499Y000000D01*
X-013499Y000500D02*
X013499Y000000D01*
X-013499Y000500D02*
X013499Y000000D01*
X-013499Y000500D02*
X013499Y000000D01*
X-013499Y000500D02*
X013499Y000000D01*
X-013499Y000500D02*
X013499Y000000D01*
X-013499Y000500D02*
X013499Y000000D01*
X-013499Y000500D02*
X013499Y000000D01*
X-013499Y000500D02*
X013499Y000000D01*
X-013499Y000500D02*
X013500Y000000D01*
X-013499Y000500D02*
X013499Y000000D01*
X-013499Y000500D02*
X013499Y000000D01*
X-013499Y000500D02*
X013499Y000000D01*
X-013499Y000500D02*
X013499Y000000D01*
X-013499Y000500D02*
X013499Y000000D01*
X-013499Y000500D02*
X013499Y000000D01*
X-013499Y000500D02*
X013499Y000000D01*
X-013499Y000500D02*
X013499Y000000D01*
X-013499Y000500D02*
X013499Y000000D01*
X-013499Y000500D02*
X013499Y000000D01*
X-013499Y000500D02*
X013500Y000000D01*
X-013500Y000500D02*
X013500Y000000D01*
X-013499Y000500D02*
X013499Y000000D01*
X-013499Y000500D02*
X013499Y000000D01*
X-013499Y000500D02*
X013499Y000000D01*
X-013499Y000500D02*
X013499Y000000D01*
X-013499Y000500D02*
X013499Y000000D01*
X-013499Y000500D02*
X013499Y000000D01*
X-013499Y000500D02*
X013499Y000000D01*
X-013499Y000500D02*
X013499Y000000D01*
X-013251Y-020248D02*
X000000Y020499D01*
X000500Y-020499D02*
X000000Y020499D01*
X000500Y-020499D02*
X000000Y020499D01*
X000500Y-020499D02*
X000000Y020499D01*
X000500Y-020500D02*
X000000Y020500D01*
X000500Y-020500D02*
X000000Y020499D01*
X000500Y-020499D02*
X000000Y020499D01*
X000500Y-020499D02*
X000000Y020499D01*
X000500Y-020499D02*
X000000Y020499D01*
X000500Y-020499D02*
X000000Y020499D01*
X000500Y-020499D02*
X000000Y020499D01*
X000500Y-020499D02*
X000000Y020499D01*
X000500Y-020499D02*
X000000Y020499D01*
X000500Y-020499D02*
X000000Y020499D01*
X000500Y-020499D02*
X000000Y020499D01*
X000500Y-020500D02*
X000000Y020500D01*
X000500Y-020500D02*
X000000Y020499D01*
X000500Y-020499D02*
X000000Y020499D01*
X000500Y-020499D02*
X000000Y020499D01*
X000500Y-020499D02*
X000000Y020499D01*
X000500Y-020499D02*
X000000Y020499D01*
X000500Y-020499D02*
X000000Y020499D01*
X000500Y-020499D02*
X000000Y020499D01*
X000500Y-020499D02*
X000000Y020499D01*
X000500Y-020499D02*
X000000Y020499D01*
X000500Y-020499D02*
X000000Y020499D01*
X000500Y-020499D02*
X000000Y020499D01*
X-013248Y-090997D02*
X-000003Y-020500D01*
X-000000Y-000000D02*
X013499Y-000003D01*
X000003Y020499*
X000000Y000000D02*
X-013499Y000003D01*
X-000003Y-020250D02*
X013499Y-000000D01*
X-013499Y000499D02*
X013499Y000000D01*
X-013499Y000500D02*
X013499Y000000D01*
X-013499Y000500D02*
X013499Y000000D01*
X-013499Y000500D02*
X013499Y000000D01*
X-013499Y000500D02*
X013499Y000000D01*
X-013499Y000500D02*
X013499Y000000D01*
X-013499Y000500D02*
X013499Y000000D01*
X-013499Y000500D02*
X013499Y000000D01*
X-013499Y000500D02*
X013500Y000000D01*
X-013499Y000500D02*
X013499Y000000D01*
X-013499Y000500D02*
X013499Y000000D01*
X-013499Y000500D02*
X013499Y000000D01*
X-013499Y000500D02*
X013499Y000000D01*
X-013499Y000500D02*
X013499Y000000D01*
X-013499Y000500D02*
X013499Y000000D01*
X-013499Y000500D02*
X013499Y000000D01*
X-013499Y000500D02*
X013499Y000000D01*
X-013499Y000500D02*
X013499Y000000D01*
X-013499Y000500D02*
X013499Y000000D01*
X-013499Y000500D02*
X013500Y000000D01*
X-013499Y000500D02*
X013499Y000000D01*
X-013499Y000500D02*
X013499Y000000D01*
X-013499Y000500D02*
X013499Y000000D01*
X-013499Y000500D02*
X013499Y000000D01*
X-013499Y000500D02*
X013499Y000000D01*
X-013499Y000500D02*
X013499Y000000D01*
X-013499Y000500D02*
X013499Y000000D01*
X-013499Y000500D02*
X013499Y000000D01*
X-013499Y000500D02*
X013499Y000000D01*
X-013499Y000500D02*
X013499Y000000D01*
X-013499Y000500D02*
X013500Y000000D01*
X-013500Y000500D02*
X013500Y000000D01*
X-013499Y000500D02*
X013499Y000000D01*
X-013499Y000500D02*
X013499Y000000D01*
X-013499Y000500D02*
X013499Y000000D01*
X-013499Y000500D02*
X013499Y000000D01*
X-013499Y000500D02*
X013499Y000000D01*
X-013499Y000500D02*
X013499Y000000D01*
X-013499Y000500D02*
X013499Y000000D01*
X-013499Y000500D02*
X013499Y000000D01*
X-013251Y-020248D02*
X000000Y020499D01*
X000500Y-020499D02*
X000000Y020499D01*
X000500Y-020499D02*
X000000Y020499D01*
X000500Y-020500D02*
X000000Y020500D01*
X000500Y-020500D02*
X000000Y020499D01*
X000500Y-020499D02*
X000000Y020499D01*
X000500Y-020499D02*
X000000Y020499D01*
X000500Y-020499D02*
X000000Y020499D01*
X000500Y-020499D02*
X000000Y020499D01*
X000500Y-020499D02*
X000000Y020499D01*
X000500Y-020499D02*
X000000Y020499D01*
X000500Y-020499D02*
X000000Y020499D01*
X000500Y-020499D02*
X000000Y020499D01*
X000500Y-020499D02*
X000000Y020499D01*
X000500Y-020500D02*
X000000Y020500D01*
X000500Y-020500D02*
X000000Y020499D01*
X000500Y-020499D02*
X000000Y020499D01*
X000500Y-020499D02*
X000000Y020499D01*
X000500Y-020499D02*
X000000Y020499D01*
X000500Y-020499D02*
X000000Y020499D01*
X000500Y-020499D02*
X000000Y020499D01*
X000500Y-020499D02*
X000000Y020499D01*
X000500Y-020499D02*
X000000Y020499D01*
X000500Y-020499D02*
X000000Y020499D01*
X000500Y-020499D02*
X000000Y020499D01*
X000500Y-020499D02*
X000000Y020499D01*
X000500Y-020500D02*
X000000Y020500D01*
X031751Y231002D02*
X-000002Y-020499D01*
X-000000Y-000000D02*
X013499Y-000003D01*
X000003Y020500*
X000000Y000000D02*
X-013499Y000002D01*
X-000003Y-020250D02*
X013499Y-000000D01*
X-013499Y000499D02*
X013499Y000000D01*
X-013499Y000500D02*
X013499Y000000D01*
X-013499Y000500D02*
X013499Y000000D01*
X-013499Y000500D02*
X013499Y000000D01*
X-013499Y000500D02*
X013499Y000000D01*
X-013499Y000500D02*
X013499Y000000D01*
X-013499Y000500D02*
X013499Y000000D01*
X-013499Y000500D02*
X013500Y000000D01*
X-013499Y000500D02*
X013499Y000000D01*
X-013499Y000500D02*
X013499Y000000D01*
X-013499Y000500D02*
X013499Y000000D01*
X-013499Y000500D02*
X013499Y000000D01*
X-013499Y000500D02*
X013499Y000000D01*
X-013499Y000500D02*
X013499Y000000D01*
X-013499Y000500D02*
X013499Y000000D01*
X-013499Y000500D02*
X013499Y000000D01*
X-013499Y000500D02*
X013499Y000000D01*
X-013499Y000500D02*
X013499Y000000D01*
X-013499Y000500D02*
X013499Y000000D01*
X-013499Y000500D02*
X013500Y000000D01*
X-013499Y000500D02*
X013499Y000000D01*
X-013499Y000500D02*
X013499Y000000D01*
X-013499Y000500D02*
X013499Y000000D01*
X-013499Y000500D02*
X013499Y000000D01*
X-013499Y000500D02*
X013499Y000000D01*
X-013499Y000500D02*
X013499Y000000D01*
X-013499Y000500D02*
X013499Y000000D01*
X-013499Y000500D02*
X013499Y000000D01*
X-013499Y000500D02*
X013499Y000000D01*
X-013499Y000500D02*
X013499Y000000D01*
X-013499Y000500D02*
X013500Y000000D01*
X-013499Y000500D02*
X013499Y000000D01*
X-013499Y000500D02*
X013499Y000000D01*
X-013499Y000500D02*
X013499Y000000D01*
X-013499Y000500D02*
X013499Y000000D01*
X-013499Y000500D02*
X013499Y000000D01*
X-013499Y000500D02*
X013499Y000000D01*
X-013499Y000500D02*
X013499Y000000D01*
X-013499Y000500D02*
X013499Y000000D01*
X-013499Y000500D02*
X013499Y000000D01*
X-013251Y-020248D02*
X000000Y020499D01*
X000500Y-020499D02*
X000000Y020499D01*
X000500Y-020499D02*
X000000Y020499D01*
X000500Y-020499D02*
X000000Y020499D01*
X000500Y-020500D02*
X000000Y020500D01*
X000500Y-020500D02*
X000000Y020499D01*
X000500Y-020499D02*
X000000Y020499D01*
X000500Y-020499D02*
X000000Y020499D01*
X000500Y-020499D02*
X000000Y020499D01*
X000500Y-020499D02*
X000000Y020499D01*
X000500Y-020499D02*
X000000Y020499D01*
X000500Y-020499D02*
X000000Y020499D01*
X000500Y-020499D02*
X000000Y020499D01*
X000500Y-020499D02*
X000000Y020499D01*
X000500Y-020499D02*
X000000Y020499D01*
X000500Y-020500D02*
X000000Y020500D01*
X000500Y-020500D02*
X000000Y020499D01*
X000500Y-020499D02*
X000000Y020499D01*
X000500Y-020499D02*
X000000Y020499D01*
X000500Y-020499D02*
X000000Y020499D01*
X000500Y-020499D02*
X000000Y020499D01*
X000500Y-020499D02*
X000000Y020499D01*
X000500Y-020499D02*
X000000Y020499D01*
X000500Y-020499D02*
X000000Y020499D01*
X000500Y-020499D02*
X000000Y020499D01*
X000500Y-020499D02*
X000000Y020499D01*
X000500Y-020499D02*
X000000Y020499D01*
X-013248Y-090997D02*
X-000003Y-020500D01*
X-000000Y-000000D02*
X013499Y-000003D01*
X000003Y020499*
X000000Y000000D02*
X-013499Y000003D01*
X-000003Y-020250D02*
X013499Y-000000D01*
X-013499Y000499D02*
X013499Y000000D01*
X-013499Y000500D02*
X013499Y000000D01*
X-013499Y000500D02*
X013499Y000000D01*
X-013499Y000500D02*
X013499Y000000D01*
X-013499Y000500D02*
X013499Y000000D01*
X-013499Y000500D02*
X013499Y000000D01*
X-013499Y000500D02*
X013499Y000000D01*
X-013499Y000500D02*
X013500Y000000D01*
X-013499Y000500D02*
X013499Y000000D01*
X-013499Y000500D02*
X013499Y000000D01*
X-013499Y000500D02*
X013499Y000000D01*
X-013499Y000500D02*
X013499Y000000D01*
X-013499Y000500D02*
X013499Y000000D01*
X-013499Y000500D02*
X013499Y000000D01*
X-013499Y000500D02*
X013499Y000000D01*
X-013499Y000500D02*
X013499Y000000D01*
X-013499Y000500D02*
X013499Y000000D01*
X-013499Y000500D02*
X013499Y000000D01*
X-013499Y000500D02*
X013499Y000000D01*
X-013499Y000500D02*
X013500Y000000D01*
X-013499Y000500D02*
X013499Y000000D01*
X-013499Y000500D02*
X013499Y000000D01*
X-013499Y000500D02*
X013499Y000000D01*
X-013499Y000500D02*
X013499Y000000D01*
X-013499Y000500D02*
X013499Y000000D01*
X-013499Y000500D02*
X013499Y000000D01*
X-013499Y000500D02*
X013499Y000000D01*
X-013499Y000500D02*
X013499Y000000D01*
X-013499Y000500D02*
X013499Y000000D01*
X-013499Y000500D02*
X013499Y000000D01*
X-013499Y000500D02*
X013500Y000000D01*
X-013499Y000500D02*
X013499Y000000D01*
X-013499Y000500D02*
X013499Y000000D01*
X-013499Y000500D02*
X013499Y000000D01*
X-013499Y000500D02*
X013499Y000000D01*
X-013499Y000500D02*
X013499Y000000D01*
X-013499Y000500D02*
X013499Y000000D01*
X-013499Y000500D02*
X013499Y000000D01*
X-013499Y000500D02*
X013499Y000000D01*
X-013499Y000500D02*
X013499Y000000D01*
X-013251Y-020248D02*
X000000Y020499D01*
X000500Y-020499D02*
X000000Y020499D01*
X000500Y-020499D02*
X000000Y020499D01*
X000500Y-020500D02*
X000000Y020500D01*
X000500Y-020500D02*
X000000Y020499D01*
X000500Y-020499D02*
X000000Y020499D01*
X000500Y-020499D02*
X000000Y020499D01*
X000500Y-020499D02*
X000000Y020499D01*
X000500Y-020499D02*
X000000Y020499D01*
X000500Y-020499D02*
X000000Y020499D01*
X000500Y-020499D02*
X000000Y020499D01*
X000500Y-020499D02*
X000000Y020499D01*
X000500Y-020499D02*
X000000Y020499D01*
X000500Y-020499D02*
X000000Y020499D01*
X000500Y-020500D02*
X000000Y020500D01*
X000500Y-020500D02*
X000000Y020499D01*
X000500Y-020499D02*
X000000Y020499D01*
X000500Y-020499D02*
X000000Y020499D01*
X000500Y-020499D02*
X000000Y020499D01*
X000500Y-020499D02*
X000000Y020499D01*
X000500Y-020499D02*
X000000Y020499D01*
X000500Y-020499D02*
X000000Y020499D01*
X000500Y-020499D02*
X000000Y020499D01*
X000500Y-020499D02*
X000000Y020499D01*
X000500Y-020499D02*
X000000Y020499D01*
X000500Y-020499D02*
X000000Y020499D01*
X000500Y-020500D02*
X000000Y020500D01*
X-058248Y091002D02*
X-000003Y-020499D01*
X-000000Y-000000D02*
X013499Y-000003D01*
X000003Y020500*
X000000Y000000D02*
X-013499Y000002D01*
X-000003Y-020250D02*
X013499Y-000000D01*
X-013499Y000499D02*
X013499Y000000D01*
X-013499Y000500D02*
X013499Y000000D01*
X-013499Y000500D02*
X013499Y000000D01*
X-013499Y000500D02*
X013499Y000000D01*
X-013499Y000500D02*
X013499Y000000D01*
X-013499Y000500D02*
X013499Y000000D01*
X-013499Y000500D02*
X013499Y000000D01*
X-013499Y000500D02*
X013499Y000000D01*
X-013499Y000500D02*
X013500Y000000D01*
X-013499Y000500D02*
X013499Y000000D01*
X-013499Y000500D02*
X013499Y000000D01*
X-013499Y000500D02*
X013499Y000000D01*
X-013499Y000500D02*
X013499Y000000D01*
X-013499Y000500D02*
X013499Y000000D01*
X-013499Y000500D02*
X013499Y000000D01*
X-013499Y000500D02*
X013499Y000000D01*
X-013499Y000500D02*
X013499Y000000D01*
X-013499Y000500D02*
X013499Y000000D01*
X-013499Y000500D02*
X013499Y000000D01*
X-013499Y000500D02*
X013500Y000000D01*
X-013499Y000500D02*
X013499Y000000D01*
X-013499Y000500D02*
X013499Y000000D01*
X-013499Y000500D02*
X013499Y000000D01*
X-013499Y000500D02*
X013499Y000000D01*
X-013499Y000500D02*
X013499Y000000D01*
X-013499Y000500D02*
X013499Y000000D01*
X-013499Y000500D02*
X013499Y000000D01*
X-013499Y000500D02*
X013499Y000000D01*
X-013499Y000500D02*
X013499Y000000D01*
X-013499Y000500D02*
X013499Y000000D01*
X-013499Y000500D02*
X013500Y000000D01*
X-013500Y000500D02*
X013500Y000000D01*
X-013499Y000500D02*
X013499Y000000D01*
X-013499Y000500D02*
X013499Y000000D01*
X-013499Y000500D02*
X013499Y000000D01*
X-013499Y000500D02*
X013499Y000000D01*
X-013499Y000500D02*
X013499Y000000D01*
X-013499Y000500D02*
X013499Y000000D01*
X-013499Y000500D02*
X013499Y000000D01*
X-013499Y000500D02*
X013499Y000000D01*
X-013251Y-020248D02*
X000000Y020499D01*
X000500Y-020499D02*
X000000Y020499D01*
X000500Y-020499D02*
X000000Y020499D01*
X000500Y-020499D02*
X000000Y020499D01*
X000500Y-020500D02*
X000000Y020500D01*
X000500Y-020500D02*
X000000Y020499D01*
X000500Y-020499D02*
X000000Y020499D01*
X000500Y-020499D02*
X000000Y020499D01*
X000500Y-020499D02*
X000000Y020499D01*
X000500Y-020499D02*
X000000Y020499D01*
X000500Y-020499D02*
X000000Y020499D01*
X000500Y-020499D02*
X000000Y020499D01*
X000500Y-020499D02*
X000000Y020499D01*
X000500Y-020499D02*
X000000Y020499D01*
X000500Y-020499D02*
X000000Y020499D01*
X000500Y-020500D02*
X000000Y020500D01*
X000500Y-020500D02*
X000000Y020499D01*
X000500Y-020499D02*
X000000Y020499D01*
X000500Y-020499D02*
X000000Y020499D01*
X000500Y-020499D02*
X000000Y020499D01*
X000500Y-020499D02*
X000000Y020499D01*
X000500Y-020499D02*
X000000Y020499D01*
X000500Y-020499D02*
X000000Y020499D01*
X000500Y-020499D02*
X000000Y020499D01*
X000500Y-020499D02*
X000000Y020499D01*
X000500Y-020499D02*
X000000Y020499D01*
X000500Y-020499D02*
X000000Y020499D01*
X-013248Y-090997D02*
X-000003Y-020500D01*
X-000000Y-000000D02*
X013499Y-000003D01*
X000003Y020499*
X000000Y000000D02*
X-013499Y000003D01*
X-000003Y-020250D02*
X013499Y-000000D01*
X-013499Y000499D02*
X013499Y000000D01*
X-013499Y000500D02*
X013499Y000000D01*
X-013499Y000500D02*
X013499Y000000D01*
X-013499Y000500D02*
X013499Y000000D01*
X-013499Y000500D02*
X013499Y000000D01*
X-013499Y000500D02*
X013499Y000000D01*
X-013499Y000500D02*
X013499Y000000D01*
X-013499Y000500D02*
X013499Y000000D01*
X-013499Y000500D02*
X013500Y000000D01*
X-013499Y000500D02*
X013499Y000000D01*
X-013499Y000500D02*
X013499Y000000D01*
X-013499Y000500D02*
X013499Y000000D01*
X-013499Y000500D02*
X013499Y000000D01*
X-013499Y000500D02*
X013499Y000000D01*
X-013499Y000500D02*
X013499Y000000D01*
X-013499Y000500D02*
X013499Y000000D01*
X-013499Y000500D02*
X013499Y000000D01*
X-013499Y000500D02*
X013499Y000000D01*
X-013499Y000500D02*
X013499Y000000D01*
X-013499Y000500D02*
X013500Y000000D01*
X-013499Y000500D02*
X013499Y000000D01*
X-013499Y000500D02*
X013499Y000000D01*
X-013499Y000500D02*
X013499Y000000D01*
X-013499Y000500D02*
X013499Y000000D01*
X-013499Y000500D02*
X013499Y000000D01*
X-013499Y000500D02*
X013499Y000000D01*
X-013499Y000500D02*
X013499Y000000D01*
X-013499Y000500D02*
X013499Y000000D01*
X-013499Y000500D02*
X013499Y000000D01*
X-013499Y000500D02*
X013499Y000000D01*
X-013499Y000500D02*
X013500Y000000D01*
X-013500Y000500D02*
X013500Y000000D01*
X-013499Y000500D02*
X013499Y000000D01*
X-013499Y000500D02*
X013499Y000000D01*
X-013499Y000500D02*
X013499Y000000D01*
X-013499Y000500D02*
X013499Y000000D01*
X-013499Y000500D02*
X013499Y000000D01*
X-013499Y000500D02*
X013499Y000000D01*
X-013499Y000500D02*
X013499Y000000D01*
X-013499Y000500D02*
X013499Y000000D01*
X-013251Y-020248D02*
X000000Y020499D01*
X000500Y-020499D02*
X000000Y020499D01*
X000500Y-020499D02*
X000000Y020499D01*
X000500Y-020500D02*
X000000Y020500D01*
X000500Y-020500D02*
X000000Y020499D01*
X000500Y-020499D02*
X000000Y020499D01*
X000500Y-020499D02*
X000000Y020499D01*
X000500Y-020499D02*
X000000Y020499D01*
X000500Y-020499D02*
X000000Y020499D01*
X000500Y-020499D02*
X000000Y020499D01*
X000500Y-020499D02*
X000000Y020499D01*
X000500Y-020499D02*
X000000Y020499D01*
X000500Y-020499D02*
X000000Y020499D01*
X000500Y-020499D02*
X000000Y020499D01*
X000500Y-020500D02*
X000000Y020500D01*
X000500Y-020500D02*
X000000Y020499D01*
X000500Y-020499D02*
X000000Y020499D01*
X000500Y-020499D02*
X000000Y020499D01*
X000500Y-020499D02*
X000000Y020499D01*
X000500Y-020499D02*
X000000Y020499D01*
X000500Y-020499D02*
X000000Y020499D01*
X000500Y-020499D02*
X000000Y020499D01*
X000500Y-020499D02*
X000000Y020499D01*
X000500Y-020499D02*
X000000Y020499D01*
X000500Y-020499D02*
X000000Y020499D01*
X000500Y-020499D02*
X000000Y020499D01*
X000500Y-020500D02*
X000000Y020500D01*
X031751Y231002D02*
X-000002Y-020499D01*
X-000000Y-000000D02*
X013499Y-000003D01*
X000003Y020500*
X000000Y000000D02*
X-013499Y000002D01*
X-000003Y-020250D02*
X013499Y-000000D01*
X-013499Y000499D02*
X013499Y000000D01*
X-013499Y000500D02*
X013499Y000000D01*
X-013499Y000500D02*
X013499Y000000D01*
X-013499Y000500D02*
X013499Y000000D01*
X-013499Y000500D02*
X013499Y000000D01*
X-013499Y000500D02*
X013499Y000000D01*
X-013499Y000500D02*
X013499Y000000D01*
X-013499Y000500D02*
X013500Y000000D01*
X-013499Y000500D02*
X013499Y000000D01*
X-013499Y000500D02*
X013499Y000000D01*
X-013499Y000500D02*
X013499Y000000D01*
X-013499Y000500D02*
X013499Y000000D01*
X-013499Y000500D02*
X013499Y000000D01*
X-013499Y000500D02*
X013499Y000000D01*
X-013499Y000500D02*
X013499Y000000D01*
X-013499Y000500D02*
X013499Y000000D01*
X-013499Y000500D02*
X013499Y000000D01*
X-013499Y000500D02*
X013499Y000000D01*
X-013499Y000500D02*
X013499Y000000D01*
X-013499Y000500D02*
X013500Y000000D01*
X-013499Y000500D02*
X013499Y000000D01*
X-013499Y000500D02*
X013499Y000000D01*
X-013499Y000500D02*
X013499Y000000D01*
X-013499Y000500D02*
X013499Y000000D01*
X-013499Y000500D02*
X013499Y000000D01*
X-013499Y000500D02*
X013499Y000000D01*
X-013499Y000500D02*
X013499Y000000D01*
X-013499Y000500D02*
X013499Y000000D01*
X-013499Y000500D02*
X013499Y000000D01*
X-013499Y000500D02*
X013499Y000000D01*
X-013499Y000500D02*
X013500Y000000D01*
X-013499Y000500D02*
X013499Y000000D01*
X-013499Y000500D02*
X013499Y000000D01*
X-013499Y000500D02*
X013499Y000000D01*
X-013499Y000500D02*
X013499Y000000D01*
X-013499Y000500D02*
X013499Y000000D01*
X-013499Y000500D02*
X013499Y000000D01*
X-013499Y000500D02*
X013499Y000000D01*
X-013499Y000500D02*
X013499Y000000D01*
X-013499Y000500D02*
X013499Y000000D01*
X-013251Y-020248D02*
X000000Y020499D01*
X000500Y-020499D02*
X000000Y020499D01*
X000500Y-020499D02*
X000000Y020499D01*
X000500Y-020499D02*
X000000Y020499D01*
X000500Y-020500D02*
X000000Y020500D01*
X000500Y-020500D02*
X000000Y020499D01*
X000500Y-020499D02*
X000000Y020499D01*
X000500Y-020499D02*
X000000Y020499D01*
X000500Y-020499D02*
X000000Y020499D01*
X000500Y-020499D02*
X000000Y020499D01*
X000500Y-020499D02*
X000000Y020499D01*
X000500Y-020499D02*
X000000Y020499D01*
X000500Y-020499D02*
X000000Y020499D01*
X000500Y-020499D02*
X000000Y020499D01*
X000500Y-020499D02*
X000000Y020499D01*
X000500Y-020500D02*
X000000Y020500D01*
X000500Y-020500D02*
X000000Y020499D01*
X000500Y-020499D02*
X000000Y020499D01*
X000500Y-020499D02*
X000000Y020499D01*
X000500Y-020499D02*
X000000Y020499D01*
X000500Y-020499D02*
X000000Y020499D01*
X000500Y-020499D02*
X000000Y020499D01*
X000500Y-020499D02*
X000000Y020499D01*
X000500Y-020499D02*
X000000Y020499D01*
X000500Y-020499D02*
X000000Y020499D01*
X000500Y-020499D02*
X000000Y020499D01*
X000500Y-020499D02*
X000000Y020499D01*
X-013248Y-090997D02*
X-000003Y-020500D01*
X-000000Y-000000D02*
X013499Y-000003D01*
X000003Y020499*
X000000Y000000D02*
X-013499Y000003D01*
X-000003Y-020250D02*
X013499Y-000000D01*
X-013499Y000499D02*
X013499Y000000D01*
X-013499Y000500D02*
X013499Y000000D01*
X-013499Y000500D02*
X013499Y000000D01*
X-013499Y000500D02*
X013499Y000000D01*
X-013499Y000500D02*
X013499Y000000D01*
X-013499Y000500D02*
X013499Y000000D01*
X-013499Y000500D02*
X013499Y000000D01*
X-013499Y000500D02*
X013500Y000000D01*
X-013499Y000500D02*
X013499Y000000D01*
X-013499Y000500D02*
X013499Y000000D01*
X-013499Y000500D02*
X013499Y000000D01*
X-013499Y000500D02*
X013499Y000000D01*
X-013499Y000500D02*
X013499Y000000D01*
X-013499Y000500D02*
X013499Y000000D01*
X-013499Y000500D02*
X013499Y000000D01*
X-013499Y000500D02*
X013499Y000000D01*
X-013499Y000500D02*
X013499Y000000D01*
X-013499Y000500D02*
X013499Y000000D01*
X-013499Y000500D02*
X013499Y000000D01*
X-013499Y000500D02*
X013500Y000000D01*
X-013499Y000500D02*
X013499Y000000D01*
X-013499Y000500D02*
X013499Y000000D01*
X-013499Y000500D02*
X013499Y000000D01*
X-013499Y000500D02*
X013499Y000000D01*
X-013499Y000500D02*
X013499Y000000D01*
X-013499Y000500D02*
X013499Y000000D01*
X-013499Y000500D02*
X013499Y000000D01*
X-013499Y000500D02*
X013499Y000000D01*
X-013499Y000500D02*
X013499Y000000D01*
X-013499Y000500D02*
X013499Y000000D01*
X-013499Y000500D02*
X013500Y000000D01*
X-013499Y000500D02*
X013499Y000000D01*
X-013499Y000500D02*
X013499Y000000D01*
X-013499Y000500D02*
X013499Y000000D01*
X-013499Y000500D02*
X013499Y000000D01*
X-013499Y000500D02*
X013499Y000000D01*
X-013499Y000500D02*
X013499Y000000D01*
X-013499Y000500D02*
X013499Y000000D01*
X-013499Y000500D02*
X013499Y000000D01*
X-013499Y000500D02*
X013499Y000000D01*
X-013251Y-020248D02*
X000000Y020499D01*
X000500Y-020499D02*
X000000Y020499D01*
X000500Y-020499D02*
X000000Y020499D01*
X000500Y-020500D02*
X000000Y020500D01*
X000500Y-020500D02*
X000000Y020499D01*
X000500Y-020499D02*
X000000Y020499D01*
X000500Y-020499D02*
X000000Y020499D01*
X000500Y-020499D02*
X000000Y020499D01*
X000500Y-020499D02*
X000000Y020499D01*
X000500Y-020499D02*
X000000Y020499D01*
X000500Y-020499D02*
X000000Y020499D01*
X000500Y-020499D02*
X000000Y020499D01*
X000500Y-020499D02*
X000000Y020499D01*
X000500Y-020499D02*
X000000Y020499D01*
X000500Y-020500D02*
X000000Y020500D01*
X000500Y-020500D02*
X000000Y020499D01*
X000500Y-020499D02*
X000000Y020499D01*
X000500Y-020499D02*
X000000Y020499D01*
X000500Y-020499D02*
X000000Y020499D01*
X000500Y-020499D02*
X000000Y020499D01*
X000500Y-020499D02*
X000000Y020499D01*
X000500Y-020499D02*
X000000Y020499D01*
X000500Y-020499D02*
X000000Y020499D01*
X000500Y-020499D02*
X000000Y020499D01*
X000500Y-020499D02*
X000000Y020499D01*
X000500Y-020499D02*
X000000Y020499D01*
X000500Y-020500D02*
X000000Y020500D01*
X-058248Y091002D02*
X-000003Y-020499D01*
X-000000Y-000000D02*
X013499Y-000003D01*
X000003Y020500*
X000000Y000000D02*
X-013499Y000002D01*
X-000003Y-020250D02*
X013499Y-000000D01*
X-013499Y000499D02*
X013499Y000000D01*
X-013499Y000500D02*
X013499Y000000D01*
X-013499Y000500D02*
X013499Y000000D01*
X-013499Y000500D02*
X013499Y000000D01*
X-013499Y000500D02*
X013499Y000000D01*
X-013499Y000500D02*
X013499Y000000D01*
X-013499Y000500D02*
X013499Y000000D01*
X-013499Y000500D02*
X013499Y000000D01*
X-013499Y000500D02*
X013500Y000000D01*
X-013499Y000500D02*
X013499Y000000D01*
X-013499Y000500D02*
X013499Y000000D01*
X-013499Y000500D02*
X013499Y000000D01*
X-013499Y000500D02*
X013499Y000000D01*
X-013499Y000500D02*
X013499Y000000D01*
X-013499Y000500D02*
X013499Y000000D01*
X-013499Y000500D02*
X013499Y000000D01*
X-013499Y000500D02*
X013499Y000000D01*
X-013499Y000500D02*
X013499Y000000D01*
X-013499Y000500D02*
X013499Y000000D01*
X-013499Y000500D02*
X013500Y000000D01*
X-013499Y000500D02*
X013499Y000000D01*
X-013499Y000500D02*
X013499Y000000D01*
X-013499Y000500D02*
X013499Y000000D01*
X-013499Y000500D02*
X013499Y000000D01*
X-013499Y000500D02*
X013499Y000000D01*
X-013499Y000500D02*
X013499Y000000D01*
X-013499Y000500D02*
X013499Y000000D01*
X-013499Y000500D02*
X013499Y000000D01*
X-013499Y000500D02*
X013499Y000000D01*
X-013499Y000500D02*
X013499Y000000D01*
X-013499Y000500D02*
X013500Y000000D01*
X-013500Y000500D02*
X013500Y000000D01*
X-013499Y000500D02*
X013499Y000000D01*
X-013499Y000500D02*
X013499Y000000D01*
X-013499Y000500D02*
X013499Y000000D01*
X-013499Y000500D02*
X013499Y000000D01*
X-013499Y000500D02*
X013499Y000000D01*
X-013499Y000500D02*
X013499Y000000D01*
X-013499Y000500D02*
X013499Y000000D01*
X-013499Y000500D02*
X013499Y000000D01*
X-013251Y-020248D02*
X000000Y020499D01*
X000500Y-020499D02*
X000000Y020499D01*
X000500Y-020499D02*
X000000Y020499D01*
X000500Y-020499D02*
X000000Y020499D01*
X000500Y-020500D02*
X000000Y020500D01*
X000500Y-020500D02*
X000000Y020499D01*
X000500Y-020499D02*
X000000Y020499D01*
X000500Y-020499D02*
X000000Y020499D01*
X000500Y-020499D02*
X000000Y020499D01*
X000500Y-020499D02*
X000000Y020499D01*
X000500Y-020499D02*
X000000Y020499D01*
X000500Y-020499D02*
X000000Y020499D01*
X000500Y-020499D02*
X000000Y020499D01*
X000500Y-020499D02*
X000000Y020499D01*
X000500Y-020499D02*
X000000Y020499D01*
X000500Y-020500D02*
X000000Y020500D01*
X000500Y-020500D02*
X000000Y020499D01*
X000500Y-020499D02*
X000000Y020499D01*
X000500Y-020499D02*
X000000Y020499D01*
X000500Y-020499D02*
X000000Y020499D01*
X000500Y-020499D02*
X000000Y020499D01*
X000500Y-020499D02*
X000000Y020499D01*
X000500Y-020499D02*
X000000Y020499D01*
X000500Y-020499D02*
X000000Y020499D01*
X000500Y-020499D02*
X000000Y020499D01*
X000500Y-020499D02*
X000000Y020499D01*
X000500Y-020499D02*
X000000Y020499D01*
X-013248Y-090997D02*
X-000003Y-020500D01*
X-000000Y-000000D02*
X013499Y-000003D01*
X000003Y020499*
X000000Y000000D02*
X-013499Y000003D01*
X-000003Y-020250D02*
X013499Y-000000D01*
X-013499Y000499D02*
X013499Y000000D01*
X-013499Y000500D02*
X013499Y000000D01*
X-013499Y000500D02*
X013499Y000000D01*
X-013499Y000500D02*
X013499Y000000D01*
X-013499Y000500D02*
X013499Y000000D01*
X-013499Y000500D02*
X013499Y000000D01*
X-013499Y000500D02*
X013499Y000000D01*
X-013499Y000500D02*
X013499Y000000D01*
X-013499Y000500D02*
X013500Y000000D01*
X-013499Y000500D02*
X013499Y000000D01*
X-013499Y000500D02*
X013499Y000000D01*
X-013499Y000500D02*
X013499Y000000D01*
X-013499Y000500D02*
X013499Y000000D01*
X-013499Y000500D02*
X013499Y000000D01*
X-013499Y000500D02*
X013499Y000000D01*
X-013499Y000500D02*
X013499Y000000D01*
X-013499Y000500D02*
X013499Y000000D01*
X-013499Y000500D02*
X013499Y000000D01*
X-013499Y000500D02*
X013499Y000000D01*
X-013499Y000500D02*
X013500Y000000D01*
X-013499Y000500D02*
X013499Y000000D01*
X-013499Y000500D02*
X013499Y000000D01*
X-013499Y000500D02*
X013499Y000000D01*
X-013499Y000500D02*
X013499Y000000D01*
X-013499Y000500D02*
X013499Y000000D01*
X-013499Y000500D02*
X013499Y000000D01*
X-013499Y000500D02*
X013499Y000000D01*
X-013499Y000500D02*
X013499Y000000D01*
X-013499Y000500D02*
X013499Y000000D01*
X-013499Y000500D02*
X013499Y000000D01*
X-013499Y000500D02*
X013500Y000000D01*
X-013500Y000500D02*
X013500Y000000D01*
X-013499Y000500D02*
X013499Y000000D01*
X-013499Y000500D02*
X013499Y000000D01*
X-013499Y000500D02*
X013499Y000000D01*
X-013499Y000500D02*
X013499Y000000D01*
X-013499Y000500D02*
X013499Y000000D01*
X-013499Y000500D02*
X013499Y000000D01*
X-013499Y000500D02*
X013499Y000000D01*
X-013499Y000500D02*
X013499Y000000D01*
X-013251Y-020248D02*
X000000Y020499D01*
X000500Y-020499D02*
X000000Y020499D01*
X000500Y-020499D02*
X000000Y020499D01*
X000500Y-020500D02*
X000000Y020500D01*
X000500Y-020500D02*
X000000Y020499D01*
X000500Y-020499D02*
X000000Y020499D01*
X000500Y-020499D02*
X000000Y020499D01*
X000500Y-020499D02*
X000000Y020499D01*
X000500Y-020499D02*
X000000Y020499D01*
X000500Y-020499D02*
X000000Y020499D01*
X000500Y-020499D02*
X000000Y020499D01*
X000500Y-020499D02*
X000000Y020499D01*
X000500Y-020499D02*
X000000Y020499D01*
X000500Y-020499D02*
X000000Y020499D01*
X000500Y-020500D02*
X000000Y020500D01*
X000500Y-020500D02*
X000000Y020499D01*
X000500Y-020499D02*
X000000Y020499D01*
X000500Y-020499D02*
X000000Y020499D01*
X000500Y-020499D02*
X000000Y020499D01*
X000500Y-020499D02*
X000000Y020499D01*
X000500Y-020499D02*
X000000Y020499D01*
X000500Y-020499D02*
X000000Y020499D01*
X000500Y-020499D02*
X000000Y020499D01*
X000500Y-020499D02*
X000000Y020499D01*
X000500Y-020499D02*
X000000Y020499D01*
X000500Y-020499D02*
X000000Y020499D01*
X000500Y-020500D02*
X000000Y020500D01*
X306248Y152503D02*
X020500Y-000003D01*
X000000Y-000000D02*
X000003Y013499D01*
X-020499Y000003*
X-000000Y000000D02*
X-000003Y-013499D01*
X-000000Y000248D02*
X020499Y000000D01*
X-020499Y000500D02*
X020499Y000000D01*
X-020499Y000500D02*
X020500Y000000D01*
X-020499Y000500D02*
X020499Y000000D01*
X-020499Y000500D02*
X020499Y000000D01*
X-020499Y000500D02*
X020499Y000000D01*
X-020499Y000500D02*
X020499Y000000D01*
X-020499Y000500D02*
X020499Y000000D01*
X-020499Y000500D02*
X020499Y000000D01*
X-020499Y000500D02*
X020499Y000000D01*
X-020499Y000500D02*
X020499Y000000D01*
X-020499Y000500D02*
X020499Y000000D01*
X-020499Y000500D02*
X020499Y000000D01*
X-020499Y000500D02*
X020500Y000000D01*
X-020499Y000500D02*
X020499Y000000D01*
X-020499Y000500D02*
X020499Y000000D01*
X-020499Y000500D02*
X020499Y000000D01*
X-020499Y000500D02*
X020499Y000000D01*
X-020499Y000500D02*
X020499Y000000D01*
X-020499Y000500D02*
X020499Y000000D01*
X-020499Y000500D02*
X020499Y000000D01*
X-020499Y000500D02*
X020499Y000000D01*
X-020499Y000500D02*
X020499Y000000D01*
X-020499Y000500D02*
X020499Y000000D01*
X-020499Y000500D02*
X020499Y000000D01*
X-020499Y000500D02*
X020500Y000000D01*
X-020499Y000500D02*
X020499Y000000D01*
X-020251Y-013248D02*
X000000Y013499D01*
X000500Y-013499D02*
X000000Y013499D01*
X000500Y-013499D02*
X000000Y013499D01*
X000500Y-013499D02*
X000000Y013499D01*
X000500Y-013499D02*
X000000Y013499D01*
X000500Y-013499D02*
X000000Y013499D01*
X000500Y-013499D02*
X000000Y013499D01*
X000500Y-013499D02*
X000000Y013499D01*
X000500Y-013499D02*
X000000Y013499D01*
X000500Y-013499D02*
X000000Y013499D01*
X000500Y-013500D02*
X000000Y013500D01*
X000500Y-013500D02*
X000000Y013499D01*
X000500Y-013499D02*
X000000Y013499D01*
X000500Y-013499D02*
X000000Y013499D01*
X000500Y-013499D02*
X000000Y013499D01*
X000500Y-013499D02*
X000000Y013499D01*
X000500Y-013499D02*
X000000Y013499D01*
X000500Y-013499D02*
X000000Y013499D01*
X000500Y-013499D02*
X000000Y013499D01*
X000500Y-013499D02*
X000000Y013499D01*
X000500Y-013499D02*
X000000Y013499D01*
X000500Y-013499D02*
X000000Y013499D01*
X000500Y-013500D02*
X000000Y013500D01*
X000500Y-013500D02*
X000000Y013499D01*
X000500Y-013499D02*
X000000Y013499D01*
X000500Y-013499D02*
X000000Y013499D01*
X000500Y-013499D02*
X000000Y013499D01*
X000500Y-013499D02*
X000000Y013499D01*
X000500Y-013499D02*
X000000Y013499D01*
X000500Y-013499D02*
X000000Y013499D01*
X000500Y-013499D02*
X000000Y013499D01*
X000500Y-013499D02*
X000000Y013499D01*
X000500Y-013499D02*
X000000Y013499D01*
X000500Y-013500D02*
X000000Y013500D01*
X000500Y-013500D02*
X000000Y013499D01*
X000500Y-013499D02*
X000000Y013499D01*
X000500Y-013499D02*
X000000Y013499D01*
X000500Y-013499D02*
X000000Y013499D01*
X000500Y-013499D02*
X000000Y013499D01*
X000500Y-013499D02*
X000000Y013499D01*
X000500Y-013499D02*
X000000Y013499D01*
X070748Y-013496D02*
X020500Y-000003D01*
X000000Y-000000D02*
X000003Y013499D01*
X-020499Y000003*
X-000000Y000000D02*
X-000003Y-013499D01*
X-000000Y000248D02*
X020499Y000000D01*
X-020499Y000500D02*
X020500Y000000D01*
X-020499Y000500D02*
X020499Y000000D01*
X-020499Y000500D02*
X020499Y000000D01*
X-020499Y000500D02*
X020499Y000000D01*
X-020499Y000500D02*
X020499Y000000D01*
X-020499Y000500D02*
X020499Y000000D01*
X-020499Y000500D02*
X020499Y000000D01*
X-020499Y000500D02*
X020499Y000000D01*
X-020499Y000500D02*
X020499Y000000D01*
X-020499Y000500D02*
X020499Y000000D01*
X-020499Y000500D02*
X020499Y000000D01*
X-020499Y000500D02*
X020499Y000000D01*
X-020499Y000500D02*
X020500Y000000D01*
X-020499Y000500D02*
X020499Y000000D01*
X-020499Y000500D02*
X020499Y000000D01*
X-020499Y000500D02*
X020499Y000000D01*
X-020499Y000500D02*
X020499Y000000D01*
X-020499Y000500D02*
X020499Y000000D01*
X-020499Y000500D02*
X020499Y000000D01*
X-020499Y000500D02*
X020499Y000000D01*
X-020499Y000500D02*
X020499Y000000D01*
X-020499Y000500D02*
X020499Y000000D01*
X-020499Y000500D02*
X020499Y000000D01*
X-020499Y000500D02*
X020500Y000000D01*
X-020499Y000500D02*
X020499Y000000D01*
X-020499Y000500D02*
X020499Y000000D01*
X-020251Y-013248D02*
X000000Y013499D01*
X000500Y-013499D02*
X000000Y013499D01*
X000500Y-013499D02*
X000000Y013499D01*
X000500Y-013499D02*
X000000Y013499D01*
X000500Y-013499D02*
X000000Y013499D01*
X000500Y-013499D02*
X000000Y013499D01*
X000500Y-013499D02*
X000000Y013499D01*
X000500Y-013499D02*
X000000Y013499D01*
X000500Y-013499D02*
X000000Y013499D01*
X000500Y-013499D02*
X000000Y013499D01*
X000500Y-013500D02*
X000000Y013500D01*
X000500Y-013500D02*
X000000Y013499D01*
X000500Y-013499D02*
X000000Y013499D01*
X000500Y-013499D02*
X000000Y013499D01*
X000500Y-013499D02*
X000000Y013499D01*
X000500Y-013499D02*
X000000Y013499D01*
X000500Y-013499D02*
X000000Y013499D01*
X000500Y-013499D02*
X000000Y013499D01*
X000500Y-013499D02*
X000000Y013499D01*
X000500Y-013499D02*
X000000Y013499D01*
X000500Y-013499D02*
X000000Y013499D01*
X000500Y-013499D02*
X000000Y013499D01*
X000500Y-013500D02*
X000000Y013500D01*
X000500Y-013500D02*
X000000Y013499D01*
X000500Y-013499D02*
X000000Y013499D01*
X000500Y-013499D02*
X000000Y013499D01*
X000500Y-013499D02*
X000000Y013499D01*
X000500Y-013499D02*
X000000Y013499D01*
X000500Y-013499D02*
X000000Y013499D01*
X000500Y-013499D02*
X000000Y013499D01*
X000500Y-013499D02*
X000000Y013499D01*
X000500Y-013499D02*
X000000Y013499D01*
X000500Y-013499D02*
X000000Y013499D01*
X000500Y-013500D02*
X000000Y013500D01*
X000500Y-013500D02*
X000000Y013499D01*
X000500Y-013499D02*
X000000Y013499D01*
X000500Y-013499D02*
X000000Y013499D01*
X000500Y-013499D02*
X000000Y013499D01*
X000500Y-013499D02*
X000000Y013499D01*
X000500Y-013499D02*
X000000Y013499D01*
X000500Y-013499D02*
X000000Y013499D01*
X-111251Y-058496D02*
X020499Y-000003D01*
X000000Y-000000D02*
X000003Y013499D01*
X-020499Y000003*
X-000000Y000000D02*
X-000003Y-013499D01*
X-000000Y000248D02*
X020499Y000000D01*
X-020499Y000500D02*
X020499Y000000D01*
X-020499Y000500D02*
X020500Y000000D01*
X-020499Y000500D02*
X020499Y000000D01*
X-020499Y000500D02*
X020499Y000000D01*
X-020499Y000500D02*
X020499Y000000D01*
X-020499Y000500D02*
X020499Y000000D01*
X-020499Y000500D02*
X020499Y000000D01*
X-020499Y000500D02*
X020499Y000000D01*
X-020499Y000500D02*
X020499Y000000D01*
X-020499Y000500D02*
X020499Y000000D01*
X-020499Y000500D02*
X020499Y000000D01*
X-020499Y000500D02*
X020499Y000000D01*
X-020499Y000500D02*
X020500Y000000D01*
X-020499Y000500D02*
X020499Y000000D01*
X-020499Y000500D02*
X020499Y000000D01*
X-020499Y000500D02*
X020499Y000000D01*
X-020499Y000500D02*
X020499Y000000D01*
X-020499Y000500D02*
X020499Y000000D01*
X-020499Y000500D02*
X020499Y000000D01*
X-020499Y000500D02*
X020499Y000000D01*
X-020499Y000500D02*
X020499Y000000D01*
X-020499Y000500D02*
X020499Y000000D01*
X-020499Y000500D02*
X020499Y000000D01*
X-020499Y000500D02*
X020499Y000000D01*
X-020499Y000500D02*
X020500Y000000D01*
X-020499Y000500D02*
X020499Y000000D01*
X-020251Y-013248D02*
X000000Y013499D01*
X000500Y-013499D02*
X000000Y013499D01*
X000500Y-013499D02*
X000000Y013499D01*
X000500Y-013499D02*
X000000Y013499D01*
X000500Y-013499D02*
X000000Y013499D01*
X000500Y-013499D02*
X000000Y013499D01*
X000500Y-013499D02*
X000000Y013499D01*
X000500Y-013499D02*
X000000Y013499D01*
X000500Y-013499D02*
X000000Y013499D01*
X000500Y-013499D02*
X000000Y013499D01*
X000500Y-013500D02*
X000000Y013500D01*
X000500Y-013500D02*
X000000Y013499D01*
X000500Y-013499D02*
X000000Y013499D01*
X000500Y-013499D02*
X000000Y013499D01*
X000500Y-013499D02*
X000000Y013499D01*
X000500Y-013499D02*
X000000Y013499D01*
X000500Y-013499D02*
X000000Y013499D01*
X000500Y-013499D02*
X000000Y013499D01*
X000500Y-013499D02*
X000000Y013499D01*
X000500Y-013499D02*
X000000Y013499D01*
X000500Y-013499D02*
X000000Y013499D01*
X000500Y-013499D02*
X000000Y013499D01*
X000500Y-013500D02*
X000000Y013500D01*
X000500Y-013500D02*
X000000Y013499D01*
X000500Y-013499D02*
X000000Y013499D01*
X000500Y-013499D02*
X000000Y013499D01*
X000500Y-013499D02*
X000000Y013499D01*
X000500Y-013499D02*
X000000Y013499D01*
X000500Y-013499D02*
X000000Y013499D01*
X000500Y-013499D02*
X000000Y013499D01*
X000500Y-013499D02*
X000000Y013499D01*
X000500Y-013499D02*
X000000Y013499D01*
X000500Y-013499D02*
X000000Y013499D01*
X000500Y-013500D02*
X000000Y013500D01*
X000500Y-013500D02*
X000000Y013499D01*
X000500Y-013499D02*
X000000Y013499D01*
X000500Y-013499D02*
X000000Y013499D01*
X000500Y-013499D02*
X000000Y013499D01*
X000500Y-013499D02*
X000000Y013499D01*
X000500Y-013499D02*
X000000Y013499D01*
X000500Y-013499D02*
X000000Y013499D01*
X070748Y-013496D02*
X020500Y-000003D01*
X000000Y-000000D02*
X000003Y013499D01*
X-020499Y000003*
X-000000Y000000D02*
X-000003Y-013499D01*
X-000000Y000248D02*
X020499Y000000D01*
X-020499Y000500D02*
X020500Y000000D01*
X-020499Y000500D02*
X020499Y000000D01*
X-020499Y000500D02*
X020499Y000000D01*
X-020499Y000500D02*
X020499Y000000D01*
X-020499Y000500D02*
X020499Y000000D01*
X-020499Y000500D02*
X020499Y000000D01*
X-020499Y000500D02*
X020499Y000000D01*
X-020499Y000500D02*
X020499Y000000D01*
X-020499Y000500D02*
X020499Y000000D01*
X-020499Y000500D02*
X020499Y000000D01*
X-020499Y000500D02*
X020499Y000000D01*
X-020499Y000500D02*
X020499Y000000D01*
X-020499Y000500D02*
X020500Y000000D01*
X-020499Y000500D02*
X020499Y000000D01*
X-020499Y000500D02*
X020499Y000000D01*
X-020499Y000500D02*
X020499Y000000D01*
X-020499Y000500D02*
X020499Y000000D01*
X-020499Y000500D02*
X020499Y000000D01*
X-020499Y000500D02*
X020499Y000000D01*
X-020499Y000500D02*
X020499Y000000D01*
X-020499Y000500D02*
X020499Y000000D01*
X-020499Y000500D02*
X020499Y000000D01*
X-020499Y000500D02*
X020499Y000000D01*
X-020499Y000500D02*
X020500Y000000D01*
X-020499Y000500D02*
X020499Y000000D01*
X-020499Y000500D02*
X020499Y000000D01*
X-020251Y-013248D02*
X000000Y013499D01*
X000500Y-013499D02*
X000000Y013499D01*
X000500Y-013499D02*
X000000Y013499D01*
X000500Y-013499D02*
X000000Y013499D01*
X000500Y-013499D02*
X000000Y013499D01*
X000500Y-013499D02*
X000000Y013499D01*
X000500Y-013499D02*
X000000Y013499D01*
X000500Y-013499D02*
X000000Y013499D01*
X000500Y-013499D02*
X000000Y013499D01*
X000500Y-013499D02*
X000000Y013499D01*
X000500Y-013500D02*
X000000Y013500D01*
X000500Y-013500D02*
X000000Y013499D01*
X000500Y-013499D02*
X000000Y013499D01*
X000500Y-013499D02*
X000000Y013499D01*
X000500Y-013499D02*
X000000Y013499D01*
X000500Y-013499D02*
X000000Y013499D01*
X000500Y-013499D02*
X000000Y013499D01*
X000500Y-013499D02*
X000000Y013499D01*
X000500Y-013499D02*
X000000Y013499D01*
X000500Y-013499D02*
X000000Y013499D01*
X000500Y-013499D02*
X000000Y013499D01*
X000500Y-013499D02*
X000000Y013499D01*
X000500Y-013500D02*
X000000Y013500D01*
X000500Y-013500D02*
X000000Y013499D01*
X000500Y-013499D02*
X000000Y013499D01*
X000500Y-013499D02*
X000000Y013499D01*
X000500Y-013499D02*
X000000Y013499D01*
X000500Y-013499D02*
X000000Y013499D01*
X000500Y-013499D02*
X000000Y013499D01*
X000500Y-013499D02*
X000000Y013499D01*
X000500Y-013499D02*
X000000Y013499D01*
X000500Y-013499D02*
X000000Y013499D01*
X000500Y-013499D02*
X000000Y013499D01*
X000500Y-013500D02*
X000000Y013500D01*
X000500Y-013500D02*
X000000Y013499D01*
X000500Y-013499D02*
X000000Y013499D01*
X000500Y-013499D02*
X000000Y013499D01*
X000500Y-013499D02*
X000000Y013499D01*
X000500Y-013499D02*
X000000Y013499D01*
X000500Y-013499D02*
X000000Y013499D01*
X000500Y-013499D02*
X000000Y013499D01*
G54D63*
X-065999Y-417298D02*
X-008801Y-000000D01*
X-000000Y015100*
X008800Y000000*
X000000Y-015100*
X-008800Y000330D02*
X008800Y000000D01*
X-008800Y002200D02*
X008800Y000000D01*
X-008800Y002200D02*
X008800Y-000000D01*
X-008800Y002199D02*
X008800Y000000D01*
X-008800Y002200D02*
X008800Y000000D01*
X-008800Y002199D02*
X008800Y000000D01*
X-008800Y002200D02*
X008800Y000000D01*
X-008462Y-013528D02*
X-000000Y015100D01*
X002199Y-015100D02*
X000000Y015100D01*
X002200Y-015100D02*
X000000Y015100D01*
X002199Y-015100D02*
X000000Y015100D01*
X-028335Y-015100D02*
X-008801Y-000000D01*
X-000000Y015100*
X008800Y000000*
X000000Y-015100*
X-008800Y000330D02*
X008800Y000000D01*
X-008800Y002200D02*
X008800Y000000D01*
X-008800Y002200D02*
X008800Y-000000D01*
X-008800Y002199D02*
X008800Y000000D01*
X-008800Y002200D02*
X008800Y000000D01*
X-008800Y002199D02*
X008800Y000000D01*
X-008800Y002200D02*
X008800Y000000D01*
X-006857Y-013528D02*
X-000000Y015100D01*
X002199Y-015100D02*
X000000Y015100D01*
X002199Y-015100D02*
X000000Y015100D01*
X002200Y-015100D02*
X000000Y015100D01*
X030459Y054900D02*
X-008800Y-000000D01*
X-000000Y015100*
X008800Y000000*
X000000Y-015100*
X-008800Y000719D02*
X008800Y000000D01*
X-008800Y002199D02*
X008800Y000000D01*
X-008800Y002200D02*
X008800Y000000D01*
X-008800Y002200D02*
X008800Y000000D01*
X-008800Y002199D02*
X008800Y000000D01*
X-008800Y002200D02*
X008800Y000000D01*
X-008800Y002200D02*
X008800Y000000D01*
X-008462Y-013917D02*
X-000000Y015100D01*
X002199Y-015100D02*
X000000Y015100D01*
X002200Y-015100D02*
X000000Y015100D01*
X002199Y-015100D02*
X000000Y015100D01*
X-028335Y-015100D02*
X-008801Y-000000D01*
X-000000Y015100*
X008800Y000000*
X000000Y-015100*
X-008800Y000719D02*
X008800Y000000D01*
X-008800Y002199D02*
X008800Y000000D01*
X-008800Y002200D02*
X008800Y000000D01*
X-008800Y002200D02*
X008800Y000000D01*
X-008800Y002199D02*
X008800Y000000D01*
X-008800Y002200D02*
X008800Y000000D01*
X-008800Y002200D02*
X008800Y000000D01*
X-006857Y-013917D02*
X-000000Y015100D01*
X002199Y-015100D02*
X000000Y015100D01*
X002199Y-015100D02*
X000000Y015100D01*
X002200Y-015100D02*
X000000Y015100D01*
X030459Y100900D02*
X-008800Y-000000D01*
X-000000Y015100*
X008800Y000000*
X000000Y-015100*
X-008800Y001300D02*
X008800Y000000D01*
X-008800Y002199D02*
X008800Y000000D01*
X-008800Y002200D02*
X008800Y000000D01*
X-008800Y002200D02*
X008800Y000000D01*
X-008800Y002199D02*
X008800Y000000D01*
X-008800Y002200D02*
X008800Y000000D01*
X-008800Y002200D02*
X008800Y-000000D01*
X-008462Y-014498D02*
X-000000Y015100D01*
X002199Y-015100D02*
X000000Y015100D01*
X002200Y-015100D02*
X000000Y015100D01*
X002199Y-015100D02*
X000000Y015100D01*
X-028335Y-015100D02*
X-008801Y-000000D01*
X-000000Y015100*
X008800Y000000*
X000000Y-015100*
X-008800Y001300D02*
X008800Y000000D01*
X-008800Y002199D02*
X008800Y000000D01*
X-008800Y002200D02*
X008800Y000000D01*
X-008800Y002200D02*
X008800Y000000D01*
X-008800Y002199D02*
X008800Y000000D01*
X-008800Y002200D02*
X008800Y000000D01*
X-008800Y002200D02*
X008800Y-000000D01*
X-006857Y-014498D02*
X-000000Y015100D01*
X002199Y-015100D02*
X000000Y015100D01*
X002199Y-015100D02*
X000000Y015100D01*
X002200Y-015100D02*
X000000Y015100D01*
X030459Y054900D02*
X-008800Y-000000D01*
X-000000Y015100*
X008800Y000000*
X000000Y-015100*
X-008800Y001688D02*
X008800Y000000D01*
X-008800Y002200D02*
X008800Y000000D01*
X-008800Y002199D02*
X008800Y000000D01*
X-008800Y002200D02*
X008800Y000000D01*
X-008800Y002200D02*
X008800Y000000D01*
X-008800Y002199D02*
X008800Y000000D01*
X-008800Y002200D02*
X008800Y000000D01*
X-008462Y-014886D02*
X-000000Y015100D01*
X002199Y-015100D02*
X000000Y015100D01*
X002200Y-015100D02*
X000000Y015100D01*
X002199Y-015100D02*
X000000Y015100D01*
X-028335Y-015100D02*
X-008801Y-000000D01*
X-000000Y015100*
X008800Y000000*
X000000Y-015100*
X-008800Y001688D02*
X008800Y000000D01*
X-008800Y002200D02*
X008800Y000000D01*
X-008800Y002199D02*
X008800Y000000D01*
X-008800Y002200D02*
X008800Y000000D01*
X-008800Y002200D02*
X008800Y000000D01*
X-008800Y002199D02*
X008800Y000000D01*
X-008800Y002200D02*
X008800Y000000D01*
X-006857Y-014886D02*
X-000000Y015100D01*
X002199Y-015100D02*
X000000Y015100D01*
X002199Y-015100D02*
X000000Y015100D01*
X002200Y-015100D02*
X000000Y015100D01*
X030459Y054900D02*
X-008800Y-000000D01*
X-000000Y015100*
X008800Y000000*
X000000Y-015100*
X-008800Y002077D02*
X008800Y000000D01*
X-008800Y002199D02*
X008800Y000000D01*
X-008800Y002200D02*
X008800Y000000D01*
X-008800Y002200D02*
X008800Y-000000D01*
X-008800Y002199D02*
X008800Y000000D01*
X-008800Y002200D02*
X008800Y000000D01*
X-008462Y-013075D02*
X-000000Y015100D01*
X002199Y-015100D02*
X000000Y015100D01*
X002200Y-015100D02*
X000000Y015100D01*
X002199Y-015100D02*
X000000Y015100D01*
X-028335Y-015100D02*
X-008801Y-000000D01*
X-000000Y015100*
X008800Y000000*
X000000Y-015100*
X-008800Y002077D02*
X008800Y000000D01*
X-008800Y002199D02*
X008800Y000000D01*
X-008800Y002200D02*
X008800Y000000D01*
X-008800Y002200D02*
X008800Y-000000D01*
X-008800Y002199D02*
X008800Y000000D01*
X-008800Y002200D02*
X008800Y000000D01*
X-006857Y-013075D02*
X-000000Y015100D01*
X002199Y-015100D02*
X000000Y015100D01*
X002199Y-015100D02*
X000000Y015100D01*
X002200Y-015100D02*
X000000Y015100D01*
G74*
X-358668Y-459679D02*
M02*
