*
*
G04 PADS VX.2.6 Build Number: 14487894 generated Gerber (RS-274-X) file*
G04 PC Version=2.1*
*
%IN "Swallow.pcb"*%
*
%MOMM*%
*
%FSDIX24Y24*%
*
*
*
*
G04 PC Standard Apertures*
*
*
G04 Thermal Relief Aperture macro.*
%AMTER*
1,1,$1,0,0*
1,0,$1-$2,0,0*
21,0,$3,$4,0,0,45*
21,0,$3,$4,0,0,135*
%
*
*
G04 Annular Aperture macro.*
%AMANN*
1,1,$1,0,0*
1,0,$2,0,0*
%
*
*
G04 Odd Aperture macro.*
%AMODD*
1,1,$1,0,0*
1,0,$1-0.005,0,0*
%
*
*
G04 PC Custom Aperture Macros*
*
*
*
*
*
*
G04 PC Aperture Table*
*
%ADD010C,0.0254*%
%ADD026C,0.127*%
%ADD065C,0.25*%
*
*
*
*
G04 PC Circuitry*
G04 Layer Name Swallow.pcb - circuitry*
%LPD*%
*
*
G04 PC Custom Flashes*
G04 Layer Name Swallow.pcb - flashes*
%LPD*%
*
*
G04 PC Circuitry*
G04 Layer Name Swallow.pcb - circuitry*
%LPD*%
*
G54D10*
G01X000127Y030124D02*
G75*
G03X029995Y-029994I033321J003326D01*
G01X000005Y-000000D02*
X505000Y-000000D01*
X-000005Y-000000D02*
G03X030004Y030004I000362J029642D01*
G01X000001Y-000004D02*
X000000Y589999D01*
X000000Y-000001D02*
G03X-030001Y030001I-030863J-000862D01*
G01X000001Y000000D02*
X-160000Y000000D01*
X-000001Y000000D02*
G03X-009998Y-009998I001108J-011107D01*
G01X-000001Y-000001D02*
X000000Y-030000D01*
X-009997Y-010001D02*
G03X009997Y009998I000497J009500D01*
G01X-010000Y-009997D02*
X-150000Y-000000D01*
X-010000Y009987D02*
G03X010005Y-009987I009750J-000237D01*
G01X-010005Y009999D02*
X000000Y030000D01*
X-000000Y-000005D02*
G03X-009988Y010005I-009750J000255D01*
G01X-000012Y000000D02*
X-155000Y000000D01*
X-000016Y-000000D02*
G03X-029986Y-030038I001657J-031641D01*
G01X000002Y000038D02*
X000000Y-589999D01*
X050033Y004999D02*
G03X000000Y000000I-015033J0D01*
G01X490000Y000000D02*
G03X000000Y000000I-015033J0D01*
G01X-490024Y580000D02*
G03X000000Y000000I-015009J0D01*
G01X490065Y000000D02*
G03X000000Y000000I-015074J0D01*
G54D26*
G01X007626Y-036299D02*
X-050000Y-000000D01*
X000000Y-508000D02*
X050000Y-000000D01*
X-050000Y-000000D02*
X000000Y507999D01*
X050000Y-507999D02*
X-000000Y507999D01*
G54D65*
X-060700Y-011881D02*
X-010000Y-000000D01*
X000000Y-000000D02*
X-001875Y-000455D01*
X-000625Y-000454*
X000000Y-000000D02*
X-000625Y-000909D01*
X000000Y-000000D02*
X000000Y-000909D01*
X000000Y-000000D02*
X000625Y-000910D01*
X000625Y-000454*
X000000Y-000000D02*
X001875Y-000455D01*
X001250Y-000000*
X006250Y008636D02*
X000625Y000909D01*
X001875Y001364*
X-013125Y-000000*
G74*
X-474002Y-573311D02*
M02*
