*
*
G04 PADS VX.2.6 Build Number: 14487894 generated Gerber (RS-274-X) file*
G04 PC Version=2.1*
*
%IN "Swallow.pcb"*%
*
%MOMM*%
*
%FSDIX24Y24*%
*
*
*
*
G04 PC Standard Apertures*
*
*
G04 Thermal Relief Aperture macro.*
%AMTER*
1,1,$1,0,0*
1,0,$1-$2,0,0*
21,0,$3,$4,0,0,45*
21,0,$3,$4,0,0,135*
%
*
*
G04 Annular Aperture macro.*
%AMANN*
1,1,$1,0,0*
1,0,$2,0,0*
%
*
*
G04 Odd Aperture macro.*
%AMODD*
1,1,$1,0,0*
1,0,$1-0.005,0,0*
%
*
*
G04 PC Custom Aperture Macros*
*
*
*
*
*
*
G04 PC Aperture Table*
*
%ADD010C,0.0254*%
%ADD011C,0.254*%
%ADD026C,0.127*%
%ADD051C,0.2*%
%ADD052C,0.26*%
%ADD064C,0.4*%
%ADD065C,0.25*%
*
*
*
*
G04 PC Circuitry*
G04 Layer Name Swallow.pcb - circuitry*
%LPD*%
*
*
G04 PC Custom Flashes*
G04 Layer Name Swallow.pcb - flashes*
%LPD*%
*
*
G04 PC Circuitry*
G04 Layer Name Swallow.pcb - circuitry*
%LPD*%
*
G54D10*
G01X000127Y030124D02*
G75*
G03X029995Y-029994I033321J003326D01*
G01X000005Y-000000D02*
X505000Y-000000D01*
X-000005Y-000000D02*
G03X030004Y030004I000362J029642D01*
G01X000001Y-000004D02*
X000000Y589999D01*
X000000Y-000001D02*
G03X-030001Y030001I-030863J-000862D01*
G01X000001Y000000D02*
X-160000Y000000D01*
X-000001Y000000D02*
G03X-009998Y-009998I001108J-011107D01*
G01X-000001Y-000001D02*
X000000Y-030000D01*
X-009997Y-010001D02*
G03X009997Y009998I000497J009500D01*
G01X-010000Y-009997D02*
X-150000Y-000000D01*
X-010000Y009987D02*
G03X010005Y-009987I009750J-000237D01*
G01X-010005Y009999D02*
X000000Y030000D01*
X-000000Y-000005D02*
G03X-009988Y010005I-009750J000255D01*
G01X-000012Y000000D02*
X-155000Y000000D01*
X-000016Y-000000D02*
G03X-029986Y-030038I001657J-031641D01*
G01X000002Y000038D02*
X000000Y-589999D01*
X050033Y004999D02*
G03X000000Y000000I-015033J0D01*
G01X490000Y000000D02*
G03X000000Y000000I-015033J0D01*
G01X-490024Y580000D02*
G03X000000Y000000I-015009J0D01*
G01X490065Y000000D02*
G03X000000Y000000I-015074J0D01*
G54D11*
G01X-196492Y-545712D02*
X-001154Y001587D01*
X-000000Y000000D02*
X-001732Y000793D01*
X-000000Y000000D02*
X-002309Y000000D01*
X-000000Y000000D02*
X-001732Y-000792D01*
X-000000Y-000000D02*
X-001155Y-001588D01*
X000000Y-001587*
X000000Y-000000D02*
X000577Y-001588D01*
X000577Y-000794*
X000000Y-000000D02*
X001155Y-000793D01*
X000000Y-000000D02*
X003463Y-001588D01*
X000000Y-000000D02*
X001155Y-000794D01*
X000577Y-000793*
X000000Y-000000D02*
X000577Y-001588D01*
X000000Y-000000D02*
X000000Y-002381D01*
X000000Y-000000D02*
X-001153Y-001588D01*
X-000000Y-000000D02*
X-001732Y-000793D01*
X-000000Y-000000D02*
X-002309Y-000000D01*
X-000000Y-000000D02*
X-001732Y000792D01*
X-000000Y000000D02*
X-001155Y001588D01*
X013277Y008731D02*
X002309Y-011111D01*
X002309Y011111D02*
X-002308Y-011111D01*
X002308Y011111D02*
X002309Y-011111D01*
X002309Y011111D02*
X-002308Y-011111D01*
X014431Y011111D02*
X000000Y-011111D01*
X000000Y008730D02*
X-001154Y001587D01*
X-000000Y000000D02*
X-001154Y000794D01*
X-000000Y000000D02*
X-001732Y000000D01*
X-000000Y000000D02*
X-001155Y-000793D01*
X-001154Y-001587*
X-000000Y-000000D02*
X-000577Y-002381D01*
X-000000Y-000000D02*
X-000000Y-001588D01*
X-000000Y-000000D02*
X000576Y-002381D01*
X000000Y-000000D02*
X001154Y-001588D01*
X000000Y-000000D02*
X001155Y-000793D01*
X000000Y-000000D02*
X001732Y-000000D01*
X000000Y-000000D02*
X001154Y000792D01*
X000000Y000000D02*
X001155Y001588D01*
X005195Y014287D02*
X000000Y-016667D01*
X005196Y016667D02*
X000000Y-016667D01*
X008082Y011111D02*
X-001154Y-000793D01*
X-001155Y-001587*
X000000Y-000000D02*
X-000577Y-002381D01*
X-000000Y-000000D02*
X-000000Y-001588D01*
X000577Y-002381*
X000000Y-000000D02*
X001154Y-001588D01*
X000000Y-000000D02*
X001155Y-000793D01*
X000000Y-000000D02*
X001731Y-000000D01*
X000000Y-000000D02*
X001155Y000792D01*
X000000Y000000D02*
X001155Y001588D01*
X000577Y002381*
X000000Y000000D02*
X000000Y001588D01*
X-000577Y002381*
X-001154Y001587*
X-000000Y000000D02*
X-001155Y000794D01*
X-000000Y000000D02*
X-001731Y000000D01*
X009812Y000000D02*
X002309Y-011111D01*
X002309Y011111D02*
X-002308Y-011111D01*
X002308Y011111D02*
X002310Y-011111D01*
X002309Y011111D02*
X-002309Y-011111D01*
X-266350Y016667D02*
X000000Y-016667D01*
X008081Y016667D02*
X-008081Y-011111D01*
X002886Y003968D02*
X005195Y-009524D01*
X005196Y016667D02*
X000577Y-000792D01*
X000000Y-000000D02*
X000577Y000792D01*
X000000Y000000D02*
X-000576Y000794D01*
X-000000Y000000D02*
X-000577Y-000793D01*
X000576Y-005556D02*
X000000Y-011112D01*
X007505Y016667D02*
X000000Y-013492D01*
X000000Y-000000D02*
X000577Y-002382D01*
X001154Y-000793*
X000000Y-000000D02*
X001155Y-000000D01*
X-004617Y011111D02*
X004040Y000000D01*
X012122Y000000D02*
X-006349Y-011111D01*
X-000000Y011111D02*
X006349Y000000D01*
X-006349Y-011111D02*
X006349Y-000000D01*
X005196Y006349D02*
X006927Y000000D01*
X000000Y000000D02*
X000000Y001587D01*
X000000Y000000D02*
X-000576Y001588D01*
X-000000Y000000D02*
X-000577Y000793D01*
X-000000Y000000D02*
X-001155Y000794D01*
X-000000Y000000D02*
X-001732Y000000D01*
X-000000Y000000D02*
X-001154Y-000793D01*
X-000000Y-000000D02*
X-001155Y-001587D01*
X-000000Y-000000D02*
X-000577Y-002381D01*
X-000000Y-000000D02*
X-000000Y-001588D01*
X-000000Y-000000D02*
X000576Y-002381D01*
X000000Y-000000D02*
X001155Y-001588D01*
X001154Y-000793*
X000000Y-000000D02*
X001732Y-000000D01*
X000000Y-000000D02*
X001155Y000792D01*
X000000Y000000D02*
X001154Y001588D01*
X011546Y006350D02*
X-000577Y001587D01*
X-000000Y000000D02*
X-001732Y000794D01*
X000000Y000000D02*
X-001731Y000000D01*
X-000000Y000000D02*
X-001732Y-000793D01*
X-000000Y-000000D02*
X-000577Y-001587D01*
X-000000Y-000000D02*
X000576Y-001588D01*
X001154Y-000793*
X000000Y-000000D02*
X002887Y-000794D01*
X000000Y-000000D02*
X001154Y-000794D01*
X000000Y-000000D02*
X000578Y-001587D01*
X000000Y-000000D02*
X000000Y-000794D01*
X000000Y-000000D02*
X-000577Y-001588D01*
X-001732Y-000793*
X000000Y-000000D02*
X-001731Y-000000D01*
X-000000Y-000000D02*
X-001732Y000792D01*
X-000000Y000000D02*
X-000577Y001588D01*
X024821Y014287D02*
X000000Y-016667D01*
X000000Y-000000D02*
X006928Y-000000D01*
X012122Y011111D02*
X000000Y-011111D01*
X000000Y008730D02*
X-001153Y001587D01*
X-000000Y000000D02*
X-001155Y000794D01*
X-000000Y000000D02*
X-001732Y000000D01*
X-000000Y000000D02*
X-001154Y-000793D01*
X-000000Y-000000D02*
X-001155Y-001587D01*
X-000000Y-000000D02*
X-000577Y-002381D01*
X-000000Y-000000D02*
X-000000Y-001588D01*
X000576Y-002381*
X000000Y-000000D02*
X001155Y-001588D01*
X001154Y-000793*
X000000Y-000000D02*
X001732Y-000000D01*
X000000Y-000000D02*
X001155Y000792D01*
X000000Y000000D02*
X001154Y001588D01*
X005196Y014287D02*
X000000Y-016667D01*
X000000Y008730D02*
X001154Y001587D01*
X000000Y000000D02*
X001155Y000794D01*
X000000Y000000D02*
X001732Y000000D01*
X000000Y000000D02*
X001154Y-000793D01*
X000000Y-000000D02*
X001155Y-001587D01*
X000000Y-000000D02*
X000577Y-002381D01*
X000000Y-000000D02*
X000000Y-001588D01*
X000000Y-000000D02*
X-000576Y-002381D01*
X-000000Y-000000D02*
X-001155Y-001588D01*
X-001154Y-000793*
X-000000Y-000000D02*
X-001732Y-000000D01*
X-000000Y-000000D02*
X-001155Y000792D01*
X-000000Y000000D02*
X-001154Y001588D01*
X-030766Y-028068D02*
X-000000Y-013125D01*
X-000000Y013124D02*
X004090Y000000D01*
X000000Y000000D02*
X001364Y-000624D01*
X000454Y-000625*
X000000Y-000000D02*
X000455Y-001250D01*
X000000Y-001875*
X-000454Y-001250*
X-000454Y-000625*
X-000000Y-000000D02*
X-001364Y-000625D01*
X-004091Y-000000*
X010454Y006874D02*
X000000Y-013124D01*
X000000Y013124D02*
X006364Y-013124D01*
X000000Y013124D02*
X000000Y-013124D01*
X114545Y011249D02*
X-000908Y001250D01*
X-000000Y000000D02*
X-001364Y000625D01*
X-000000Y000000D02*
X-001818Y000000D01*
X-000000Y000000D02*
X-001364Y-000624D01*
X-000909Y-001250*
X-000000Y-001250*
X000454Y-001250*
X000454Y-000625*
X000000Y-000000D02*
X000910Y-000625D01*
X002727Y-001250*
X000909Y-000625*
X000454Y-000625*
X000000Y-000000D02*
X000455Y-001250D01*
X000000Y-001875*
X-000908Y-001250*
X-000000Y-000000D02*
X-001364Y-000625D01*
X-001818Y-000000*
X-001364Y000624*
X-000000Y000000D02*
X-000909Y001250D01*
X010454Y011250D02*
X000000Y-013124D01*
X000000Y013124D02*
X006364Y-013124D01*
X000000Y013124D02*
X000000Y-013124D01*
X-265727Y013124D02*
X-000000Y-013124D01*
X-000000Y013124D02*
X004090Y000000D01*
X000000Y000000D02*
X001364Y-000624D01*
X000454Y-000625*
X000000Y-000000D02*
X000455Y-001250D01*
X000000Y-001875*
X-000454Y-001250*
X-000454Y-000625*
X-000000Y-000000D02*
X-001364Y-000625D01*
X-004091Y-000000*
X010454Y006874D02*
X000454Y-000624D01*
X000000Y-000000D02*
X000455Y000624D01*
X000000Y000000D02*
X-000454Y000625D01*
X-000000Y000000D02*
X-000454Y-000624D01*
X000453Y-004375D02*
X000000Y-008750D01*
X005909Y013124D02*
X000000Y-010624D01*
X000000Y-000000D02*
X000455Y-001875D01*
X000909Y-000625*
X000000Y-000000D02*
X000909Y-000000D01*
X-003635Y008749D02*
X003181Y000000D01*
X005909Y004375D02*
X000000Y-010624D01*
X000454Y-001875*
X000000Y-000000D02*
X000909Y-000625D01*
X000000Y-000000D02*
X000909Y-000000D01*
X-003635Y008749D02*
X003181Y000000D01*
X015000Y004375D02*
X000000Y-013124D01*
X000000Y013124D02*
X005909Y000000D01*
X-005908Y-006249D02*
X003635Y-000000D01*
X-003635Y-006875D02*
X005908Y-000000D01*
X004091Y005624D02*
X008182Y000000D01*
X010454Y005625D02*
X-000908Y001250D01*
X-000000Y000000D02*
X-001364Y000625D01*
X000000Y000000D02*
X-001818Y000000D01*
X-000000Y000000D02*
X-001363Y-000624D01*
X-000000Y-000000D02*
X-000909Y-001250D01*
X-000000Y-000000D02*
X-000000Y-001250D01*
X-000000Y-000000D02*
X000453Y-001250D01*
X000000Y-000000D02*
X000455Y-000625D01*
X000909Y-000625*
X002727Y-001250*
X000000Y-000000D02*
X000909Y-000625D01*
X000000Y-000000D02*
X000455Y-000625D01*
X000454Y-001250*
X000000Y-000000D02*
X000000Y-001875D01*
X000000Y-000000D02*
X-000908Y-001250D01*
X-001364Y-000625*
X-001818Y-000000*
X-001363Y000624*
X-000000Y000000D02*
X-000909Y001250D01*
X010453Y011250D02*
X000000Y-013124D01*
X000000Y006249D02*
X001364Y001875D01*
X000000Y000000D02*
X000909Y000625D01*
X000000Y000000D02*
X001364Y000000D01*
X000000Y000000D02*
X000909Y-000624D01*
X000454Y-001875*
X000000Y-000000D02*
X000000Y-006250D01*
X006364Y008749D02*
X-000908Y-000624D01*
X-000000Y-000000D02*
X-000909Y-001250D01*
X-000000Y-000000D02*
X-000455Y-001875D01*
X-000000Y-001250*
X000454Y-001875*
X000909Y-001250*
X000909Y-000625*
X001363Y-000000*
X000000Y-000000D02*
X000910Y000624D01*
X000000Y000000D02*
X000909Y001250D01*
X000000Y000000D02*
X000454Y001875D01*
X000000Y000000D02*
X000000Y001250D01*
X000000Y000000D02*
X-000453Y001875D01*
X-000000Y000000D02*
X-000910Y001250D01*
X000000Y000000D02*
X-000909Y000625D01*
X-000000Y000000D02*
X-001363Y000000D01*
X007726Y000000D02*
X000000Y-013124D01*
X000000Y011249D02*
X000909Y001250D01*
X000000Y000000D02*
X000909Y000625D01*
X000000Y000000D02*
X001364Y000000D01*
X000000Y000000D02*
X000909Y-000624D01*
X000909Y-001250*
X000000Y-000000D02*
X000455Y-001875D01*
X000000Y-001250*
X-000454Y-001875*
X-000909Y-001250*
X-000000Y-000000D02*
X-000909Y-000625D01*
X-000000Y-000000D02*
X-001364Y-000000D01*
X-000909Y000624*
X-000000Y000000D02*
X-000909Y001250D01*
X291451Y006563D02*
X-003636Y-013124D01*
X003636Y013124D02*
X003636Y-013124D01*
X-005908Y004374D02*
X004545Y000000D01*
X-206133Y010937D02*
X000908Y000625D01*
X000000Y000000D02*
X001364Y001875D01*
X000000Y000000D02*
X000000Y-013124D01*
X010000Y013124D02*
X-004545Y000000D01*
X-000000Y000000D02*
X-000454Y-005624D01*
X-000000Y-000000D02*
X000453Y000624D01*
X000000Y000000D02*
X001364Y000625D01*
X000000Y000000D02*
X001364Y000000D01*
X000000Y000000D02*
X001363Y-000624D01*
X000000Y-000000D02*
X000909Y-001250D01*
X000000Y-000000D02*
X000455Y-001875D01*
X-000454Y-001250*
X-000454Y-001875*
X-000000Y-000000D02*
X-000909Y-001250D01*
X-000000Y-000000D02*
X-001364Y-000625D01*
X-000000Y-000000D02*
X-001364Y-000000D01*
X-001363Y000624*
X-000000Y000000D02*
X-000455Y000625D01*
X-000000Y000000D02*
X-000454Y001250D01*
X016817Y010625D02*
X-004545Y000000D01*
X-000000Y000000D02*
X-000454Y-005624D01*
X-000000Y-000000D02*
X000453Y000624D01*
X000000Y000000D02*
X001364Y000625D01*
X000000Y000000D02*
X001364Y000000D01*
X000000Y000000D02*
X001363Y-000624D01*
X000000Y-000000D02*
X000909Y-001250D01*
X000000Y-000000D02*
X000455Y-001875D01*
X-000454Y-001250*
X-000454Y-001875*
X-000000Y-000000D02*
X-000909Y-001250D01*
X-000000Y-000000D02*
X-001364Y-000625D01*
X-001364Y-000000*
X-001363Y000624*
X-000000Y000000D02*
X-000455Y000625D01*
X-000000Y000000D02*
X-000454Y001250D01*
X-007239Y437678D02*
X-001154Y001588D01*
X-000000Y000000D02*
X-001732Y000794D01*
X-002309Y000000*
X-001732Y-000793*
X-000000Y-000000D02*
X-001154Y-001588D01*
X-000000Y-000000D02*
X-000000Y-001587D01*
X-000000Y-000000D02*
X000576Y-001588D01*
X000577Y-000794*
X000000Y000000D02*
X001155Y-000793D01*
X000000Y-000000D02*
X003463Y-001588D01*
X000000Y-000000D02*
X001155Y-000794D01*
X000577Y-000793*
X000000Y-000000D02*
X000578Y-001588D01*
X000000Y-002381*
X-001154Y-001588*
X-000000Y000000D02*
X-001732Y-000793D01*
X-000000Y-000000D02*
X-002309Y-000000D01*
X-000000Y-000000D02*
X-001732Y000793D01*
X-001154Y001587*
X015008Y014288D02*
X000000Y-013493D01*
X000000Y-000000D02*
X000577Y-002382D01*
X000000Y000000D02*
X001155Y-000793D01*
X000000Y-000000D02*
X001154Y-000000D01*
X-004617Y011111D02*
X004040Y000000D01*
X012700Y000000D02*
X000000Y-011111D01*
X000000Y008730D02*
X-001154Y001588D01*
X-001154Y000793*
X-000000Y000000D02*
X-001732Y000000D01*
X-000000Y000000D02*
X-001155Y-000793D01*
X-001154Y-001587*
X-000000Y-000000D02*
X-000577Y-002381D01*
X-000000Y-000000D02*
X-000000Y-001588D01*
X-000000Y-000000D02*
X000576Y-002381D01*
X001154Y-001588*
X000000Y000000D02*
X001155Y-000793D01*
X000000Y-000000D02*
X001732Y-000000D01*
X000000Y-000000D02*
X001154Y000793D01*
X000000Y000000D02*
X001155Y001587D01*
X006927Y014288D02*
X000000Y-013493D01*
X000000Y-000000D02*
X000577Y-002382D01*
X000000Y000000D02*
X001155Y-000793D01*
X000000Y-000000D02*
X001155Y-000000D01*
X-004618Y011111D02*
X004040Y000000D01*
X005773Y000000D02*
X000000Y-007936D01*
X000000Y-000000D02*
X000577Y-002382D01*
X000000Y000000D02*
X001155Y-000793D01*
X000000Y-000000D02*
X001732Y-000000D01*
X000000Y-000000D02*
X001154Y000793D01*
X000000Y000000D02*
X001732Y002381D01*
X000000Y007937D02*
X000000Y-011111D01*
X011545Y008730D02*
X-000576Y001588D01*
X-001732Y000793*
X-000000Y000000D02*
X-001732Y000000D01*
X000000Y000000D02*
X-001731Y-000793D01*
X-000000Y000000D02*
X-000578Y-001587D01*
X000577Y-001588*
X001154Y-000793*
X000000Y-000000D02*
X002887Y-000794D01*
X001154Y-000794*
X000000Y-000000D02*
X000577Y-001587D01*
X000000Y-000000D02*
X000000Y-000794D01*
X000000Y-000000D02*
X-000576Y-001588D01*
X-001732Y-000793*
X-000000Y-000000D02*
X-001732Y-000000D01*
X000000Y-000000D02*
X-001731Y000793D01*
X-000000Y000000D02*
X-000578Y001587D01*
X-081395Y-055712D02*
X-000000Y-016668D01*
X-000000Y016668D02*
X005194Y000000D01*
X000000Y000000D02*
X001732Y-000793D01*
X000000Y-000000D02*
X000578Y-000794D01*
X000577Y-001588*
X000000Y-002381*
X-000577Y-001587*
X000000Y-000000D02*
X-000577Y-000794D01*
X-001732Y-000794*
X-005195Y-000000*
X013276Y003174D02*
X000000Y-011111D01*
X000000Y006349D02*
X000578Y002381D01*
X000000Y000000D02*
X001154Y001588D01*
X000000Y000000D02*
X001155Y000793D01*
X000000Y000000D02*
X001731Y000000D01*
X008082Y000000D02*
X-001153Y-000793D01*
X-000000Y000000D02*
X-001155Y-001587D01*
X-000577Y-002381*
X-000000Y-000000D02*
X-000000Y-001588D01*
X-000000Y-000000D02*
X000576Y-002381D01*
X000000Y-000000D02*
X001155Y-001588D01*
X001154Y-000793*
X000000Y-000000D02*
X001732Y-000000D01*
X000000Y-000000D02*
X001155Y000793D01*
X001154Y001587*
X000000Y000000D02*
X000577Y002381D01*
X000000Y000000D02*
X000000Y001588D01*
X000000Y000000D02*
X-000576Y002381D01*
X-000000Y000000D02*
X-001154Y001588D01*
X-000000Y000000D02*
X-001155Y000793D01*
X-000000Y000000D02*
X-001732Y000000D01*
X016740Y000000D02*
X000000Y-012699D01*
X000000Y-000000D02*
X-000576Y-002381D01*
X-000000Y-000000D02*
X-000577Y-000794D01*
X-000000Y-000000D02*
X-001155Y-000794D01*
X-001732Y000000*
X-001154Y000793*
X005194Y013494D02*
X-001153Y001588D01*
X-000000Y000000D02*
X-001155Y000793D01*
X-000000Y000000D02*
X-001732Y000000D01*
X-000000Y000000D02*
X-001154Y-000793D01*
X-000000Y000000D02*
X-001155Y-001587D01*
X-000577Y-002381*
X-000000Y-000000D02*
X-000000Y-001588D01*
X-000000Y-000000D02*
X000576Y-002381D01*
X000000Y-000000D02*
X001155Y-001588D01*
X001154Y-000793*
X000000Y-000000D02*
X001732Y-000000D01*
X000000Y-000000D02*
X001155Y000793D01*
X001154Y001587*
X005196Y008731D02*
X000000Y-011111D01*
X000000Y006349D02*
X000577Y002381D01*
X000000Y000000D02*
X001154Y001588D01*
X000000Y000000D02*
X001155Y000793D01*
X000000Y000000D02*
X001732Y000000D01*
X005195Y-004761D02*
X006928Y-000000D01*
X000000Y-000000D02*
X000000Y001586D01*
X000000Y000000D02*
X-000577Y001588D01*
X-000577Y000794*
X-000000Y000000D02*
X-001155Y000793D01*
X-000000Y000000D02*
X-001731Y000000D01*
X-000000Y000000D02*
X-001155Y-000793D01*
X-001155Y-001587*
X-000577Y-002381*
X-000000Y-000000D02*
X-000000Y-001588D01*
X000577Y-002381*
X001154Y-001588*
X000000Y000000D02*
X001155Y-000793D01*
X000000Y-000000D02*
X001731Y-000000D01*
X000000Y-000000D02*
X001155Y000793D01*
X001155Y001587*
X011545Y006350D02*
X-000576Y001588D01*
X-000000Y000000D02*
X-001732Y000793D01*
X-000000Y000000D02*
X-001732Y000000D01*
X-000000Y000000D02*
X-001732Y-000793D01*
X-000577Y-001587*
X-000000Y-000000D02*
X000576Y-001588D01*
X000000Y000000D02*
X001155Y-000793D01*
X000000Y-000000D02*
X002886Y-000794D01*
X000000Y-000000D02*
X001155Y-000794D01*
X000577Y-001587*
X000000Y-000000D02*
X000000Y-000794D01*
X-000576Y-001588*
X-000000Y000000D02*
X-001732Y-000793D01*
X-000000Y-000000D02*
X-001732Y-000000D01*
X-000000Y-000000D02*
X-001732Y000793D01*
X-000577Y001587*
X017894Y006350D02*
X-000576Y001588D01*
X-001732Y000793*
X-000000Y000000D02*
X-001732Y000000D01*
X000000Y000000D02*
X-001731Y-000793D01*
X-000000Y000000D02*
X-000578Y-001587D01*
X000577Y-001588*
X001154Y-000793*
X000000Y-000000D02*
X002887Y-000794D01*
X001154Y-000794*
X000000Y-000000D02*
X000577Y-001587D01*
X000000Y-000000D02*
X000000Y-000794D01*
X000000Y-000000D02*
X-000576Y-001588D01*
X-001732Y-000793*
X-000000Y-000000D02*
X-001732Y-000000D01*
X000000Y-000000D02*
X-001731Y000793D01*
X-000000Y000000D02*
X-000578Y001587D01*
X-043295Y-055712D02*
X-000000Y-016668D01*
X-000000Y016668D02*
X007504Y000000D01*
X-007504Y-007937D02*
X004617Y-000000D01*
X-004617Y-008731D02*
X007504Y-000000D01*
X005195Y011111D02*
X000000Y-011111D01*
X000000Y006349D02*
X000577Y002381D01*
X000000Y000000D02*
X001155Y001588D01*
X001154Y000793*
X000000Y000000D02*
X001732Y000000D01*
X005196Y000000D02*
X000000Y-011111D01*
X000000Y006349D02*
X000577Y002381D01*
X000000Y000000D02*
X001154Y001588D01*
X000000Y000000D02*
X001155Y000793D01*
X000000Y000000D02*
X001732Y000000D01*
X008082Y000000D02*
X-001154Y-000793D01*
X-001155Y-001587*
X-000577Y-002381*
X-000000Y-000000D02*
X-000000Y-001588D01*
X000577Y-002381*
X001154Y-001588*
X000000Y000000D02*
X001155Y-000793D01*
X000000Y-000000D02*
X001731Y-000000D01*
X000000Y-000000D02*
X001155Y000793D01*
X001155Y001587*
X000000Y000000D02*
X000577Y002381D01*
X000000Y000000D02*
X000000Y001588D01*
X-000577Y002381*
X000000Y000000D02*
X-001154Y001588D01*
X-000000Y000000D02*
X-001155Y000793D01*
X-000000Y000000D02*
X-001731Y000000D01*
X009812Y000000D02*
X000000Y-011111D01*
X000000Y006349D02*
X000578Y002381D01*
X000000Y000000D02*
X001154Y001588D01*
X000000Y000000D02*
X001155Y000793D01*
X000000Y000000D02*
X001731Y000000D01*
X-052568Y-108902D02*
X-001154Y001587D01*
X-000000Y000000D02*
X-001732Y000793D01*
X-000000Y000000D02*
X-002309Y000000D01*
X-000000Y000000D02*
X-001732Y-000792D01*
X-000000Y-000000D02*
X-001155Y-001588D01*
X000000Y-001587*
X000000Y-000000D02*
X000577Y-001588D01*
X000577Y-000794*
X000000Y-000000D02*
X001155Y-000793D01*
X000000Y-000000D02*
X003463Y-001588D01*
X000000Y-000000D02*
X001155Y-000794D01*
X000577Y-000793*
X000000Y-000000D02*
X000577Y-001588D01*
X000000Y-000000D02*
X000000Y-002381D01*
X000000Y-000000D02*
X-001153Y-001588D01*
X-000000Y-000000D02*
X-001732Y-000793D01*
X-000000Y-000000D02*
X-002309Y-000000D01*
X-000000Y-000000D02*
X-001732Y000792D01*
X-000000Y000000D02*
X-001155Y001588D01*
X016163Y008731D02*
X-001153Y-000793D01*
X-000000Y-000000D02*
X-001155Y-001587D01*
X-000000Y-000000D02*
X-000577Y-002381D01*
X-000000Y-000000D02*
X-000000Y-001588D01*
X-000000Y-000000D02*
X000576Y-002381D01*
X000000Y-000000D02*
X001155Y-001588D01*
X001154Y-000793*
X000000Y-000000D02*
X001732Y-000000D01*
X000000Y-000000D02*
X001155Y000792D01*
X000000Y000000D02*
X001154Y001588D01*
X000000Y000000D02*
X000577Y002381D01*
X000000Y000000D02*
X000000Y001588D01*
X000000Y000000D02*
X-000576Y002381D01*
X-001155Y001587*
X000000Y000000D02*
X-001154Y000794D01*
X-000000Y000000D02*
X-001732Y000000D01*
X009813Y000000D02*
X000000Y-007936D01*
X000000Y-000000D02*
X000577Y-002382D01*
X000000Y-000000D02*
X001155Y-000793D01*
X000000Y-000000D02*
X001731Y-000000D01*
X000000Y-000000D02*
X001155Y000792D01*
X000000Y000000D02*
X001732Y002382D01*
X000000Y007937D02*
X000000Y-011111D01*
X005195Y011111D02*
X000000Y-011111D01*
X000000Y006349D02*
X000578Y002381D01*
X001154Y001587*
X000000Y000000D02*
X001155Y000794D01*
X000000Y000000D02*
X001731Y000000D01*
X012123Y-002380D02*
X-001153Y001586D01*
X-000000Y000000D02*
X-001155Y000794D01*
X-000000Y000000D02*
X-001732Y000000D01*
X-000000Y000000D02*
X-001154Y-000793D01*
X-000000Y-000000D02*
X-001155Y-001587D01*
X-000000Y-000000D02*
X-000577Y-002381D01*
X-000000Y-000000D02*
X-000000Y-001588D01*
X-000000Y-000000D02*
X000576Y-002381D01*
X000000Y-000000D02*
X001155Y-001588D01*
X001154Y-000793*
X000000Y-000000D02*
X001732Y-000000D01*
X000000Y-000000D02*
X001155Y000792D01*
X000000Y000000D02*
X001154Y001588D01*
X005196Y003969D02*
X006927Y000000D01*
X000000Y001587*
X000000Y000000D02*
X-000576Y001588D01*
X-000000Y000000D02*
X-000578Y000793D01*
X-000000Y000000D02*
X-001154Y000794D01*
X-000000Y000000D02*
X-001732Y000000D01*
X-000000Y000000D02*
X-001155Y-000793D01*
X-001154Y-001587*
X-000000Y-000000D02*
X-000577Y-002381D01*
X-000000Y-000000D02*
X-000000Y-001588D01*
X-000000Y-000000D02*
X000576Y-002381D01*
X000000Y-000000D02*
X001154Y-001588D01*
X000000Y-000000D02*
X001155Y-000793D01*
X000000Y-000000D02*
X001732Y-000000D01*
X000000Y-000000D02*
X001154Y000792D01*
X000000Y000000D02*
X001155Y001588D01*
X-114386Y-057712D02*
X000000Y-016668D01*
X000000Y016667D02*
X004040Y000000D01*
X000000Y000000D02*
X001732Y-000792D01*
X000000Y-000000D02*
X001155Y-001588D01*
X000577Y-001587*
X000000Y-000000D02*
X000577Y-002382D01*
X000000Y-000000D02*
X000000Y-003968D01*
X000000Y-000000D02*
X-000576Y-002382D01*
X-000577Y-001587*
X-000000Y-000000D02*
X-001155Y-001588D01*
X-001732Y-000793*
X-000000Y-000000D02*
X-004041Y-000000D01*
X013277Y006349D02*
X006927Y000000D01*
X000000Y000000D02*
X000000Y001587D01*
X000000Y000000D02*
X-000576Y001588D01*
X-000000Y000000D02*
X-000578Y000793D01*
X000000Y000000D02*
X-001154Y000794D01*
X-000000Y000000D02*
X-001732Y000000D01*
X-000000Y000000D02*
X-001154Y-000793D01*
X-000000Y-000000D02*
X-001155Y-001587D01*
X-000000Y-000000D02*
X-000577Y-002381D01*
X-000000Y-000000D02*
X-000000Y-001588D01*
X-000000Y-000000D02*
X000576Y-002381D01*
X000000Y-000000D02*
X001155Y-001588D01*
X001154Y-000793*
X000000Y-000000D02*
X001732Y-000000D01*
X000000Y-000000D02*
X001155Y000792D01*
X000000Y000000D02*
X001154Y001588D01*
X011546Y006350D02*
X-000577Y001587D01*
X-000000Y000000D02*
X-001732Y000794D01*
X-000000Y000000D02*
X-001731Y000000D01*
X-000000Y000000D02*
X-001732Y-000793D01*
X-000000Y-000000D02*
X-000578Y-001587D01*
X000000Y-000000D02*
X000577Y-001588D01*
X001154Y-000793*
X000000Y-000000D02*
X002887Y-000794D01*
X000000Y-000000D02*
X001154Y-000794D01*
X000000Y-000000D02*
X000578Y-001587D01*
X000000Y-000000D02*
X000000Y-000794D01*
X000000Y-000000D02*
X-000577Y-001588D01*
X-001732Y-000793*
X-000000Y-000000D02*
X-001731Y-000000D01*
X-000000Y-000000D02*
X-001732Y000792D01*
X-000000Y000000D02*
X-000578Y001588D01*
X013277Y014287D02*
X000000Y-013492D01*
X000000Y-000000D02*
X000577Y-002382D01*
X000000Y-000000D02*
X001155Y-000793D01*
X000000Y-000000D02*
X001154Y-000000D01*
X-004617Y011111D02*
X004040Y000000D01*
X005773Y005556D02*
X000577Y-000792D01*
X000000Y-000000D02*
X000577Y000792D01*
X000000Y000000D02*
X-000576Y000794D01*
X-000000Y000000D02*
X-000577Y-000793D01*
X000576Y-005556D02*
X000000Y-011112D01*
X005773Y011111D02*
X000000Y-011111D01*
X000000Y007936D02*
X001731Y002381D01*
X000000Y000000D02*
X001155Y000794D01*
X000000Y000000D02*
X001732Y000000D01*
X000000Y000000D02*
X001154Y-000793D01*
X000000Y-000000D02*
X000578Y-002381D01*
X000000Y-007937*
X012122Y011111D02*
X000000Y-011111D01*
X000000Y008730D02*
X-001153Y001587D01*
X-000000Y000000D02*
X-001155Y000794D01*
X-000000Y000000D02*
X-001732Y000000D01*
X-000000Y000000D02*
X-001154Y-000793D01*
X-000000Y-000000D02*
X-001155Y-001587D01*
X-000000Y-000000D02*
X-000577Y-002381D01*
X-000000Y-000000D02*
X-000000Y-001588D01*
X000576Y-002381*
X000000Y-000000D02*
X001155Y-001588D01*
X001154Y-000793*
X000000Y-000000D02*
X001732Y-000000D01*
X000000Y-000000D02*
X001155Y000792D01*
X000000Y000000D02*
X001154Y001588D01*
X006928Y014287D02*
X000000Y-013492D01*
X000000Y-000000D02*
X000577Y-002382D01*
X001154Y-000793*
X000000Y-000000D02*
X001155Y-000000D01*
X-004617Y011111D02*
X004040Y000000D01*
X005772Y005556D02*
X000578Y-000792D01*
X000000Y-000000D02*
X000577Y000792D01*
X000000Y000000D02*
X-000576Y000794D01*
X-000000Y000000D02*
X-000578Y-000793D01*
X000577Y-005556D02*
X000000Y-011112D01*
X008659Y011111D02*
X-001154Y-000793D01*
X-001154Y-001587*
X-000000Y-000000D02*
X-000578Y-002381D01*
X-000000Y-000000D02*
X-000000Y-001588D01*
X000577Y-002381*
X000000Y-000000D02*
X001154Y-001588D01*
X000000Y-000000D02*
X001155Y-000793D01*
X000000Y-000000D02*
X001732Y-000000D01*
X000000Y-000000D02*
X001154Y000792D01*
X000000Y000000D02*
X001155Y001588D01*
X000577Y002381*
X000000Y000000D02*
X000000Y001588D01*
X-000576Y002381*
X-000000Y000000D02*
X-001155Y001587D01*
X-000000Y000000D02*
X-001154Y000794D01*
X-000000Y000000D02*
X-001732Y000000D01*
X009812Y000000D02*
X000000Y-011111D01*
X000000Y007936D02*
X001732Y002381D01*
X000000Y000000D02*
X001155Y000794D01*
X000000Y000000D02*
X001732Y000000D01*
X000000Y000000D02*
X001154Y-000793D01*
X000000Y-000000D02*
X000577Y-002381D01*
X000000Y-000000D02*
X000000Y-007937D01*
X-238990Y338746D02*
X000000Y-016668D01*
X000000Y016668D02*
X005195Y000000D01*
X001732Y-000793*
X000000Y-000000D02*
X000577Y-000794D01*
X000000Y-000000D02*
X000577Y-001588D01*
X000000Y000000D02*
X000000Y-001587D01*
X000000Y-000000D02*
X-000576Y-001588D01*
X-000577Y-000793*
X-000000Y-000000D02*
X-001732Y-000794D01*
X-000000Y-000000D02*
X-005196Y-000000D01*
X004040Y-000000D02*
X004041Y-008731D01*
X005196Y011111D02*
X000000Y-007936D01*
X000000Y-000000D02*
X000577Y-002382D01*
X000000Y000000D02*
X001155Y-000793D01*
X000000Y-000000D02*
X001731Y-000000D01*
X000000Y-000000D02*
X001155Y000793D01*
X001732Y002381*
X000000Y007937D02*
X000000Y-011111D01*
X005195Y011111D02*
X000000Y-011111D01*
X000000Y007936D02*
X001732Y002382D01*
X000000Y000000D02*
X001155Y000793D01*
X000000Y000000D02*
X001731Y000000D01*
X000000Y000000D02*
X001155Y-000793D01*
X000577Y-002381*
X000000Y-000000D02*
X000000Y-007937D01*
X-023090Y-125713D02*
X-001154Y001587D01*
X-000000Y000000D02*
X-001732Y000794D01*
X-000000Y000000D02*
X-002309Y000000D01*
X-000000Y000000D02*
X-001732Y-000793D01*
X-000000Y-000000D02*
X-001155Y-001588D01*
X000000Y-001587*
X000000Y-000000D02*
X000577Y-001588D01*
X000577Y-000794*
X000000Y000000D02*
X001155Y-000793D01*
X000000Y-000000D02*
X003463Y-001588D01*
X000000Y-000000D02*
X001155Y-000794D01*
X000577Y-000793*
X000000Y-000000D02*
X000577Y-001588D01*
X000000Y-000000D02*
X000000Y-002381D01*
X000000Y-000000D02*
X-001153Y-001588D01*
X-000000Y000000D02*
X-001732Y-000793D01*
X-000000Y-000000D02*
X-002309Y-000000D01*
X-000000Y-000000D02*
X-001732Y000793D01*
X-001155Y001587*
X015009Y014288D02*
X000000Y-013493D01*
X000000Y-000000D02*
X000577Y-002382D01*
X001154Y-000793*
X000000Y-000000D02*
X001155Y-000000D01*
X-004617Y011111D02*
X004040Y000000D01*
X008659Y000000D02*
X-001154Y-000793D01*
X-001154Y-001587*
X-000000Y-000000D02*
X-000578Y-002381D01*
X-000000Y-000000D02*
X-000000Y-001588D01*
X000577Y-002381*
X001154Y-001588*
X000000Y000000D02*
X001155Y-000793D01*
X000000Y-000000D02*
X001732Y-000000D01*
X000000Y-000000D02*
X001154Y000793D01*
X000000Y000000D02*
X001155Y001587D01*
X000000Y000000D02*
X000577Y002381D01*
X000000Y000000D02*
X000000Y001588D01*
X-000576Y002381*
X-000000Y000000D02*
X-001155Y001588D01*
X-001154Y000793*
X-000000Y000000D02*
X-001732Y000000D01*
X009812Y000000D02*
X000000Y-016668D01*
X000000Y014287D02*
X001155Y001588D01*
X001155Y000793*
X000000Y000000D02*
X001731Y000000D01*
X000000Y000000D02*
X001155Y-000793D01*
X001154Y-001587*
X000000Y-000000D02*
X000578Y-002381D01*
X000000Y-000000D02*
X000000Y-001588D01*
X-000577Y-002381*
X-001154Y-001588*
X-000000Y000000D02*
X-001155Y-000793D01*
X-000000Y-000000D02*
X-001732Y-000000D01*
X000000Y-000000D02*
X-001154Y000793D01*
X-000000Y000000D02*
X-001155Y001587D01*
X-035791Y-125712D02*
X000000Y-016668D01*
X000000Y016668D02*
X007504Y000000D01*
X-007504Y-007937D02*
X004618Y-000000D01*
X-004618Y-008731D02*
X007504Y-000000D01*
X007505Y016668D02*
X000577Y-000793D01*
X000000Y-000000D02*
X000577Y000793D01*
X000000Y000000D02*
X-000576Y000793D01*
X-000000Y000000D02*
X-000577Y-000793D01*
X000576Y-005556D02*
X000000Y-013494D01*
X-000576Y-002381*
X-000000Y-000000D02*
X-001155Y-000794D01*
X-001155Y000000*
X008659Y011906D02*
X006927Y000000D01*
X000000Y001587*
X000000Y000000D02*
X-000576Y001588D01*
X-000000Y000000D02*
X-000578Y000794D01*
X-001154Y000793*
X-000000Y000000D02*
X-001732Y000000D01*
X-000000Y000000D02*
X-001155Y-000793D01*
X-001154Y-001587*
X-000000Y-000000D02*
X-000577Y-002381D01*
X-000000Y-000000D02*
X-000000Y-001588D01*
X-000000Y-000000D02*
X000576Y-002381D01*
X001154Y-001588*
X000000Y000000D02*
X001155Y-000793D01*
X000000Y-000000D02*
X001732Y-000000D01*
X000000Y-000000D02*
X001154Y000793D01*
X000000Y000000D02*
X001155Y001587D01*
X012123Y006350D02*
X-001154Y001588D01*
X-001155Y000793*
X000000Y000000D02*
X-001731Y000000D01*
X-000000Y000000D02*
X-001155Y-000793D01*
X-001154Y-001587*
X-000000Y-000000D02*
X-000578Y-002381D01*
X-000000Y-000000D02*
X-000000Y-001588D01*
X000577Y-002381*
X001154Y-001588*
X000000Y000000D02*
X001155Y-000793D01*
X000000Y-000000D02*
X001732Y-000000D01*
X000000Y-000000D02*
X001154Y000793D01*
X000000Y000000D02*
X001155Y001587D01*
X006927Y014288D02*
X000000Y-013493D01*
X000000Y-000000D02*
X000577Y-002382D01*
X000000Y000000D02*
X001155Y-000793D01*
X000000Y-000000D02*
X001154Y-000000D01*
X-004617Y011111D02*
X004040Y000000D01*
X226855Y437557D02*
X000000Y-016668D01*
X000000Y016668D02*
X005195Y000000D01*
X001732Y-000793*
X000000Y-000000D02*
X000577Y-000794D01*
X000000Y-000000D02*
X000577Y-001588D01*
X000000Y000000D02*
X000000Y-002381D01*
X000000Y-000000D02*
X-000576Y-001587D01*
X-000000Y-000000D02*
X-000577Y-000794D01*
X-000000Y-000000D02*
X-001732Y-000794D01*
X-000000Y-000000D02*
X-005196Y-000000D01*
X016163Y003174D02*
X-001153Y-000793D01*
X-000000Y000000D02*
X-001155Y-001587D01*
X-000577Y-002381*
X-000000Y-000000D02*
X-000000Y-001588D01*
X-000000Y-000000D02*
X000576Y-002381D01*
X000000Y-000000D02*
X001155Y-001588D01*
X001154Y-000793*
X000000Y-000000D02*
X001732Y-000000D01*
X000000Y-000000D02*
X001155Y000793D01*
X001154Y001587*
X000000Y000000D02*
X000577Y002381D01*
X000000Y000000D02*
X000000Y001588D01*
X000000Y000000D02*
X-000576Y002381D01*
X-000000Y000000D02*
X-001155Y001588D01*
X-001154Y000793*
X-000000Y000000D02*
X-001732Y000000D01*
X009813Y000000D02*
X002309Y-011111D01*
X002309Y011111D02*
X-002308Y-011111D01*
X002308Y011111D02*
X002309Y-011111D01*
X002309Y011111D02*
X-002308Y-011111D01*
X007504Y006349D02*
X006927Y000000D01*
X000000Y001587*
X000000Y000000D02*
X-000576Y001588D01*
X-000000Y000000D02*
X-000578Y000794D01*
X-001154Y000793*
X-000000Y000000D02*
X-001732Y000000D01*
X-000000Y000000D02*
X-001155Y-000793D01*
X-001154Y-001587*
X-000000Y-000000D02*
X-000577Y-002381D01*
X-000000Y-000000D02*
X-000000Y-001588D01*
X-000000Y-000000D02*
X000576Y-002381D01*
X001154Y-001588*
X000000Y000000D02*
X001155Y-000793D01*
X000000Y-000000D02*
X001732Y-000000D01*
X000000Y-000000D02*
X001154Y000793D01*
X000000Y000000D02*
X001155Y001587D01*
X005195Y008731D02*
X000000Y-011111D01*
X000000Y006349D02*
X000578Y002381D01*
X000000Y000000D02*
X001154Y001588D01*
X000000Y000000D02*
X001155Y000793D01*
X000000Y000000D02*
X001732Y000000D01*
X124850Y011810D02*
G03X000000Y000000I-030000J0D01*
G01X000000Y-579999D02*
G03X000000Y000000I-030000J0D01*
G01X-490000Y-000000D02*
G03X000000Y000000I-030000J0D01*
G01X000000Y579999D02*
G03X000000Y000000I-030000J0D01*
G01X430500Y-033999D02*
X054500Y-000000D01*
X000000Y-000000D02*
X000000Y-512500D01*
X000000Y-000000D02*
X-054500Y-000000D01*
X000000Y-000000D02*
X000000Y512499D01*
G54D26*
X-424039Y-410999D02*
G03X000000Y000000I-017961J0D01*
G01X-047960Y029999D02*
X059998Y000000D01*
X000000Y000000D02*
X000000Y-059999D01*
X000000Y-000000D02*
X-059998Y-000000D01*
X-000000Y-000000D02*
X-000000Y059999D01*
X047959Y110000D02*
G03X000000Y000000I-017960J0D01*
G01X-047959Y030000D02*
X059998Y000000D01*
X000000Y000000D02*
X000000Y-059999D01*
X000000Y-000000D02*
X-059998Y-000000D01*
X-000000Y-000000D02*
X-000000Y059999D01*
X047959Y110000D02*
G03X000000Y000000I-017960J0D01*
G01X-047959Y030000D02*
X059998Y000000D01*
X000000Y000000D02*
X000000Y-059999D01*
X000000Y-000000D02*
X-059998Y-000000D01*
X-000000Y-000000D02*
X-000000Y059999D01*
X393959Y071500D02*
G03X000000Y000000I-017960J0D01*
G01X-047959Y-029999D02*
X-000000Y059999D01*
X-000000Y000000D02*
X059998Y000000D01*
X000000Y000000D02*
X000000Y-059999D01*
X000000Y-000000D02*
X-059998Y-000000D01*
X055799Y-387000D02*
X012400Y-000000D01*
X-012400Y-017000D02*
X012400Y-000000D01*
X-012400Y086999D02*
X012400Y000000D01*
X-012400Y-016999D02*
X012400Y-000000D01*
X-012400Y133499D02*
X012400Y000000D01*
X-012400Y-016999D02*
X012400Y-000000D01*
X-012400Y086499D02*
X012400Y000000D01*
X-012400Y-016999D02*
X012400Y-000000D01*
X-012400Y086999D02*
X012400Y000000D01*
X-012400Y-016999D02*
X012400Y-000000D01*
X-084200Y-307050D02*
X032000Y-000000D01*
X000500Y-020900D02*
X-033000Y-000000D01*
X000500Y090899D02*
X032000Y000000D01*
X000500Y-020899D02*
X-033000Y-000000D01*
X000500Y136899D02*
X032000Y000000D01*
X000500Y-020899D02*
X-033000Y-000000D01*
X000500Y090899D02*
X032000Y000000D01*
X000500Y-020899D02*
X-033000Y-000000D01*
X000500Y090899D02*
X032000Y000000D01*
X000500Y-020899D02*
X-033000Y-000000D01*
G54D51*
X109613Y-405894D02*
X000000Y-006563D01*
X000000Y006562D02*
X002046Y000000D01*
X000681Y-000312*
X000000Y-000000D02*
X000228Y-000312D01*
X000000Y-000000D02*
X000227Y-000625D01*
X000000Y-000000D02*
X000000Y-000625D01*
X000000Y-000000D02*
X-000226Y-000625D01*
X-000000Y-000000D02*
X-000228Y-000313D01*
X-000681Y-000312*
X-000000Y-000000D02*
X-002046Y-000000D01*
X001590Y-000000D02*
X001591Y-003438D01*
X002045Y006562D02*
X000000Y-006562D01*
X000000Y006562D02*
X002955Y000000D01*
X-002954Y-003124D02*
X001818Y-000000D01*
X-001818Y-003438D02*
X002954Y-000000D01*
X002045Y006562D02*
X001819Y-006562D01*
X001818Y006562D02*
X-001817Y-006562D01*
G54D52*
X-403160Y012406D02*
X417688Y-001411D01*
X000000Y000000D02*
X-417688Y000000D01*
X000000Y001411*
X417688Y000000*
X000000Y000000D02*
X000000Y-001411D01*
X000000Y000000D02*
X-417688Y001411D01*
X416277Y-001411D02*
X001411Y-017638D01*
X000000Y-000000D02*
X-001410Y-000000D01*
X-000000Y-000000D02*
X-000000Y017638D01*
X001410Y000000*
X000000Y000000D02*
X000000Y-017638D01*
X000000Y-000000D02*
X-001410Y017638D01*
X-035983Y000000D02*
X001410Y-017638D01*
X000000Y-000000D02*
X-001410Y-000000D01*
X-000000Y-000000D02*
X-000000Y017638D01*
X-000000Y000000D02*
X001410Y000000D01*
X000000Y000000D02*
X000000Y-017638D01*
X000000Y-000000D02*
X-001410Y017638D01*
X-089606Y000000D02*
X001411Y-017638D01*
X000000Y-000000D02*
X-001411Y-000000D01*
X-000000Y-000000D02*
X-000000Y017638D01*
X001411Y000000*
X000000Y-017638*
X000000Y-000000D02*
X-001411Y017638D01*
X-035983Y000000D02*
X001410Y-017638D01*
X000000Y-000000D02*
X-001410Y-000000D01*
X-000000Y-000000D02*
X-000000Y017638D01*
X001410Y000000*
X000000Y000000D02*
X000000Y-017638D01*
X000000Y-000000D02*
X-001410Y017638D01*
X-089606Y000000D02*
X001411Y-017638D01*
X000000Y-000000D02*
X-001411Y-000000D01*
X000000Y-000000D02*
X000000Y017638D01*
X001411Y000000*
X000000Y-017638*
X000000Y-000000D02*
X-001411Y017638D01*
X-036688Y000000D02*
X001410Y-017638D01*
X000000Y-000000D02*
X-001410Y-000000D01*
X-000000Y-000000D02*
X-000000Y017638D01*
X-000000Y000000D02*
X001410Y000000D01*
X000000Y-017638*
X000000Y-000000D02*
X-001410Y017638D01*
X-128412Y000000D02*
X001411Y-017638D01*
X000000Y-000000D02*
X-001411Y-000000D01*
X000000Y-000000D02*
X000000Y017638D01*
X001411Y000000*
X000000Y-017638*
X000000Y-000000D02*
X-001411Y017638D01*
X416277Y-017638D02*
X001411Y-017639D01*
X000000Y-000000D02*
X-001410Y-000000D01*
X-000000Y-000000D02*
X-000000Y017638D01*
X001410Y000000*
X000000Y000000D02*
X000000Y-017638D01*
X000000Y-000000D02*
X-001410Y017638D01*
X-035983Y000000D02*
X001410Y-017638D01*
X000000Y-000000D02*
X-001410Y-000000D01*
X-000000Y-000000D02*
X-000000Y017638D01*
X-000000Y000000D02*
X001410Y000000D01*
X000000Y000000D02*
X000000Y-017638D01*
X000000Y-000000D02*
X-001410Y017638D01*
X-089606Y000000D02*
X001411Y-017638D01*
X000000Y-000000D02*
X-001411Y-000000D01*
X-000000Y-000000D02*
X-000000Y017638D01*
X001411Y000000*
X000000Y-017638*
X000000Y-000000D02*
X-001411Y017638D01*
X-035983Y000000D02*
X001410Y-017638D01*
X000000Y-000000D02*
X-001410Y-000000D01*
X-000000Y-000000D02*
X-000000Y017638D01*
X001410Y000000*
X000000Y000000D02*
X000000Y-017638D01*
X000000Y-000000D02*
X-001410Y017638D01*
X-089606Y000000D02*
X001411Y-017638D01*
X000000Y-000000D02*
X-001411Y-000000D01*
X000000Y-000000D02*
X000000Y017638D01*
X001411Y000000*
X000000Y-017638*
X000000Y-000000D02*
X-001411Y017638D01*
X-036688Y000000D02*
X001410Y-017638D01*
X000000Y-000000D02*
X-001410Y-000000D01*
X-000000Y-000000D02*
X-000000Y017638D01*
X-000000Y000000D02*
X001410Y000000D01*
X000000Y-017638*
X000000Y-000000D02*
X-001410Y017638D01*
X-128412Y000000D02*
X001411Y-017638D01*
X000000Y-000000D02*
X-001411Y-000000D01*
X000000Y-000000D02*
X000000Y017638D01*
X001411Y000000*
X000000Y-017638*
X000000Y-000000D02*
X-001411Y017638D01*
X000000Y-017638D02*
X417688Y-001411D01*
X000000Y-000000D02*
X-417688Y-000000D01*
X000000Y-000000D02*
X000000Y001410D01*
X417688Y000000*
X000000Y000000D02*
X000000Y-001410D01*
X000000Y-000000D02*
X-417688Y001410D01*
X000000Y035278D02*
X000000Y001411D01*
X417688Y000000D02*
X000000Y-001411D01*
X-001410Y-017638D02*
X-000000Y017638D01*
X001410Y000000D02*
X000000Y-017638D01*
X-037393Y-000000D02*
X-000000Y017638D01*
X001410Y000000D02*
X000000Y-017638D01*
X-091016Y-000000D02*
X-000000Y017638D01*
X001411Y000000D02*
X000000Y-017638D01*
X-037394Y-000000D02*
X-000000Y017638D01*
X001410Y000000D02*
X000000Y-017638D01*
X-091016Y-000000D02*
X000000Y017638D01*
X001411Y000000D02*
X000000Y-017638D01*
X-038099Y-000000D02*
X-000000Y017638D01*
X001410Y000000D02*
X000000Y-017638D01*
X-129822Y-000000D02*
X000000Y017638D01*
X001411Y000000D02*
X000000Y-017638D01*
X414866Y-017639D02*
X000000Y017638D01*
X001411Y000000D02*
X000000Y-017638D01*
X-037393Y-000000D02*
X-000000Y017638D01*
X001410Y000000D02*
X000000Y-017638D01*
X-091016Y-000000D02*
X-000000Y017638D01*
X001411Y000000D02*
X000000Y-017638D01*
X-037394Y-000000D02*
X-000000Y017638D01*
X001410Y000000D02*
X000000Y-017638D01*
X-091016Y-000000D02*
X000000Y017638D01*
X001411Y000000D02*
X000000Y-017638D01*
X-038099Y-000000D02*
X-000000Y017638D01*
X001410Y000000D02*
X000000Y-017638D01*
X-129822Y-000000D02*
X000000Y017638D01*
X001411Y000000D02*
X000000Y-017638D01*
X-001411Y-001411D02*
X000000Y001410D01*
X417688Y000000D02*
X000000Y-001410D01*
X-417688Y019049D02*
X000000Y019050D01*
X208844Y000000*
X208844Y000000*
X000000Y000000D02*
X000000Y-019049D01*
X000000Y-000000D02*
X000000Y-019050D01*
X000000Y-000000D02*
X-208843Y-000000D01*
X-000000Y-000000D02*
X-208845Y-000000D01*
X000000Y-000000D02*
X000000Y019049D01*
X000000Y000000*
X128411Y000000D02*
X000000Y017639D01*
X-063499Y000000*
X-000000Y000000D02*
X-063500Y000000D01*
X-000000Y000000D02*
X-000000Y-017638D01*
X-000000Y-000000D02*
X-000000Y-017639D01*
X-000000Y-000000D02*
X063499Y-000000D01*
X000000Y-000000D02*
X063500Y-000000D01*
X000000Y-000000D02*
X000000Y017638D01*
X000000Y000000*
X036689Y000000D02*
X000000Y017639D01*
X-017638Y000000*
X-000000Y000000D02*
X-017639Y000000D01*
X-000000Y000000D02*
X-000000Y-017638D01*
X-000000Y-000000D02*
X-000000Y-017639D01*
X-000000Y-000000D02*
X017638Y-000000D01*
X000000Y-000000D02*
X017639Y-000000D01*
X000000Y-000000D02*
X000000Y017638D01*
X000000Y000000*
X089605Y000000D02*
X000000Y017639D01*
X000000Y000000D02*
X-044096Y000000D01*
X-000000Y000000D02*
X-044097Y000000D01*
X-000000Y000000D02*
X-000000Y-017638D01*
X-000000Y-000000D02*
X-000000Y-017639D01*
X-000000Y-000000D02*
X044096Y-000000D01*
X000000Y-000000D02*
X044097Y-000000D01*
X000000Y-000000D02*
X000000Y017638D01*
X000000Y000000D02*
X000000Y000000D01*
X035983Y000000D02*
X000000Y017639D01*
X000000Y000000D02*
X-017285Y000000D01*
X-017286Y000000*
X-000000Y-017638*
X-000000Y-000000D02*
X-000000Y-017639D01*
X-000000Y-000000D02*
X017285Y-000000D01*
X000000Y-000000D02*
X017286Y-000000D01*
X000000Y-000000D02*
X000000Y017638D01*
X000000Y000000D02*
X000000Y000000D01*
X089606Y000000D02*
X000000Y017639D01*
X-044096Y000000*
X-000000Y000000D02*
X-044098Y000000D01*
X000000Y-017638*
X000000Y-000000D02*
X000000Y-017639D01*
X000000Y-000000D02*
X044097Y-000000D01*
X000000Y-000000D02*
X044097Y-000000D01*
X000000Y-000000D02*
X000000Y017638D01*
X000000Y000000*
X035983Y000000D02*
X000000Y017639D01*
X000000Y000000D02*
X-017285Y000000D01*
X-017286Y000000*
X-000000Y-017638*
X-000000Y-000000D02*
X-000000Y-017639D01*
X-000000Y-000000D02*
X017285Y-000000D01*
X000000Y-000000D02*
X017286Y-000000D01*
X000000Y-000000D02*
X000000Y017638D01*
X000000Y000000D02*
X000000Y000000D01*
G54D64*
X-409276Y216550D02*
G03X000000Y000000I-002001J0D01*
G01X-000000Y140000D02*
G03X000000Y000000I-002001J0D01*
G01X-000000Y140000D02*
G03X000000Y000000I-002001J0D01*
G01X253999Y055500D02*
G03X000000Y000000I-002000J0D01*
G54D65*
G01X-281159Y-331062D02*
X-000909Y001249D01*
X-000000Y000000D02*
X-001363Y000625D01*
X-000000Y000000D02*
X-001819Y000000D01*
X000000Y000000D02*
X-001363Y-000624D01*
X-000000Y-000000D02*
X-000909Y-001250D01*
X-000000Y-000000D02*
X-000000Y-001250D01*
X-000000Y-000000D02*
X000453Y-001250D01*
X000000Y-000000D02*
X000455Y-000625D01*
X000909Y-000625*
X002727Y-001250*
X000000Y-000000D02*
X000909Y-000625D01*
X000000Y-000000D02*
X000455Y-000625D01*
X000454Y-001250*
X000000Y-000000D02*
X000000Y-001875D01*
X000000Y-000000D02*
X-000908Y-001250D01*
X-001363Y-000625*
X-000000Y-000000D02*
X-001819Y-000000D01*
X-001363Y000624*
X-000000Y000000D02*
X-000909Y001250D01*
X010453Y008750D02*
X000909Y000625D01*
X000000Y000000D02*
X001364Y001875D01*
X000000Y000000D02*
X000000Y-013124D01*
X-008408Y151249D02*
X-000909Y001250D01*
X-000000Y000000D02*
X-001364Y000625D01*
X-000000Y000000D02*
X-001818Y000000D01*
X-000000Y000000D02*
X-001364Y-000624D01*
X-000909Y-001250*
X-000000Y-001250*
X000454Y-001250*
X000454Y-000625*
X000000Y-000000D02*
X000910Y-000625D01*
X002727Y-001250*
X000909Y-000625*
X000454Y-000625*
X000000Y-000000D02*
X000455Y-001250D01*
X000000Y-001875*
X-000908Y-001250*
X-000000Y-000000D02*
X-001364Y-000625D01*
X-001818Y-000000*
X-001364Y000624*
X-000000Y000000D02*
X-000909Y001250D01*
X010908Y008125D02*
X000000Y000625D01*
X000000Y000000D02*
X000455Y001250D01*
X000000Y000000D02*
X000455Y000625D01*
X000000Y000000D02*
X000909Y000625D01*
X000000Y000000D02*
X001818Y000000D01*
X000000Y000000D02*
X000909Y-000624D01*
X000454Y-000625*
X000000Y-000000D02*
X000455Y-001250D01*
X000000Y-001250*
X-000454Y-001250*
X-000909Y-001875*
X-004545Y-006250*
X-000000Y-000000D02*
X006363Y-000000D01*
X-010454Y151249D02*
X-000909Y001250D01*
X-000000Y000000D02*
X-001364Y000625D01*
X-000000Y000000D02*
X-001818Y000000D01*
X-000000Y000000D02*
X-001364Y-000624D01*
X-000909Y-001250*
X-000000Y-001250*
X000454Y-001250*
X000454Y-000625*
X000000Y-000000D02*
X000910Y-000625D01*
X002727Y-001250*
X000909Y-000625*
X000454Y-000625*
X000000Y-000000D02*
X000455Y-001250D01*
X000000Y-001875*
X-000908Y-001250*
X-000000Y-000000D02*
X-001364Y-000625D01*
X-001818Y-000000*
X-001364Y000624*
X-000000Y000000D02*
X-000909Y001250D01*
X011363Y011250D02*
X005000Y000000D01*
X000000Y000000D02*
X-002726Y-004999D01*
X-000000Y-000000D02*
X001362Y-000000D01*
X000000Y-000000D02*
X000909Y-000625D01*
X000000Y-000000D02*
X000455Y-000625D01*
X000455Y-001875*
X000000Y-001250*
X-000454Y-001875*
X-000000Y-000000D02*
X-000909Y-001250D01*
X-000000Y-000000D02*
X-001364Y-000625D01*
X-001363Y-000000*
X-000000Y-000000D02*
X-001364Y000624D01*
X-000000Y000000D02*
X-000455Y000625D01*
X-000000Y000000D02*
X-000454Y001250D01*
X268476Y040563D02*
X-000908Y001250D01*
X-001364Y000625*
X-001818Y000000*
X-001363Y-000624*
X-000000Y-000000D02*
X-000910Y-001250D01*
X000000Y-000000D02*
X000000Y-001250D01*
X000000Y-000000D02*
X000454Y-001250D01*
X000000Y-000000D02*
X000455Y-000625D01*
X000000Y-000000D02*
X000909Y-000625D01*
X000000Y-000000D02*
X002727Y-001250D01*
X000000Y-000000D02*
X000909Y-000625D01*
X000000Y-000000D02*
X000455Y-000625D01*
X000000Y-000000D02*
X000454Y-001250D01*
X000000Y-000000D02*
X000000Y-001875D01*
X000000Y-000000D02*
X-000908Y-001250D01*
X-000000Y-000000D02*
X-001364Y-000625D01*
X-000000Y-000000D02*
X-001818Y-000000D01*
X-000000Y-000000D02*
X-001363Y000624D01*
X-000000Y000000D02*
X-000910Y001250D01*
X015000Y011250D02*
X-004545Y-008749D01*
X-000000Y-000000D02*
X006817Y-000000D01*
X-002272Y008749D02*
X000000Y-013124D01*
X094500Y-387375D02*
X000000Y-013125D01*
X000000Y013124D02*
X004090Y000000D01*
X000000Y000000D02*
X001364Y-000624D01*
X000000Y-000000D02*
X000455Y-000625D01*
X000000Y-000000D02*
X000454Y-001250D01*
X000000Y-000000D02*
X000000Y-001250D01*
X000000Y-000000D02*
X-000453Y-001250D01*
X-000000Y-000000D02*
X-000455Y-000625D01*
X-000000Y-000000D02*
X-001364Y-000625D01*
X-000000Y-000000D02*
X-004091Y-000000D01*
X003181Y-000000D02*
X003182Y-006875D01*
X004091Y010624D02*
X000909Y000625D01*
X000000Y000000D02*
X001364Y001875D01*
X000000Y-013124*
X-013727Y080124D02*
X000000Y-013124D01*
X000000Y013124D02*
X004090Y000000D01*
X000000Y000000D02*
X001364Y-000624D01*
X000000Y-000000D02*
X000455Y-000625D01*
X000000Y-000000D02*
X000454Y-001250D01*
X000000Y-000000D02*
X000000Y-001250D01*
X000000Y-000000D02*
X-000453Y-001250D01*
X-000000Y-000000D02*
X-000455Y-000625D01*
X-000000Y-000000D02*
X-001364Y-000625D01*
X-000000Y-000000D02*
X-004091Y-000000D01*
X003181Y-000000D02*
X003182Y-006875D01*
X004546Y009999D02*
X000000Y000625D01*
X000454Y001250*
X000000Y000000D02*
X000455Y000625D01*
X000909Y000625*
X001818Y000000*
X000909Y-000624*
X000000Y-000000D02*
X000455Y-000625D01*
X000000Y-000000D02*
X000454Y-001250D01*
X000000Y-000000D02*
X000000Y-001250D01*
X000000Y-000000D02*
X-000453Y-001250D01*
X-000000Y-000000D02*
X-000910Y-001875D01*
X000000Y-000000D02*
X-004545Y-006250D01*
X-000000Y-000000D02*
X006363Y-000000D01*
X-016818Y129624D02*
X000000Y-013124D01*
X000000Y013124D02*
X004090Y000000D01*
X000000Y000000D02*
X001364Y-000624D01*
X000000Y-000000D02*
X000455Y-000625D01*
X000000Y-000000D02*
X000454Y-001250D01*
X000000Y-000000D02*
X000000Y-001250D01*
X000000Y-000000D02*
X-000453Y-001250D01*
X-000000Y-000000D02*
X-000455Y-000625D01*
X-000000Y-000000D02*
X-001364Y-000625D01*
X-000000Y-000000D02*
X-004091Y-000000D01*
X003181Y-000000D02*
X003182Y-006875D01*
X005000Y013124D02*
X005000Y000000D01*
X000000Y000000D02*
X-002726Y-004999D01*
X-000000Y-000000D02*
X001363Y-000000D01*
X000000Y-000000D02*
X000909Y-000625D01*
X000000Y-000000D02*
X000454Y-000625D01*
X000000Y-000000D02*
X000455Y-001875D01*
X000000Y-000000D02*
X000000Y-001250D01*
X000000Y-000000D02*
X-000454Y-001875D01*
X-000000Y-000000D02*
X-000909Y-001250D01*
X-000000Y-000000D02*
X-001364Y-000625D01*
X-000000Y-000000D02*
X-001363Y-000000D01*
X-000000Y-000000D02*
X-001364Y000624D01*
X-000454Y000625*
X-000000Y000000D02*
X-000455Y001250D01*
X-011955Y080125D02*
X000000Y-013124D01*
X000000Y013124D02*
X004090Y000000D01*
X000000Y000000D02*
X001364Y-000624D01*
X000000Y-000000D02*
X000455Y-000625D01*
X000000Y-000000D02*
X000454Y-001250D01*
X000000Y-000000D02*
X000000Y-001250D01*
X000000Y-000000D02*
X-000453Y-001250D01*
X-000000Y-000000D02*
X-000455Y-000625D01*
X-000000Y-000000D02*
X-001364Y-000625D01*
X-000000Y-000000D02*
X-004091Y-000000D01*
X003181Y-000000D02*
X003182Y-006875D01*
X008637Y013124D02*
X-004545Y-008749D01*
X-000000Y-000000D02*
X006817Y-000000D01*
X-002272Y008749D02*
X000000Y-013124D01*
X-013500Y083124D02*
X000000Y-013124D01*
X000000Y013124D02*
X004090Y000000D01*
X000000Y000000D02*
X001364Y-000624D01*
X000000Y-000000D02*
X000455Y-000625D01*
X000000Y-000000D02*
X000454Y-001250D01*
X000000Y-000000D02*
X000000Y-001250D01*
X000000Y-000000D02*
X-000453Y-001250D01*
X-000000Y-000000D02*
X-000455Y-000625D01*
X-000000Y-000000D02*
X-001364Y-000625D01*
X-000000Y-000000D02*
X-004091Y-000000D01*
X003181Y-000000D02*
X003182Y-006875D01*
X010000Y013124D02*
X-004544Y000000D01*
X-000000Y000000D02*
X-000455Y-005624D01*
X-000000Y-000000D02*
X000454Y000624D01*
X001363Y000625*
X000000Y000000D02*
X001364Y000000D01*
X001364Y-000624*
X000000Y-000000D02*
X000909Y-001250D01*
X000000Y-000000D02*
X000454Y-001875D01*
X000000Y-000000D02*
X-000453Y-001250D01*
X-000000Y-000000D02*
X-000455Y-001875D01*
X-000000Y-000000D02*
X-000909Y-001250D01*
X-000000Y-000000D02*
X-001364Y-000625D01*
X-000000Y-000000D02*
X-001363Y-000000D01*
X-000000Y-000000D02*
X-001364Y000624D01*
X-000454Y000625*
X-000000Y000000D02*
X-000455Y001250D01*
X-072455Y-315374D02*
X000000Y-013125D01*
X000000Y013124D02*
X003181Y000000D01*
X000000Y000000D02*
X001364Y-000624D01*
X000000Y-000000D02*
X000909Y-001250D01*
X000000Y-000000D02*
X000455Y-001250D01*
X000000Y-000000D02*
X000454Y-001875D01*
X000000Y-000000D02*
X000000Y-003125D01*
X000000Y-000000D02*
X-000453Y-001875D01*
X-000000Y-000000D02*
X-000455Y-001250D01*
X-000000Y-000000D02*
X-000909Y-001250D01*
X-000000Y-000000D02*
X-001364Y-000625D01*
X-000000Y-000000D02*
X-003182Y-000000D01*
X010454Y010624D02*
X000909Y000625D01*
X000000Y000000D02*
X001364Y001875D01*
X000000Y-013124*
X-012727Y083124D02*
X000000Y-013124D01*
X000000Y013124D02*
X003181Y000000D01*
X000000Y000000D02*
X001364Y-000624D01*
X000000Y-000000D02*
X000909Y-001250D01*
X000000Y-000000D02*
X000455Y-001250D01*
X000000Y-000000D02*
X000454Y-001875D01*
X000000Y-000000D02*
X000000Y-003125D01*
X000000Y-000000D02*
X-000453Y-001875D01*
X-000000Y-000000D02*
X-000455Y-001250D01*
X-000000Y-000000D02*
X-000909Y-001250D01*
X-000000Y-000000D02*
X-001364Y-000625D01*
X-000000Y-000000D02*
X-003182Y-000000D01*
X010909Y009999D02*
X000000Y000625D01*
X000454Y001250*
X000000Y000000D02*
X000455Y000625D01*
X000909Y000625*
X001818Y000000*
X000909Y-000624*
X000000Y-000000D02*
X000455Y-000625D01*
X000000Y-000000D02*
X000454Y-001250D01*
X000000Y-000000D02*
X000000Y-001250D01*
X000000Y-000000D02*
X-000453Y-001250D01*
X-000000Y-000000D02*
X-000910Y-001875D01*
X000000Y-000000D02*
X-004545Y-006250D01*
X-000000Y-000000D02*
X006363Y-000000D01*
X-016818Y129124D02*
X000000Y-013124D01*
X000000Y013124D02*
X003181Y000000D01*
X000000Y000000D02*
X001364Y-000624D01*
X000000Y-000000D02*
X000909Y-001250D01*
X000000Y-000000D02*
X000455Y-001250D01*
X000000Y-000000D02*
X000454Y-001875D01*
X000000Y-000000D02*
X000000Y-003125D01*
X000000Y-000000D02*
X-000453Y-001875D01*
X-000000Y-000000D02*
X-000455Y-001250D01*
X-000000Y-000000D02*
X-000909Y-001250D01*
X-000000Y-000000D02*
X-001364Y-000625D01*
X-000000Y-000000D02*
X-003182Y-000000D01*
X011363Y013124D02*
X005000Y000000D01*
X000000Y000000D02*
X-002726Y-004999D01*
X-000000Y-000000D02*
X001363Y-000000D01*
X000000Y-000000D02*
X000909Y-000625D01*
X000000Y-000000D02*
X000454Y-000625D01*
X000000Y-000000D02*
X000455Y-001875D01*
X000000Y-000000D02*
X000000Y-001250D01*
X000000Y-000000D02*
X-000454Y-001875D01*
X-000000Y-000000D02*
X-000909Y-001250D01*
X-000000Y-000000D02*
X-001364Y-000625D01*
X-000000Y-000000D02*
X-001363Y-000000D01*
X-000000Y-000000D02*
X-001364Y000624D01*
X-000454Y000625*
X-000000Y000000D02*
X-000455Y001250D01*
X-012955Y080625D02*
X000000Y-013124D01*
X000000Y013124D02*
X003181Y000000D01*
X000000Y000000D02*
X001364Y-000624D01*
X000000Y-000000D02*
X000909Y-001250D01*
X000000Y-000000D02*
X000455Y-001250D01*
X000000Y-000000D02*
X000454Y-001875D01*
X000000Y-000000D02*
X000000Y-003125D01*
X000000Y-000000D02*
X-000453Y-001875D01*
X-000000Y-000000D02*
X-000455Y-001250D01*
X-000000Y-000000D02*
X-000909Y-001250D01*
X-000000Y-000000D02*
X-001364Y-000625D01*
X-000000Y-000000D02*
X-003182Y-000000D01*
X015000Y013124D02*
X-004545Y-008749D01*
X-000000Y-000000D02*
X006817Y-000000D01*
X-002272Y008749D02*
X000000Y-013124D01*
X-013500Y086124D02*
X000000Y-013124D01*
X000000Y013124D02*
X003181Y000000D01*
X000000Y000000D02*
X001364Y-000624D01*
X000000Y-000000D02*
X000909Y-001250D01*
X000000Y-000000D02*
X000455Y-001250D01*
X000000Y-000000D02*
X000454Y-001875D01*
X000000Y-000000D02*
X000000Y-003125D01*
X000000Y-000000D02*
X-000453Y-001875D01*
X-000000Y-000000D02*
X-000455Y-001250D01*
X-000000Y-000000D02*
X-000909Y-001250D01*
X-000000Y-000000D02*
X-001364Y-000625D01*
X-000000Y-000000D02*
X-003182Y-000000D01*
X016363Y013124D02*
X-004544Y000000D01*
X-000000Y000000D02*
X-000455Y-005624D01*
X-000000Y-000000D02*
X000454Y000624D01*
X001363Y000625*
X000000Y000000D02*
X001364Y000000D01*
X001364Y-000624*
X000000Y-000000D02*
X000909Y-001250D01*
X000000Y-000000D02*
X000454Y-001875D01*
X000000Y-000000D02*
X-000453Y-001250D01*
X-000000Y-000000D02*
X-000455Y-001875D01*
X-000000Y-000000D02*
X-000909Y-001250D01*
X-000000Y-000000D02*
X-001364Y-000625D01*
X-000000Y-000000D02*
X-001363Y-000000D01*
X-000000Y-000000D02*
X-001364Y000624D01*
X-000454Y000625*
X-000000Y000000D02*
X-000455Y001250D01*
G74*
X-371582Y-472129D02*
M02*
