*
*
G04 PADS VX.2.6 Build Number: 14487894 generated Gerber (RS-274-X) file*
G04 PC Version=2.1*
*
%IN "Swallow.pcb"*%
*
%MOMM*%
*
%FSDIX24Y24*%
*
*
*
*
G04 PC Standard Apertures*
*
*
G04 Thermal Relief Aperture macro.*
%AMTER*
1,1,$1,0,0*
1,0,$1-$2,0,0*
21,0,$3,$4,0,0,45*
21,0,$3,$4,0,0,135*
%
*
*
G04 Annular Aperture macro.*
%AMANN*
1,1,$1,0,0*
1,0,$2,0,0*
%
*
*
G04 Odd Aperture macro.*
%AMODD*
1,1,$1,0,0*
1,0,$1-0.005,0,0*
%
*
*
G04 PC Custom Aperture Macros*
*
*
*
*
*
*
G04 PC Aperture Table*
*
%ADD010C,0.0254*%
%ADD053C,0.508*%
%ADD060R,1.604X1.604*%
%ADD061C,0.929*%
%ADD062C,0.05*%
%ADD066C,0.47396*%
*
*
*
*
G04 PC Circuitry*
G04 Layer Name Swallow.pcb - circuitry*
%LPD*%
*
*
G04 PC Custom Flashes*
G04 Layer Name Swallow.pcb - flashes*
%LPD*%
*
*
G04 PC Circuitry*
G04 Layer Name Swallow.pcb - circuitry*
%LPD*%
*
G54D10*
G01X000127Y030124D02*
G75*
G03X029995Y-029994I033321J003326D01*
G01X000005Y-000000D02*
X505000Y-000000D01*
X-000005Y-000000D02*
G03X030004Y030004I000362J029642D01*
G01X000001Y-000004D02*
X000000Y589999D01*
X000000Y-000001D02*
G03X-030001Y030001I-030863J-000862D01*
G01X000001Y000000D02*
X-160000Y000000D01*
X-000001Y000000D02*
G03X-009998Y-009998I001108J-011107D01*
G01X-000001Y-000001D02*
X000000Y-030000D01*
X-009997Y-010001D02*
G03X009997Y009998I000497J009500D01*
G01X-010000Y-009997D02*
X-150000Y-000000D01*
X-010000Y009987D02*
G03X010005Y-009987I009750J-000237D01*
G01X-010005Y009999D02*
X000000Y030000D01*
X-000000Y-000005D02*
G03X-009988Y010005I-009750J000255D01*
G01X-000012Y000000D02*
X-155000Y000000D01*
X-000016Y-000000D02*
G03X-029986Y-030038I001657J-031641D01*
G01X000002Y000038D02*
X000000Y-589999D01*
X050033Y004999D02*
G03X000000Y000000I-015033J0D01*
G01X490000Y000000D02*
G03X000000Y000000I-015033J0D01*
G01X-490024Y580000D02*
G03X000000Y000000I-015009J0D01*
G01X490065Y000000D02*
G03X000000Y000000I-015074J0D01*
G54D53*
G01X-119194Y-496329D02*
X-007960Y-000000D01*
X000000Y-000000D02*
X000000Y014659D01*
X007960Y000000*
X000000Y-014659*
X-007960Y003249D02*
X007960Y000000D01*
X-007960Y005080D02*
X007960Y000000D01*
X-007960Y005080D02*
X007960Y000000D01*
X-004320Y-013409D02*
X000000Y014659D01*
X033520Y-014659D02*
X-007960Y-000000D01*
X-000000Y-000000D02*
X-000000Y014659D01*
X007960Y000000*
X-000000Y-014659*
X-007960Y003249D02*
X007960Y000000D01*
X-007960Y005080D02*
X007960Y000000D01*
X-007960Y005080D02*
X007960Y000000D01*
X-003040Y-013409D02*
X000000Y014659D01*
X-026160Y055340D02*
X-007960Y000000D01*
X000000Y014660*
X007960Y000000*
X000000Y-014659*
X-007960Y004369D02*
X007960Y000000D01*
X-007960Y005080D02*
X007960Y000000D01*
X-007960Y005080D02*
X007960Y000000D01*
X-004320Y-014529D02*
X000000Y014659D01*
X033520Y-014659D02*
X-007960Y-000000D01*
X-000000Y-000000D02*
X-000000Y014659D01*
X007960Y000000*
X-000000Y-014659*
X-007960Y004369D02*
X007960Y000000D01*
X-007960Y005080D02*
X007960Y000000D01*
X-007960Y005080D02*
X007960Y000000D01*
X-003040Y-014529D02*
X000000Y014659D01*
X-026160Y101840D02*
X-007960Y000000D01*
X000000Y014660*
X007960Y000000*
X000000Y-014659*
X-007960Y004709D02*
X007960Y000000D01*
X-007960Y005080D02*
X007960Y000000D01*
X-004320Y-009789D02*
X000000Y014659D01*
X033520Y-014659D02*
X-007960Y-000000D01*
X-000000Y-000000D02*
X-000000Y014659D01*
X007960Y000000*
X-000000Y-014659*
X-007960Y004709D02*
X007960Y000000D01*
X-007960Y005080D02*
X007960Y000000D01*
X-003040Y-009789D02*
X000000Y014659D01*
X-026160Y054840D02*
X-007960Y000000D01*
X000000Y014660*
X007960Y000000*
X000000Y-014659*
X-007960Y001249D02*
X007960Y000000D01*
X-007960Y005080D02*
X007960Y000000D01*
X-007960Y005080D02*
X007960Y000000D01*
X-004320Y-011409D02*
X000000Y014659D01*
X033520Y-014659D02*
X-007960Y-000000D01*
X-000000Y-000000D02*
X-000000Y014659D01*
X007960Y000000*
X-000000Y-014659*
X-007960Y001249D02*
X007960Y000000D01*
X-007960Y005080D02*
X007960Y000000D01*
X-007960Y005080D02*
X007960Y000000D01*
X-003040Y-011409D02*
X000000Y014659D01*
X-026160Y055340D02*
X-007960Y000000D01*
X000000Y014660*
X007960Y000000*
X000000Y-014659*
X-007960Y002369D02*
X007960Y000000D01*
X-007960Y005080D02*
X007960Y000000D01*
X-007960Y005080D02*
X007960Y000000D01*
X-004320Y-012529D02*
X000000Y014659D01*
X033520Y-014659D02*
X-007960Y-000000D01*
X-000000Y-000000D02*
X-000000Y014659D01*
X007960Y000000*
X-000000Y-014659*
X-007960Y002369D02*
X007960Y000000D01*
X-007960Y005080D02*
X007960Y000000D01*
X-007960Y005080D02*
X007960Y000000D01*
X-003040Y-012529D02*
X000000Y014659D01*
G54D60*
X062960Y106670D03*
X000000Y000000D03*
G54D61*
X025400Y000000D03*
X-025400Y-025399D03*
X025400Y-000000D03*
X-025400Y-025400D03*
X025400Y-000000D03*
X-025400Y-025400D03*
X025400Y-000000D03*
X-025400Y-025400D03*
X025400Y-000000D03*
X-025400Y-025400D03*
X025400Y-000000D03*
X-025400Y-025400D03*
X025400Y-000000D03*
X-025400Y-025400D03*
X025400Y-000000D03*
X-025400Y-025400D03*
X025400Y-000000D03*
X-025400Y-025400D03*
X025400Y-000000D03*
X-025400Y-025400D03*
X025400Y-000000D03*
X-025400Y-025400D03*
X025400Y-000000D03*
X-025400Y-025400D03*
X025400Y-000000D03*
X-025400Y-025400D03*
X025400Y-000000D03*
X-025400Y-025400D03*
X025400Y-000000D03*
X-025400Y-025400D03*
X025400Y-000000D03*
X-025400Y-025400D03*
X025400Y-000000D03*
X-025400Y-025400D03*
X025400Y-000000D03*
X-025400Y-025400D03*
X025400Y-000000D03*
X-025400Y-025400D03*
X025400Y-000000D03*
G54D62*
X-467418Y143620D02*
X-000004Y-023039D01*
X016040Y-000003*
X000004Y023039*
X000000Y000000D02*
X-016040Y000003D01*
X-000004Y-023020D02*
X016040Y-000000D01*
X-016039Y000499D02*
X016039Y000000D01*
X-016039Y000500D02*
X016039Y000000D01*
X-016039Y000500D02*
X016039Y000000D01*
X-016039Y000500D02*
X016039Y000000D01*
X-016039Y000500D02*
X016039Y000000D01*
X-016039Y000500D02*
X016039Y000000D01*
X-016039Y000500D02*
X016039Y000000D01*
X-016039Y000500D02*
X016039Y000000D01*
X-016039Y000500D02*
X016039Y000000D01*
X-016039Y000500D02*
X016039Y000000D01*
X-016039Y000500D02*
X016040Y000000D01*
X-016039Y000500D02*
X016039Y000000D01*
X-016039Y000500D02*
X016039Y000000D01*
X-016039Y000500D02*
X016039Y000000D01*
X-016039Y000500D02*
X016039Y000000D01*
X-016039Y000500D02*
X016039Y000000D01*
X-016039Y000500D02*
X016039Y000000D01*
X-016039Y000500D02*
X016039Y000000D01*
X-016039Y000500D02*
X016039Y000000D01*
X-016039Y000500D02*
X016039Y000000D01*
X-016039Y000500D02*
X016039Y000000D01*
X-016039Y000500D02*
X016039Y000000D01*
X-016039Y000500D02*
X016040Y000000D01*
X-016039Y000500D02*
X016039Y000000D01*
X-016039Y000500D02*
X016039Y000000D01*
X-016039Y000500D02*
X016039Y000000D01*
X-016039Y000500D02*
X016039Y000000D01*
X-016039Y000500D02*
X016039Y000000D01*
X-016039Y000500D02*
X016039Y000000D01*
X-016039Y000500D02*
X016039Y000000D01*
X-016039Y000500D02*
X016039Y000000D01*
X-016039Y000500D02*
X016039Y000000D01*
X-016039Y000500D02*
X016039Y000000D01*
X-016039Y000500D02*
X016040Y000000D01*
X-016039Y000500D02*
X016039Y000000D01*
X-016039Y000500D02*
X016039Y000000D01*
X-016039Y000500D02*
X016039Y000000D01*
X-016039Y000500D02*
X016039Y000000D01*
X-016039Y000500D02*
X016039Y000000D01*
X-016039Y000500D02*
X016039Y000000D01*
X-016039Y000500D02*
X016039Y000000D01*
X-016039Y000500D02*
X016039Y000000D01*
X-016039Y000500D02*
X016039Y000000D01*
X-016039Y000500D02*
X016039Y000000D01*
X-016039Y000500D02*
X016039Y000000D01*
X-016039Y000500D02*
X016040Y000000D01*
X-016022Y-023018D02*
X000000Y023039D01*
X000500Y-023039D02*
X000000Y023039D01*
X000500Y-023039D02*
X000000Y023039D01*
X000500Y-023039D02*
X000000Y023039D01*
X000500Y-023039D02*
X000000Y023039D01*
X000500Y-023039D02*
X000000Y023039D01*
X000500Y-023039D02*
X000000Y023039D01*
X000500Y-023040D02*
X000000Y023040D01*
X000500Y-023040D02*
X000000Y023039D01*
X000500Y-023039D02*
X000000Y023039D01*
X000500Y-023039D02*
X000000Y023039D01*
X000500Y-023039D02*
X000000Y023039D01*
X000500Y-023039D02*
X000000Y023039D01*
X000500Y-023039D02*
X000000Y023039D01*
X000500Y-023039D02*
X000000Y023039D01*
X000500Y-023039D02*
X000000Y023039D01*
X000500Y-023039D02*
X000000Y023039D01*
X000500Y-023039D02*
X000000Y023039D01*
X000500Y-023040D02*
X000000Y023040D01*
X000500Y-023040D02*
X000000Y023039D01*
X000500Y-023039D02*
X000000Y023039D01*
X000500Y-023039D02*
X000000Y023039D01*
X000500Y-023039D02*
X000000Y023039D01*
X000500Y-023039D02*
X000000Y023039D01*
X000500Y-023039D02*
X000000Y023039D01*
X000500Y-023039D02*
X000000Y023039D01*
X000500Y-023039D02*
X000000Y023039D01*
X000500Y-023039D02*
X000000Y023039D01*
X000500Y-023039D02*
X000000Y023039D01*
X000500Y-023039D02*
X000000Y023039D01*
X000500Y-023040D02*
X000000Y023040D01*
X000500Y-023040D02*
X000000Y023039D01*
X000500Y-023039D02*
X000000Y023039D01*
X-016018Y-090996D02*
X-000004Y-023040D01*
X016040Y-000003*
X000004Y023039*
X000000Y000000D02*
X-016040Y000003D01*
X-000004Y-023020D02*
X016040Y-000000D01*
X-016039Y000499D02*
X016039Y000000D01*
X-016039Y000500D02*
X016039Y000000D01*
X-016039Y000500D02*
X016039Y000000D01*
X-016039Y000500D02*
X016039Y000000D01*
X-016039Y000500D02*
X016039Y000000D01*
X-016039Y000500D02*
X016039Y000000D01*
X-016039Y000500D02*
X016039Y000000D01*
X-016039Y000500D02*
X016039Y000000D01*
X-016039Y000500D02*
X016039Y000000D01*
X-016039Y000500D02*
X016039Y000000D01*
X-016039Y000500D02*
X016040Y000000D01*
X-016039Y000500D02*
X016039Y000000D01*
X-016039Y000500D02*
X016039Y000000D01*
X-016039Y000500D02*
X016039Y000000D01*
X-016039Y000500D02*
X016039Y000000D01*
X-016039Y000500D02*
X016039Y000000D01*
X-016039Y000500D02*
X016039Y000000D01*
X-016039Y000500D02*
X016039Y000000D01*
X-016039Y000500D02*
X016039Y000000D01*
X-016039Y000500D02*
X016039Y000000D01*
X-016039Y000500D02*
X016039Y000000D01*
X-016039Y000500D02*
X016039Y000000D01*
X-016039Y000500D02*
X016040Y000000D01*
X-016039Y000500D02*
X016039Y000000D01*
X-016039Y000500D02*
X016039Y000000D01*
X-016039Y000500D02*
X016039Y000000D01*
X-016039Y000500D02*
X016039Y000000D01*
X-016039Y000500D02*
X016039Y000000D01*
X-016039Y000500D02*
X016039Y000000D01*
X-016039Y000500D02*
X016039Y000000D01*
X-016039Y000500D02*
X016039Y000000D01*
X-016039Y000500D02*
X016039Y000000D01*
X-016039Y000500D02*
X016039Y000000D01*
X-016039Y000500D02*
X016040Y000000D01*
X-016039Y000500D02*
X016039Y000000D01*
X-016039Y000500D02*
X016039Y000000D01*
X-016039Y000500D02*
X016039Y000000D01*
X-016039Y000500D02*
X016039Y000000D01*
X-016039Y000500D02*
X016039Y000000D01*
X-016039Y000500D02*
X016039Y000000D01*
X-016039Y000500D02*
X016039Y000000D01*
X-016039Y000500D02*
X016039Y000000D01*
X-016039Y000500D02*
X016039Y000000D01*
X-016039Y000500D02*
X016039Y000000D01*
X-016039Y000500D02*
X016039Y000000D01*
X-016039Y000500D02*
X016040Y000000D01*
X-016022Y-023018D02*
X000000Y023039D01*
X000500Y-023039D02*
X000000Y023039D01*
X000500Y-023039D02*
X000000Y023039D01*
X000500Y-023039D02*
X000000Y023039D01*
X000500Y-023039D02*
X000000Y023039D01*
X000500Y-023039D02*
X000000Y023039D01*
X000500Y-023040D02*
X000000Y023040D01*
X000500Y-023040D02*
X000000Y023039D01*
X000500Y-023039D02*
X000000Y023039D01*
X000500Y-023039D02*
X000000Y023039D01*
X000500Y-023039D02*
X000000Y023039D01*
X000500Y-023039D02*
X000000Y023039D01*
X000500Y-023039D02*
X000000Y023039D01*
X000500Y-023039D02*
X000000Y023039D01*
X000500Y-023039D02*
X000000Y023039D01*
X000500Y-023039D02*
X000000Y023039D01*
X000500Y-023039D02*
X000000Y023039D01*
X000500Y-023040D02*
X000000Y023040D01*
X000500Y-023040D02*
X000000Y023039D01*
X000500Y-023039D02*
X000000Y023039D01*
X000500Y-023039D02*
X000000Y023039D01*
X000500Y-023039D02*
X000000Y023039D01*
X000500Y-023039D02*
X000000Y023039D01*
X000500Y-023039D02*
X000000Y023039D01*
X000500Y-023039D02*
X000000Y023039D01*
X000500Y-023039D02*
X000000Y023039D01*
X000500Y-023039D02*
X000000Y023039D01*
X000500Y-023039D02*
X000000Y023039D01*
X000500Y-023039D02*
X000000Y023039D01*
X000500Y-023040D02*
X000000Y023040D01*
X000500Y-023040D02*
X000000Y023039D01*
X000500Y-023039D02*
X000000Y023039D01*
X000500Y-023039D02*
X000000Y023039D01*
X-061018Y091003D02*
X-000004Y-023039D01*
X016040Y-000003*
X000004Y023039*
X000000Y000000D02*
X-016040Y000003D01*
X-000004Y-023020D02*
X016040Y-000000D01*
X-016039Y000499D02*
X016039Y000000D01*
X-016039Y000500D02*
X016039Y000000D01*
X-016039Y000500D02*
X016039Y000000D01*
X-016039Y000500D02*
X016039Y000000D01*
X-016039Y000500D02*
X016039Y000000D01*
X-016039Y000500D02*
X016039Y000000D01*
X-016039Y000500D02*
X016039Y000000D01*
X-016039Y000500D02*
X016039Y000000D01*
X-016039Y000500D02*
X016039Y000000D01*
X-016039Y000500D02*
X016039Y000000D01*
X-016039Y000500D02*
X016039Y000000D01*
X-016039Y000500D02*
X016040Y000000D01*
X-016039Y000500D02*
X016039Y000000D01*
X-016039Y000500D02*
X016039Y000000D01*
X-016039Y000500D02*
X016039Y000000D01*
X-016039Y000500D02*
X016039Y000000D01*
X-016039Y000500D02*
X016039Y000000D01*
X-016039Y000500D02*
X016039Y000000D01*
X-016039Y000500D02*
X016039Y000000D01*
X-016039Y000500D02*
X016039Y000000D01*
X-016039Y000500D02*
X016039Y000000D01*
X-016039Y000500D02*
X016039Y000000D01*
X-016039Y000500D02*
X016040Y000000D01*
X-016039Y000500D02*
X016039Y000000D01*
X-016039Y000500D02*
X016039Y000000D01*
X-016039Y000500D02*
X016039Y000000D01*
X-016039Y000500D02*
X016039Y000000D01*
X-016039Y000500D02*
X016039Y000000D01*
X-016039Y000500D02*
X016039Y000000D01*
X-016039Y000500D02*
X016039Y000000D01*
X-016039Y000500D02*
X016039Y000000D01*
X-016039Y000500D02*
X016039Y000000D01*
X-016039Y000500D02*
X016039Y000000D01*
X-016039Y000500D02*
X016040Y000000D01*
X-016040Y000500D02*
X016040Y000000D01*
X-016039Y000500D02*
X016039Y000000D01*
X-016039Y000500D02*
X016039Y000000D01*
X-016039Y000500D02*
X016039Y000000D01*
X-016039Y000500D02*
X016039Y000000D01*
X-016039Y000500D02*
X016039Y000000D01*
X-016039Y000500D02*
X016039Y000000D01*
X-016039Y000500D02*
X016039Y000000D01*
X-016039Y000500D02*
X016039Y000000D01*
X-016039Y000500D02*
X016039Y000000D01*
X-016039Y000500D02*
X016039Y000000D01*
X-016039Y000500D02*
X016040Y000000D01*
X-016022Y-023018D02*
X000000Y023039D01*
X000500Y-023039D02*
X000000Y023039D01*
X000500Y-023039D02*
X000000Y023039D01*
X000500Y-023039D02*
X000000Y023039D01*
X000500Y-023039D02*
X000000Y023039D01*
X000500Y-023039D02*
X000000Y023039D01*
X000500Y-023039D02*
X000000Y023039D01*
X000500Y-023040D02*
X000000Y023040D01*
X000500Y-023040D02*
X000000Y023039D01*
X000500Y-023039D02*
X000000Y023039D01*
X000500Y-023039D02*
X000000Y023039D01*
X000500Y-023039D02*
X000000Y023039D01*
X000500Y-023039D02*
X000000Y023039D01*
X000500Y-023039D02*
X000000Y023039D01*
X000500Y-023039D02*
X000000Y023039D01*
X000500Y-023039D02*
X000000Y023039D01*
X000500Y-023039D02*
X000000Y023039D01*
X000500Y-023039D02*
X000000Y023039D01*
X000500Y-023040D02*
X000000Y023040D01*
X000500Y-023040D02*
X000000Y023039D01*
X000500Y-023039D02*
X000000Y023039D01*
X000500Y-023039D02*
X000000Y023039D01*
X000500Y-023039D02*
X000000Y023039D01*
X000500Y-023039D02*
X000000Y023039D01*
X000500Y-023039D02*
X000000Y023039D01*
X000500Y-023039D02*
X000000Y023039D01*
X000500Y-023039D02*
X000000Y023039D01*
X000500Y-023039D02*
X000000Y023039D01*
X000500Y-023039D02*
X000000Y023039D01*
X000500Y-023039D02*
X000000Y023039D01*
X000500Y-023040D02*
X000000Y023040D01*
X000500Y-023040D02*
X000000Y023039D01*
X000500Y-023039D02*
X000000Y023039D01*
X-016018Y-090996D02*
X-000004Y-023040D01*
X016040Y-000003*
X000004Y023039*
X000000Y000000D02*
X-016040Y000003D01*
X-000004Y-023020D02*
X016040Y-000000D01*
X-016039Y000499D02*
X016039Y000000D01*
X-016039Y000500D02*
X016039Y000000D01*
X-016039Y000500D02*
X016039Y000000D01*
X-016039Y000500D02*
X016039Y000000D01*
X-016039Y000500D02*
X016039Y000000D01*
X-016039Y000500D02*
X016039Y000000D01*
X-016039Y000500D02*
X016039Y000000D01*
X-016039Y000500D02*
X016039Y000000D01*
X-016039Y000500D02*
X016039Y000000D01*
X-016039Y000500D02*
X016039Y000000D01*
X-016039Y000500D02*
X016039Y000000D01*
X-016039Y000500D02*
X016040Y000000D01*
X-016039Y000500D02*
X016039Y000000D01*
X-016039Y000500D02*
X016039Y000000D01*
X-016039Y000500D02*
X016039Y000000D01*
X-016039Y000500D02*
X016039Y000000D01*
X-016039Y000500D02*
X016039Y000000D01*
X-016039Y000500D02*
X016039Y000000D01*
X-016039Y000500D02*
X016039Y000000D01*
X-016039Y000500D02*
X016039Y000000D01*
X-016039Y000500D02*
X016039Y000000D01*
X-016039Y000500D02*
X016039Y000000D01*
X-016039Y000500D02*
X016040Y000000D01*
X-016039Y000500D02*
X016039Y000000D01*
X-016039Y000500D02*
X016039Y000000D01*
X-016039Y000500D02*
X016039Y000000D01*
X-016039Y000500D02*
X016039Y000000D01*
X-016039Y000500D02*
X016039Y000000D01*
X-016039Y000500D02*
X016039Y000000D01*
X-016039Y000500D02*
X016039Y000000D01*
X-016039Y000500D02*
X016039Y000000D01*
X-016039Y000500D02*
X016039Y000000D01*
X-016039Y000500D02*
X016039Y000000D01*
X-016039Y000500D02*
X016040Y000000D01*
X-016040Y000500D02*
X016040Y000000D01*
X-016039Y000500D02*
X016039Y000000D01*
X-016039Y000500D02*
X016039Y000000D01*
X-016039Y000500D02*
X016039Y000000D01*
X-016039Y000500D02*
X016039Y000000D01*
X-016039Y000500D02*
X016039Y000000D01*
X-016039Y000500D02*
X016039Y000000D01*
X-016039Y000500D02*
X016039Y000000D01*
X-016039Y000500D02*
X016039Y000000D01*
X-016039Y000500D02*
X016039Y000000D01*
X-016039Y000500D02*
X016039Y000000D01*
X-016039Y000500D02*
X016040Y000000D01*
X-016022Y-023018D02*
X000000Y023039D01*
X000500Y-023039D02*
X000000Y023039D01*
X000500Y-023039D02*
X000000Y023039D01*
X000500Y-023039D02*
X000000Y023039D01*
X000500Y-023039D02*
X000000Y023039D01*
X000500Y-023039D02*
X000000Y023039D01*
X000500Y-023040D02*
X000000Y023040D01*
X000500Y-023040D02*
X000000Y023039D01*
X000500Y-023039D02*
X000000Y023039D01*
X000500Y-023039D02*
X000000Y023039D01*
X000500Y-023039D02*
X000000Y023039D01*
X000500Y-023039D02*
X000000Y023039D01*
X000500Y-023039D02*
X000000Y023039D01*
X000500Y-023039D02*
X000000Y023039D01*
X000500Y-023039D02*
X000000Y023039D01*
X000500Y-023039D02*
X000000Y023039D01*
X000500Y-023039D02*
X000000Y023039D01*
X000500Y-023040D02*
X000000Y023040D01*
X000500Y-023040D02*
X000000Y023039D01*
X000500Y-023039D02*
X000000Y023039D01*
X000500Y-023039D02*
X000000Y023039D01*
X000500Y-023039D02*
X000000Y023039D01*
X000500Y-023039D02*
X000000Y023039D01*
X000500Y-023039D02*
X000000Y023039D01*
X000500Y-023039D02*
X000000Y023039D01*
X000500Y-023039D02*
X000000Y023039D01*
X000500Y-023039D02*
X000000Y023039D01*
X000500Y-023039D02*
X000000Y023039D01*
X000500Y-023039D02*
X000000Y023039D01*
X000500Y-023040D02*
X000000Y023040D01*
X000500Y-023040D02*
X000000Y023039D01*
X000500Y-023039D02*
X000000Y023039D01*
X000500Y-023039D02*
X000000Y023039D01*
X028982Y231003D02*
X-000004Y-023039D01*
X016040Y-000003*
X000004Y023039*
X000000Y000000D02*
X-016040Y000003D01*
X-000004Y-023020D02*
X016040Y-000000D01*
X-016039Y000499D02*
X016039Y000000D01*
X-016039Y000500D02*
X016039Y000000D01*
X-016039Y000500D02*
X016039Y000000D01*
X-016039Y000500D02*
X016039Y000000D01*
X-016039Y000500D02*
X016039Y000000D01*
X-016039Y000500D02*
X016039Y000000D01*
X-016039Y000500D02*
X016039Y000000D01*
X-016039Y000500D02*
X016039Y000000D01*
X-016039Y000500D02*
X016039Y000000D01*
X-016039Y000500D02*
X016039Y000000D01*
X-016039Y000500D02*
X016040Y000000D01*
X-016039Y000500D02*
X016039Y000000D01*
X-016039Y000500D02*
X016039Y000000D01*
X-016039Y000500D02*
X016039Y000000D01*
X-016039Y000500D02*
X016039Y000000D01*
X-016039Y000500D02*
X016039Y000000D01*
X-016039Y000500D02*
X016039Y000000D01*
X-016039Y000500D02*
X016039Y000000D01*
X-016039Y000500D02*
X016039Y000000D01*
X-016039Y000500D02*
X016039Y000000D01*
X-016039Y000500D02*
X016039Y000000D01*
X-016039Y000500D02*
X016039Y000000D01*
X-016039Y000500D02*
X016040Y000000D01*
X-016039Y000500D02*
X016039Y000000D01*
X-016039Y000500D02*
X016039Y000000D01*
X-016039Y000500D02*
X016039Y000000D01*
X-016039Y000500D02*
X016039Y000000D01*
X-016039Y000500D02*
X016039Y000000D01*
X-016039Y000500D02*
X016039Y000000D01*
X-016039Y000500D02*
X016039Y000000D01*
X-016039Y000500D02*
X016039Y000000D01*
X-016039Y000500D02*
X016039Y000000D01*
X-016039Y000500D02*
X016039Y000000D01*
X-016039Y000500D02*
X016040Y000000D01*
X-016039Y000500D02*
X016039Y000000D01*
X-016039Y000500D02*
X016039Y000000D01*
X-016039Y000500D02*
X016039Y000000D01*
X-016039Y000500D02*
X016039Y000000D01*
X-016039Y000500D02*
X016039Y000000D01*
X-016039Y000500D02*
X016039Y000000D01*
X-016039Y000500D02*
X016039Y000000D01*
X-016039Y000500D02*
X016039Y000000D01*
X-016039Y000500D02*
X016039Y000000D01*
X-016039Y000500D02*
X016039Y000000D01*
X-016039Y000500D02*
X016039Y000000D01*
X-016039Y000500D02*
X016040Y000000D01*
X-016022Y-023018D02*
X000000Y023039D01*
X000500Y-023039D02*
X000000Y023039D01*
X000500Y-023039D02*
X000000Y023039D01*
X000500Y-023039D02*
X000000Y023039D01*
X000500Y-023039D02*
X000000Y023039D01*
X000500Y-023039D02*
X000000Y023039D01*
X000500Y-023039D02*
X000000Y023039D01*
X000500Y-023040D02*
X000000Y023040D01*
X000500Y-023040D02*
X000000Y023039D01*
X000500Y-023039D02*
X000000Y023039D01*
X000500Y-023039D02*
X000000Y023039D01*
X000500Y-023039D02*
X000000Y023039D01*
X000500Y-023039D02*
X000000Y023039D01*
X000500Y-023039D02*
X000000Y023039D01*
X000500Y-023039D02*
X000000Y023039D01*
X000500Y-023039D02*
X000000Y023039D01*
X000500Y-023039D02*
X000000Y023039D01*
X000500Y-023039D02*
X000000Y023039D01*
X000500Y-023040D02*
X000000Y023040D01*
X000500Y-023040D02*
X000000Y023039D01*
X000500Y-023039D02*
X000000Y023039D01*
X000500Y-023039D02*
X000000Y023039D01*
X000500Y-023039D02*
X000000Y023039D01*
X000500Y-023039D02*
X000000Y023039D01*
X000500Y-023039D02*
X000000Y023039D01*
X000500Y-023039D02*
X000000Y023039D01*
X000500Y-023039D02*
X000000Y023039D01*
X000500Y-023039D02*
X000000Y023039D01*
X000500Y-023039D02*
X000000Y023039D01*
X000500Y-023039D02*
X000000Y023039D01*
X000500Y-023040D02*
X000000Y023040D01*
X000500Y-023040D02*
X000000Y023039D01*
X000500Y-023039D02*
X000000Y023039D01*
X-016018Y-090996D02*
X-000004Y-023040D01*
X016040Y-000003*
X000004Y023039*
X000000Y000000D02*
X-016040Y000003D01*
X-000004Y-023020D02*
X016040Y-000000D01*
X-016039Y000499D02*
X016039Y000000D01*
X-016039Y000500D02*
X016039Y000000D01*
X-016039Y000500D02*
X016039Y000000D01*
X-016039Y000500D02*
X016039Y000000D01*
X-016039Y000500D02*
X016039Y000000D01*
X-016039Y000500D02*
X016039Y000000D01*
X-016039Y000500D02*
X016039Y000000D01*
X-016039Y000500D02*
X016039Y000000D01*
X-016039Y000500D02*
X016039Y000000D01*
X-016039Y000500D02*
X016039Y000000D01*
X-016039Y000500D02*
X016040Y000000D01*
X-016039Y000500D02*
X016039Y000000D01*
X-016039Y000500D02*
X016039Y000000D01*
X-016039Y000500D02*
X016039Y000000D01*
X-016039Y000500D02*
X016039Y000000D01*
X-016039Y000500D02*
X016039Y000000D01*
X-016039Y000500D02*
X016039Y000000D01*
X-016039Y000500D02*
X016039Y000000D01*
X-016039Y000500D02*
X016039Y000000D01*
X-016039Y000500D02*
X016039Y000000D01*
X-016039Y000500D02*
X016039Y000000D01*
X-016039Y000500D02*
X016039Y000000D01*
X-016039Y000500D02*
X016040Y000000D01*
X-016039Y000500D02*
X016039Y000000D01*
X-016039Y000500D02*
X016039Y000000D01*
X-016039Y000500D02*
X016039Y000000D01*
X-016039Y000500D02*
X016039Y000000D01*
X-016039Y000500D02*
X016039Y000000D01*
X-016039Y000500D02*
X016039Y000000D01*
X-016039Y000500D02*
X016039Y000000D01*
X-016039Y000500D02*
X016039Y000000D01*
X-016039Y000500D02*
X016039Y000000D01*
X-016039Y000500D02*
X016039Y000000D01*
X-016039Y000500D02*
X016040Y000000D01*
X-016039Y000500D02*
X016039Y000000D01*
X-016039Y000500D02*
X016039Y000000D01*
X-016039Y000500D02*
X016039Y000000D01*
X-016039Y000500D02*
X016039Y000000D01*
X-016039Y000500D02*
X016039Y000000D01*
X-016039Y000500D02*
X016039Y000000D01*
X-016039Y000500D02*
X016039Y000000D01*
X-016039Y000500D02*
X016039Y000000D01*
X-016039Y000500D02*
X016039Y000000D01*
X-016039Y000500D02*
X016039Y000000D01*
X-016039Y000500D02*
X016039Y000000D01*
X-016039Y000500D02*
X016040Y000000D01*
X-016022Y-023018D02*
X000000Y023039D01*
X000500Y-023039D02*
X000000Y023039D01*
X000500Y-023039D02*
X000000Y023039D01*
X000500Y-023039D02*
X000000Y023039D01*
X000500Y-023039D02*
X000000Y023039D01*
X000500Y-023039D02*
X000000Y023039D01*
X000500Y-023040D02*
X000000Y023040D01*
X000500Y-023040D02*
X000000Y023039D01*
X000500Y-023039D02*
X000000Y023039D01*
X000500Y-023039D02*
X000000Y023039D01*
X000500Y-023039D02*
X000000Y023039D01*
X000500Y-023039D02*
X000000Y023039D01*
X000500Y-023039D02*
X000000Y023039D01*
X000500Y-023039D02*
X000000Y023039D01*
X000500Y-023039D02*
X000000Y023039D01*
X000500Y-023039D02*
X000000Y023039D01*
X000500Y-023039D02*
X000000Y023039D01*
X000500Y-023040D02*
X000000Y023040D01*
X000500Y-023040D02*
X000000Y023039D01*
X000500Y-023039D02*
X000000Y023039D01*
X000500Y-023039D02*
X000000Y023039D01*
X000500Y-023039D02*
X000000Y023039D01*
X000500Y-023039D02*
X000000Y023039D01*
X000500Y-023039D02*
X000000Y023039D01*
X000500Y-023039D02*
X000000Y023039D01*
X000500Y-023039D02*
X000000Y023039D01*
X000500Y-023039D02*
X000000Y023039D01*
X000500Y-023039D02*
X000000Y023039D01*
X000500Y-023039D02*
X000000Y023039D01*
X000500Y-023040D02*
X000000Y023040D01*
X000500Y-023040D02*
X000000Y023039D01*
X000500Y-023039D02*
X000000Y023039D01*
X000500Y-023039D02*
X000000Y023039D01*
X-061018Y091003D02*
X-000004Y-023039D01*
X016040Y-000003*
X000004Y023039*
X000000Y000000D02*
X-016040Y000003D01*
X-000004Y-023020D02*
X016040Y-000000D01*
X-016039Y000499D02*
X016039Y000000D01*
X-016039Y000500D02*
X016039Y000000D01*
X-016039Y000500D02*
X016039Y000000D01*
X-016039Y000500D02*
X016039Y000000D01*
X-016039Y000500D02*
X016039Y000000D01*
X-016039Y000500D02*
X016039Y000000D01*
X-016039Y000500D02*
X016039Y000000D01*
X-016039Y000500D02*
X016039Y000000D01*
X-016039Y000500D02*
X016039Y000000D01*
X-016039Y000500D02*
X016039Y000000D01*
X-016039Y000500D02*
X016039Y000000D01*
X-016039Y000500D02*
X016040Y000000D01*
X-016039Y000500D02*
X016039Y000000D01*
X-016039Y000500D02*
X016039Y000000D01*
X-016039Y000500D02*
X016039Y000000D01*
X-016039Y000500D02*
X016039Y000000D01*
X-016039Y000500D02*
X016039Y000000D01*
X-016039Y000500D02*
X016039Y000000D01*
X-016039Y000500D02*
X016039Y000000D01*
X-016039Y000500D02*
X016039Y000000D01*
X-016039Y000500D02*
X016039Y000000D01*
X-016039Y000500D02*
X016039Y000000D01*
X-016039Y000500D02*
X016040Y000000D01*
X-016039Y000500D02*
X016039Y000000D01*
X-016039Y000500D02*
X016039Y000000D01*
X-016039Y000500D02*
X016039Y000000D01*
X-016039Y000500D02*
X016039Y000000D01*
X-016039Y000500D02*
X016039Y000000D01*
X-016039Y000500D02*
X016039Y000000D01*
X-016039Y000500D02*
X016039Y000000D01*
X-016039Y000500D02*
X016039Y000000D01*
X-016039Y000500D02*
X016039Y000000D01*
X-016039Y000500D02*
X016039Y000000D01*
X-016039Y000500D02*
X016040Y000000D01*
X-016040Y000500D02*
X016040Y000000D01*
X-016039Y000500D02*
X016039Y000000D01*
X-016039Y000500D02*
X016039Y000000D01*
X-016039Y000500D02*
X016039Y000000D01*
X-016039Y000500D02*
X016039Y000000D01*
X-016039Y000500D02*
X016039Y000000D01*
X-016039Y000500D02*
X016039Y000000D01*
X-016039Y000500D02*
X016039Y000000D01*
X-016039Y000500D02*
X016039Y000000D01*
X-016039Y000500D02*
X016039Y000000D01*
X-016039Y000500D02*
X016039Y000000D01*
X-016039Y000500D02*
X016040Y000000D01*
X-016022Y-023018D02*
X000000Y023039D01*
X000500Y-023039D02*
X000000Y023039D01*
X000500Y-023039D02*
X000000Y023039D01*
X000500Y-023039D02*
X000000Y023039D01*
X000500Y-023039D02*
X000000Y023039D01*
X000500Y-023039D02*
X000000Y023039D01*
X000500Y-023039D02*
X000000Y023039D01*
X000500Y-023040D02*
X000000Y023040D01*
X000500Y-023040D02*
X000000Y023039D01*
X000500Y-023039D02*
X000000Y023039D01*
X000500Y-023039D02*
X000000Y023039D01*
X000500Y-023039D02*
X000000Y023039D01*
X000500Y-023039D02*
X000000Y023039D01*
X000500Y-023039D02*
X000000Y023039D01*
X000500Y-023039D02*
X000000Y023039D01*
X000500Y-023039D02*
X000000Y023039D01*
X000500Y-023039D02*
X000000Y023039D01*
X000500Y-023039D02*
X000000Y023039D01*
X000500Y-023040D02*
X000000Y023040D01*
X000500Y-023040D02*
X000000Y023039D01*
X000500Y-023039D02*
X000000Y023039D01*
X000500Y-023039D02*
X000000Y023039D01*
X000500Y-023039D02*
X000000Y023039D01*
X000500Y-023039D02*
X000000Y023039D01*
X000500Y-023039D02*
X000000Y023039D01*
X000500Y-023039D02*
X000000Y023039D01*
X000500Y-023039D02*
X000000Y023039D01*
X000500Y-023039D02*
X000000Y023039D01*
X000500Y-023039D02*
X000000Y023039D01*
X000500Y-023039D02*
X000000Y023039D01*
X000500Y-023040D02*
X000000Y023040D01*
X000500Y-023040D02*
X000000Y023039D01*
X000500Y-023039D02*
X000000Y023039D01*
X-016018Y-090996D02*
X-000004Y-023040D01*
X016040Y-000003*
X000004Y023039*
X000000Y000000D02*
X-016040Y000003D01*
X-000004Y-023020D02*
X016040Y-000000D01*
X-016039Y000499D02*
X016039Y000000D01*
X-016039Y000500D02*
X016039Y000000D01*
X-016039Y000500D02*
X016039Y000000D01*
X-016039Y000500D02*
X016039Y000000D01*
X-016039Y000500D02*
X016039Y000000D01*
X-016039Y000500D02*
X016039Y000000D01*
X-016039Y000500D02*
X016039Y000000D01*
X-016039Y000500D02*
X016039Y000000D01*
X-016039Y000500D02*
X016039Y000000D01*
X-016039Y000500D02*
X016039Y000000D01*
X-016039Y000500D02*
X016039Y000000D01*
X-016039Y000500D02*
X016040Y000000D01*
X-016039Y000500D02*
X016039Y000000D01*
X-016039Y000500D02*
X016039Y000000D01*
X-016039Y000500D02*
X016039Y000000D01*
X-016039Y000500D02*
X016039Y000000D01*
X-016039Y000500D02*
X016039Y000000D01*
X-016039Y000500D02*
X016039Y000000D01*
X-016039Y000500D02*
X016039Y000000D01*
X-016039Y000500D02*
X016039Y000000D01*
X-016039Y000500D02*
X016039Y000000D01*
X-016039Y000500D02*
X016039Y000000D01*
X-016039Y000500D02*
X016040Y000000D01*
X-016039Y000500D02*
X016039Y000000D01*
X-016039Y000500D02*
X016039Y000000D01*
X-016039Y000500D02*
X016039Y000000D01*
X-016039Y000500D02*
X016039Y000000D01*
X-016039Y000500D02*
X016039Y000000D01*
X-016039Y000500D02*
X016039Y000000D01*
X-016039Y000500D02*
X016039Y000000D01*
X-016039Y000500D02*
X016039Y000000D01*
X-016039Y000500D02*
X016039Y000000D01*
X-016039Y000500D02*
X016039Y000000D01*
X-016039Y000500D02*
X016040Y000000D01*
X-016040Y000500D02*
X016040Y000000D01*
X-016039Y000500D02*
X016039Y000000D01*
X-016039Y000500D02*
X016039Y000000D01*
X-016039Y000500D02*
X016039Y000000D01*
X-016039Y000500D02*
X016039Y000000D01*
X-016039Y000500D02*
X016039Y000000D01*
X-016039Y000500D02*
X016039Y000000D01*
X-016039Y000500D02*
X016039Y000000D01*
X-016039Y000500D02*
X016039Y000000D01*
X-016039Y000500D02*
X016039Y000000D01*
X-016039Y000500D02*
X016039Y000000D01*
X-016039Y000500D02*
X016040Y000000D01*
X-016022Y-023018D02*
X000000Y023039D01*
X000500Y-023039D02*
X000000Y023039D01*
X000500Y-023039D02*
X000000Y023039D01*
X000500Y-023039D02*
X000000Y023039D01*
X000500Y-023039D02*
X000000Y023039D01*
X000500Y-023039D02*
X000000Y023039D01*
X000500Y-023040D02*
X000000Y023040D01*
X000500Y-023040D02*
X000000Y023039D01*
X000500Y-023039D02*
X000000Y023039D01*
X000500Y-023039D02*
X000000Y023039D01*
X000500Y-023039D02*
X000000Y023039D01*
X000500Y-023039D02*
X000000Y023039D01*
X000500Y-023039D02*
X000000Y023039D01*
X000500Y-023039D02*
X000000Y023039D01*
X000500Y-023039D02*
X000000Y023039D01*
X000500Y-023039D02*
X000000Y023039D01*
X000500Y-023039D02*
X000000Y023039D01*
X000500Y-023040D02*
X000000Y023040D01*
X000500Y-023040D02*
X000000Y023039D01*
X000500Y-023039D02*
X000000Y023039D01*
X000500Y-023039D02*
X000000Y023039D01*
X000500Y-023039D02*
X000000Y023039D01*
X000500Y-023039D02*
X000000Y023039D01*
X000500Y-023039D02*
X000000Y023039D01*
X000500Y-023039D02*
X000000Y023039D01*
X000500Y-023039D02*
X000000Y023039D01*
X000500Y-023039D02*
X000000Y023039D01*
X000500Y-023039D02*
X000000Y023039D01*
X000500Y-023039D02*
X000000Y023039D01*
X000500Y-023040D02*
X000000Y023040D01*
X000500Y-023040D02*
X000000Y023039D01*
X000500Y-023039D02*
X000000Y023039D01*
X000500Y-023039D02*
X000000Y023039D01*
X028982Y231003D02*
X-000004Y-023039D01*
X016040Y-000003*
X000004Y023039*
X000000Y000000D02*
X-016040Y000003D01*
X-000004Y-023020D02*
X016040Y-000000D01*
X-016039Y000499D02*
X016039Y000000D01*
X-016039Y000500D02*
X016039Y000000D01*
X-016039Y000500D02*
X016039Y000000D01*
X-016039Y000500D02*
X016039Y000000D01*
X-016039Y000500D02*
X016039Y000000D01*
X-016039Y000500D02*
X016039Y000000D01*
X-016039Y000500D02*
X016039Y000000D01*
X-016039Y000500D02*
X016039Y000000D01*
X-016039Y000500D02*
X016039Y000000D01*
X-016039Y000500D02*
X016039Y000000D01*
X-016039Y000500D02*
X016040Y000000D01*
X-016039Y000500D02*
X016039Y000000D01*
X-016039Y000500D02*
X016039Y000000D01*
X-016039Y000500D02*
X016039Y000000D01*
X-016039Y000500D02*
X016039Y000000D01*
X-016039Y000500D02*
X016039Y000000D01*
X-016039Y000500D02*
X016039Y000000D01*
X-016039Y000500D02*
X016039Y000000D01*
X-016039Y000500D02*
X016039Y000000D01*
X-016039Y000500D02*
X016039Y000000D01*
X-016039Y000500D02*
X016039Y000000D01*
X-016039Y000500D02*
X016039Y000000D01*
X-016039Y000500D02*
X016040Y000000D01*
X-016039Y000500D02*
X016039Y000000D01*
X-016039Y000500D02*
X016039Y000000D01*
X-016039Y000500D02*
X016039Y000000D01*
X-016039Y000500D02*
X016039Y000000D01*
X-016039Y000500D02*
X016039Y000000D01*
X-016039Y000500D02*
X016039Y000000D01*
X-016039Y000500D02*
X016039Y000000D01*
X-016039Y000500D02*
X016039Y000000D01*
X-016039Y000500D02*
X016039Y000000D01*
X-016039Y000500D02*
X016039Y000000D01*
X-016039Y000500D02*
X016040Y000000D01*
X-016039Y000500D02*
X016039Y000000D01*
X-016039Y000500D02*
X016039Y000000D01*
X-016039Y000500D02*
X016039Y000000D01*
X-016039Y000500D02*
X016039Y000000D01*
X-016039Y000500D02*
X016039Y000000D01*
X-016039Y000500D02*
X016039Y000000D01*
X-016039Y000500D02*
X016039Y000000D01*
X-016039Y000500D02*
X016039Y000000D01*
X-016039Y000500D02*
X016039Y000000D01*
X-016039Y000500D02*
X016039Y000000D01*
X-016039Y000500D02*
X016039Y000000D01*
X-016039Y000500D02*
X016040Y000000D01*
X-016022Y-023018D02*
X000000Y023039D01*
X000500Y-023039D02*
X000000Y023039D01*
X000500Y-023039D02*
X000000Y023039D01*
X000500Y-023039D02*
X000000Y023039D01*
X000500Y-023039D02*
X000000Y023039D01*
X000500Y-023039D02*
X000000Y023039D01*
X000500Y-023039D02*
X000000Y023039D01*
X000500Y-023040D02*
X000000Y023040D01*
X000500Y-023040D02*
X000000Y023039D01*
X000500Y-023039D02*
X000000Y023039D01*
X000500Y-023039D02*
X000000Y023039D01*
X000500Y-023039D02*
X000000Y023039D01*
X000500Y-023039D02*
X000000Y023039D01*
X000500Y-023039D02*
X000000Y023039D01*
X000500Y-023039D02*
X000000Y023039D01*
X000500Y-023039D02*
X000000Y023039D01*
X000500Y-023039D02*
X000000Y023039D01*
X000500Y-023039D02*
X000000Y023039D01*
X000500Y-023040D02*
X000000Y023040D01*
X000500Y-023040D02*
X000000Y023039D01*
X000500Y-023039D02*
X000000Y023039D01*
X000500Y-023039D02*
X000000Y023039D01*
X000500Y-023039D02*
X000000Y023039D01*
X000500Y-023039D02*
X000000Y023039D01*
X000500Y-023039D02*
X000000Y023039D01*
X000500Y-023039D02*
X000000Y023039D01*
X000500Y-023039D02*
X000000Y023039D01*
X000500Y-023039D02*
X000000Y023039D01*
X000500Y-023039D02*
X000000Y023039D01*
X000500Y-023039D02*
X000000Y023039D01*
X000500Y-023040D02*
X000000Y023040D01*
X000500Y-023040D02*
X000000Y023039D01*
X000500Y-023039D02*
X000000Y023039D01*
X-016018Y-090996D02*
X-000004Y-023040D01*
X016040Y-000003*
X000004Y023039*
X000000Y000000D02*
X-016040Y000003D01*
X-000004Y-023020D02*
X016040Y-000000D01*
X-016039Y000499D02*
X016039Y000000D01*
X-016039Y000500D02*
X016039Y000000D01*
X-016039Y000500D02*
X016039Y000000D01*
X-016039Y000500D02*
X016039Y000000D01*
X-016039Y000500D02*
X016039Y000000D01*
X-016039Y000500D02*
X016039Y000000D01*
X-016039Y000500D02*
X016039Y000000D01*
X-016039Y000500D02*
X016039Y000000D01*
X-016039Y000500D02*
X016039Y000000D01*
X-016039Y000500D02*
X016039Y000000D01*
X-016039Y000500D02*
X016040Y000000D01*
X-016039Y000500D02*
X016039Y000000D01*
X-016039Y000500D02*
X016039Y000000D01*
X-016039Y000500D02*
X016039Y000000D01*
X-016039Y000500D02*
X016039Y000000D01*
X-016039Y000500D02*
X016039Y000000D01*
X-016039Y000500D02*
X016039Y000000D01*
X-016039Y000500D02*
X016039Y000000D01*
X-016039Y000500D02*
X016039Y000000D01*
X-016039Y000500D02*
X016039Y000000D01*
X-016039Y000500D02*
X016039Y000000D01*
X-016039Y000500D02*
X016039Y000000D01*
X-016039Y000500D02*
X016040Y000000D01*
X-016039Y000500D02*
X016039Y000000D01*
X-016039Y000500D02*
X016039Y000000D01*
X-016039Y000500D02*
X016039Y000000D01*
X-016039Y000500D02*
X016039Y000000D01*
X-016039Y000500D02*
X016039Y000000D01*
X-016039Y000500D02*
X016039Y000000D01*
X-016039Y000500D02*
X016039Y000000D01*
X-016039Y000500D02*
X016039Y000000D01*
X-016039Y000500D02*
X016039Y000000D01*
X-016039Y000500D02*
X016039Y000000D01*
X-016039Y000500D02*
X016040Y000000D01*
X-016039Y000500D02*
X016039Y000000D01*
X-016039Y000500D02*
X016039Y000000D01*
X-016039Y000500D02*
X016039Y000000D01*
X-016039Y000500D02*
X016039Y000000D01*
X-016039Y000500D02*
X016039Y000000D01*
X-016039Y000500D02*
X016039Y000000D01*
X-016039Y000500D02*
X016039Y000000D01*
X-016039Y000500D02*
X016039Y000000D01*
X-016039Y000500D02*
X016039Y000000D01*
X-016039Y000500D02*
X016039Y000000D01*
X-016039Y000500D02*
X016039Y000000D01*
X-016039Y000500D02*
X016040Y000000D01*
X-016022Y-023018D02*
X000000Y023039D01*
X000500Y-023039D02*
X000000Y023039D01*
X000500Y-023039D02*
X000000Y023039D01*
X000500Y-023039D02*
X000000Y023039D01*
X000500Y-023039D02*
X000000Y023039D01*
X000500Y-023039D02*
X000000Y023039D01*
X000500Y-023040D02*
X000000Y023040D01*
X000500Y-023040D02*
X000000Y023039D01*
X000500Y-023039D02*
X000000Y023039D01*
X000500Y-023039D02*
X000000Y023039D01*
X000500Y-023039D02*
X000000Y023039D01*
X000500Y-023039D02*
X000000Y023039D01*
X000500Y-023039D02*
X000000Y023039D01*
X000500Y-023039D02*
X000000Y023039D01*
X000500Y-023039D02*
X000000Y023039D01*
X000500Y-023039D02*
X000000Y023039D01*
X000500Y-023039D02*
X000000Y023039D01*
X000500Y-023040D02*
X000000Y023040D01*
X000500Y-023040D02*
X000000Y023039D01*
X000500Y-023039D02*
X000000Y023039D01*
X000500Y-023039D02*
X000000Y023039D01*
X000500Y-023039D02*
X000000Y023039D01*
X000500Y-023039D02*
X000000Y023039D01*
X000500Y-023039D02*
X000000Y023039D01*
X000500Y-023039D02*
X000000Y023039D01*
X000500Y-023039D02*
X000000Y023039D01*
X000500Y-023039D02*
X000000Y023039D01*
X000500Y-023039D02*
X000000Y023039D01*
X000500Y-023039D02*
X000000Y023039D01*
X000500Y-023040D02*
X000000Y023040D01*
X000500Y-023040D02*
X000000Y023039D01*
X000500Y-023039D02*
X000000Y023039D01*
X000500Y-023039D02*
X000000Y023039D01*
X-061018Y091003D02*
X-000004Y-023039D01*
X016040Y-000003*
X000004Y023039*
X000000Y000000D02*
X-016040Y000003D01*
X-000004Y-023020D02*
X016040Y-000000D01*
X-016039Y000499D02*
X016039Y000000D01*
X-016039Y000500D02*
X016039Y000000D01*
X-016039Y000500D02*
X016039Y000000D01*
X-016039Y000500D02*
X016039Y000000D01*
X-016039Y000500D02*
X016039Y000000D01*
X-016039Y000500D02*
X016039Y000000D01*
X-016039Y000500D02*
X016039Y000000D01*
X-016039Y000500D02*
X016039Y000000D01*
X-016039Y000500D02*
X016039Y000000D01*
X-016039Y000500D02*
X016039Y000000D01*
X-016039Y000500D02*
X016039Y000000D01*
X-016039Y000500D02*
X016040Y000000D01*
X-016039Y000500D02*
X016039Y000000D01*
X-016039Y000500D02*
X016039Y000000D01*
X-016039Y000500D02*
X016039Y000000D01*
X-016039Y000500D02*
X016039Y000000D01*
X-016039Y000500D02*
X016039Y000000D01*
X-016039Y000500D02*
X016039Y000000D01*
X-016039Y000500D02*
X016039Y000000D01*
X-016039Y000500D02*
X016039Y000000D01*
X-016039Y000500D02*
X016039Y000000D01*
X-016039Y000500D02*
X016039Y000000D01*
X-016039Y000500D02*
X016040Y000000D01*
X-016039Y000500D02*
X016039Y000000D01*
X-016039Y000500D02*
X016039Y000000D01*
X-016039Y000500D02*
X016039Y000000D01*
X-016039Y000500D02*
X016039Y000000D01*
X-016039Y000500D02*
X016039Y000000D01*
X-016039Y000500D02*
X016039Y000000D01*
X-016039Y000500D02*
X016039Y000000D01*
X-016039Y000500D02*
X016039Y000000D01*
X-016039Y000500D02*
X016039Y000000D01*
X-016039Y000500D02*
X016039Y000000D01*
X-016039Y000500D02*
X016040Y000000D01*
X-016040Y000500D02*
X016040Y000000D01*
X-016039Y000500D02*
X016039Y000000D01*
X-016039Y000500D02*
X016039Y000000D01*
X-016039Y000500D02*
X016039Y000000D01*
X-016039Y000500D02*
X016039Y000000D01*
X-016039Y000500D02*
X016039Y000000D01*
X-016039Y000500D02*
X016039Y000000D01*
X-016039Y000500D02*
X016039Y000000D01*
X-016039Y000500D02*
X016039Y000000D01*
X-016039Y000500D02*
X016039Y000000D01*
X-016039Y000500D02*
X016039Y000000D01*
X-016039Y000500D02*
X016040Y000000D01*
X-016022Y-023018D02*
X000000Y023039D01*
X000500Y-023039D02*
X000000Y023039D01*
X000500Y-023039D02*
X000000Y023039D01*
X000500Y-023039D02*
X000000Y023039D01*
X000500Y-023039D02*
X000000Y023039D01*
X000500Y-023039D02*
X000000Y023039D01*
X000500Y-023039D02*
X000000Y023039D01*
X000500Y-023040D02*
X000000Y023040D01*
X000500Y-023040D02*
X000000Y023039D01*
X000500Y-023039D02*
X000000Y023039D01*
X000500Y-023039D02*
X000000Y023039D01*
X000500Y-023039D02*
X000000Y023039D01*
X000500Y-023039D02*
X000000Y023039D01*
X000500Y-023039D02*
X000000Y023039D01*
X000500Y-023039D02*
X000000Y023039D01*
X000500Y-023039D02*
X000000Y023039D01*
X000500Y-023039D02*
X000000Y023039D01*
X000500Y-023039D02*
X000000Y023039D01*
X000500Y-023040D02*
X000000Y023040D01*
X000500Y-023040D02*
X000000Y023039D01*
X000500Y-023039D02*
X000000Y023039D01*
X000500Y-023039D02*
X000000Y023039D01*
X000500Y-023039D02*
X000000Y023039D01*
X000500Y-023039D02*
X000000Y023039D01*
X000500Y-023039D02*
X000000Y023039D01*
X000500Y-023039D02*
X000000Y023039D01*
X000500Y-023039D02*
X000000Y023039D01*
X000500Y-023039D02*
X000000Y023039D01*
X000500Y-023039D02*
X000000Y023039D01*
X000500Y-023039D02*
X000000Y023039D01*
X000500Y-023040D02*
X000000Y023040D01*
X000500Y-023040D02*
X000000Y023039D01*
X000500Y-023039D02*
X000000Y023039D01*
X-016018Y-090996D02*
X-000004Y-023040D01*
X016040Y-000003*
X000004Y023039*
X000000Y000000D02*
X-016040Y000003D01*
X-000004Y-023020D02*
X016040Y-000000D01*
X-016039Y000499D02*
X016039Y000000D01*
X-016039Y000500D02*
X016039Y000000D01*
X-016039Y000500D02*
X016039Y000000D01*
X-016039Y000500D02*
X016039Y000000D01*
X-016039Y000500D02*
X016039Y000000D01*
X-016039Y000500D02*
X016039Y000000D01*
X-016039Y000500D02*
X016039Y000000D01*
X-016039Y000500D02*
X016039Y000000D01*
X-016039Y000500D02*
X016039Y000000D01*
X-016039Y000500D02*
X016039Y000000D01*
X-016039Y000500D02*
X016039Y000000D01*
X-016039Y000500D02*
X016040Y000000D01*
X-016039Y000500D02*
X016039Y000000D01*
X-016039Y000500D02*
X016039Y000000D01*
X-016039Y000500D02*
X016039Y000000D01*
X-016039Y000500D02*
X016039Y000000D01*
X-016039Y000500D02*
X016039Y000000D01*
X-016039Y000500D02*
X016039Y000000D01*
X-016039Y000500D02*
X016039Y000000D01*
X-016039Y000500D02*
X016039Y000000D01*
X-016039Y000500D02*
X016039Y000000D01*
X-016039Y000500D02*
X016039Y000000D01*
X-016039Y000500D02*
X016040Y000000D01*
X-016039Y000500D02*
X016039Y000000D01*
X-016039Y000500D02*
X016039Y000000D01*
X-016039Y000500D02*
X016039Y000000D01*
X-016039Y000500D02*
X016039Y000000D01*
X-016039Y000500D02*
X016039Y000000D01*
X-016039Y000500D02*
X016039Y000000D01*
X-016039Y000500D02*
X016039Y000000D01*
X-016039Y000500D02*
X016039Y000000D01*
X-016039Y000500D02*
X016039Y000000D01*
X-016039Y000500D02*
X016039Y000000D01*
X-016039Y000500D02*
X016040Y000000D01*
X-016040Y000500D02*
X016040Y000000D01*
X-016039Y000500D02*
X016039Y000000D01*
X-016039Y000500D02*
X016039Y000000D01*
X-016039Y000500D02*
X016039Y000000D01*
X-016039Y000500D02*
X016039Y000000D01*
X-016039Y000500D02*
X016039Y000000D01*
X-016039Y000500D02*
X016039Y000000D01*
X-016039Y000500D02*
X016039Y000000D01*
X-016039Y000500D02*
X016039Y000000D01*
X-016039Y000500D02*
X016039Y000000D01*
X-016039Y000500D02*
X016039Y000000D01*
X-016039Y000500D02*
X016040Y000000D01*
X-016022Y-023018D02*
X000000Y023039D01*
X000500Y-023039D02*
X000000Y023039D01*
X000500Y-023039D02*
X000000Y023039D01*
X000500Y-023039D02*
X000000Y023039D01*
X000500Y-023039D02*
X000000Y023039D01*
X000500Y-023039D02*
X000000Y023039D01*
X000500Y-023040D02*
X000000Y023040D01*
X000500Y-023040D02*
X000000Y023039D01*
X000500Y-023039D02*
X000000Y023039D01*
X000500Y-023039D02*
X000000Y023039D01*
X000500Y-023039D02*
X000000Y023039D01*
X000500Y-023039D02*
X000000Y023039D01*
X000500Y-023039D02*
X000000Y023039D01*
X000500Y-023039D02*
X000000Y023039D01*
X000500Y-023039D02*
X000000Y023039D01*
X000500Y-023039D02*
X000000Y023039D01*
X000500Y-023039D02*
X000000Y023039D01*
X000500Y-023040D02*
X000000Y023040D01*
X000500Y-023040D02*
X000000Y023039D01*
X000500Y-023039D02*
X000000Y023039D01*
X000500Y-023039D02*
X000000Y023039D01*
X000500Y-023039D02*
X000000Y023039D01*
X000500Y-023039D02*
X000000Y023039D01*
X000500Y-023039D02*
X000000Y023039D01*
X000500Y-023039D02*
X000000Y023039D01*
X000500Y-023039D02*
X000000Y023039D01*
X000500Y-023039D02*
X000000Y023039D01*
X000500Y-023039D02*
X000000Y023039D01*
X000500Y-023039D02*
X000000Y023039D01*
X000500Y-023040D02*
X000000Y023040D01*
X000500Y-023040D02*
X000000Y023039D01*
X000500Y-023039D02*
X000000Y023039D01*
X000500Y-023039D02*
X000000Y023039D01*
X303478Y149964D02*
X023040Y-000003D01*
X000000Y-000000D02*
X000003Y016039D01*
X-023039Y000004*
X-000000Y000000D02*
X-000003Y-016039D01*
X-000000Y000017D02*
X023039Y000000D01*
X-023039Y000500D02*
X023039Y000000D01*
X-023039Y000500D02*
X023039Y000000D01*
X-023039Y000500D02*
X023039Y000000D01*
X-023039Y000500D02*
X023039Y000000D01*
X-023039Y000500D02*
X023040Y000000D01*
X-023039Y000500D02*
X023039Y000000D01*
X-023039Y000500D02*
X023039Y000000D01*
X-023039Y000500D02*
X023039Y000000D01*
X-023039Y000500D02*
X023039Y000000D01*
X-023039Y000500D02*
X023039Y000000D01*
X-023039Y000500D02*
X023039Y000000D01*
X-023039Y000500D02*
X023039Y000000D01*
X-023039Y000500D02*
X023039Y000000D01*
X-023039Y000500D02*
X023039Y000000D01*
X-023039Y000500D02*
X023039Y000000D01*
X-023039Y000500D02*
X023040Y000000D01*
X-023039Y000500D02*
X023039Y000000D01*
X-023039Y000500D02*
X023039Y000000D01*
X-023039Y000500D02*
X023039Y000000D01*
X-023039Y000500D02*
X023039Y000000D01*
X-023039Y000500D02*
X023039Y000000D01*
X-023039Y000500D02*
X023039Y000000D01*
X-023039Y000500D02*
X023039Y000000D01*
X-023039Y000500D02*
X023039Y000000D01*
X-023039Y000500D02*
X023039Y000000D01*
X-023039Y000500D02*
X023039Y000000D01*
X-023039Y000500D02*
X023039Y000000D01*
X-023039Y000500D02*
X023040Y000000D01*
X-023039Y000500D02*
X023039Y000000D01*
X-023039Y000500D02*
X023039Y000000D01*
X-023039Y000500D02*
X023039Y000000D01*
X-023039Y000500D02*
X023039Y000000D01*
X-023021Y-016017D02*
X000000Y016039D01*
X000500Y-016039D02*
X000000Y016039D01*
X000500Y-016040D02*
X000000Y016040D01*
X000500Y-016040D02*
X000000Y016039D01*
X000500Y-016039D02*
X000000Y016039D01*
X000500Y-016039D02*
X000000Y016039D01*
X000500Y-016039D02*
X000000Y016039D01*
X000500Y-016039D02*
X000000Y016039D01*
X000500Y-016039D02*
X000000Y016039D01*
X000500Y-016039D02*
X000000Y016039D01*
X000500Y-016039D02*
X000000Y016039D01*
X000500Y-016039D02*
X000000Y016039D01*
X000500Y-016039D02*
X000000Y016039D01*
X000500Y-016040D02*
X000000Y016040D01*
X000500Y-016040D02*
X000000Y016039D01*
X000500Y-016039D02*
X000000Y016039D01*
X000500Y-016039D02*
X000000Y016039D01*
X000500Y-016039D02*
X000000Y016039D01*
X000500Y-016039D02*
X000000Y016039D01*
X000500Y-016039D02*
X000000Y016039D01*
X000500Y-016039D02*
X000000Y016039D01*
X000500Y-016039D02*
X000000Y016039D01*
X000500Y-016039D02*
X000000Y016039D01*
X000500Y-016039D02*
X000000Y016039D01*
X000500Y-016039D02*
X000000Y016039D01*
X000500Y-016040D02*
X000000Y016040D01*
X000500Y-016040D02*
X000000Y016039D01*
X000500Y-016039D02*
X000000Y016039D01*
X000500Y-016039D02*
X000000Y016039D01*
X000500Y-016039D02*
X000000Y016039D01*
X000500Y-016039D02*
X000000Y016039D01*
X000500Y-016039D02*
X000000Y016039D01*
X000500Y-016039D02*
X000000Y016039D01*
X000500Y-016039D02*
X000000Y016039D01*
X000500Y-016039D02*
X000000Y016039D01*
X000500Y-016039D02*
X000000Y016039D01*
X000500Y-016040D02*
X000000Y016040D01*
X000500Y-016040D02*
X000000Y016039D01*
X000500Y-016039D02*
X000000Y016039D01*
X000500Y-016039D02*
X000000Y016039D01*
X000500Y-016039D02*
X000000Y016039D01*
X000500Y-016039D02*
X000000Y016039D01*
X000500Y-016039D02*
X000000Y016039D01*
X000500Y-016039D02*
X000000Y016039D01*
X000500Y-016039D02*
X000000Y016039D01*
X000500Y-016039D02*
X000000Y016039D01*
X000500Y-016039D02*
X000000Y016039D01*
X067978Y-016035D02*
X023040Y-000004D01*
X000000Y-000000D02*
X000003Y016039D01*
X-023039Y000004*
X-000000Y000000D02*
X-000003Y-016039D01*
X-000000Y000017D02*
X023039Y000000D01*
X-023039Y000500D02*
X023039Y000000D01*
X-023039Y000500D02*
X023039Y000000D01*
X-023039Y000500D02*
X023039Y000000D01*
X-023039Y000500D02*
X023040Y000000D01*
X-023039Y000500D02*
X023039Y000000D01*
X-023039Y000500D02*
X023039Y000000D01*
X-023039Y000500D02*
X023039Y000000D01*
X-023039Y000500D02*
X023039Y000000D01*
X-023039Y000500D02*
X023039Y000000D01*
X-023039Y000500D02*
X023039Y000000D01*
X-023039Y000500D02*
X023039Y000000D01*
X-023039Y000500D02*
X023039Y000000D01*
X-023039Y000500D02*
X023039Y000000D01*
X-023039Y000500D02*
X023039Y000000D01*
X-023039Y000500D02*
X023039Y000000D01*
X-023039Y000500D02*
X023040Y000000D01*
X-023039Y000500D02*
X023039Y000000D01*
X-023039Y000500D02*
X023039Y000000D01*
X-023039Y000500D02*
X023039Y000000D01*
X-023039Y000500D02*
X023039Y000000D01*
X-023039Y000500D02*
X023039Y000000D01*
X-023039Y000500D02*
X023039Y000000D01*
X-023039Y000500D02*
X023039Y000000D01*
X-023039Y000500D02*
X023039Y000000D01*
X-023039Y000500D02*
X023039Y000000D01*
X-023039Y000500D02*
X023039Y000000D01*
X-023039Y000500D02*
X023040Y000000D01*
X-023039Y000500D02*
X023039Y000000D01*
X-023039Y000500D02*
X023039Y000000D01*
X-023039Y000500D02*
X023039Y000000D01*
X-023039Y000500D02*
X023039Y000000D01*
X-023039Y000500D02*
X023039Y000000D01*
X-023021Y-016017D02*
X000000Y016039D01*
X000500Y-016039D02*
X000000Y016039D01*
X000500Y-016040D02*
X000000Y016040D01*
X000500Y-016040D02*
X000000Y016039D01*
X000500Y-016039D02*
X000000Y016039D01*
X000500Y-016039D02*
X000000Y016039D01*
X000500Y-016039D02*
X000000Y016039D01*
X000500Y-016039D02*
X000000Y016039D01*
X000500Y-016039D02*
X000000Y016039D01*
X000500Y-016039D02*
X000000Y016039D01*
X000500Y-016039D02*
X000000Y016039D01*
X000500Y-016039D02*
X000000Y016039D01*
X000500Y-016039D02*
X000000Y016039D01*
X000500Y-016040D02*
X000000Y016040D01*
X000500Y-016040D02*
X000000Y016039D01*
X000500Y-016039D02*
X000000Y016039D01*
X000500Y-016039D02*
X000000Y016039D01*
X000500Y-016039D02*
X000000Y016039D01*
X000500Y-016039D02*
X000000Y016039D01*
X000500Y-016039D02*
X000000Y016039D01*
X000500Y-016039D02*
X000000Y016039D01*
X000500Y-016039D02*
X000000Y016039D01*
X000500Y-016039D02*
X000000Y016039D01*
X000500Y-016039D02*
X000000Y016039D01*
X000500Y-016039D02*
X000000Y016039D01*
X000500Y-016040D02*
X000000Y016040D01*
X000500Y-016040D02*
X000000Y016039D01*
X000500Y-016039D02*
X000000Y016039D01*
X000500Y-016039D02*
X000000Y016039D01*
X000500Y-016039D02*
X000000Y016039D01*
X000500Y-016039D02*
X000000Y016039D01*
X000500Y-016039D02*
X000000Y016039D01*
X000500Y-016039D02*
X000000Y016039D01*
X000500Y-016039D02*
X000000Y016039D01*
X000500Y-016039D02*
X000000Y016039D01*
X000500Y-016039D02*
X000000Y016039D01*
X000500Y-016040D02*
X000000Y016040D01*
X000500Y-016040D02*
X000000Y016039D01*
X000500Y-016039D02*
X000000Y016039D01*
X000500Y-016039D02*
X000000Y016039D01*
X000500Y-016039D02*
X000000Y016039D01*
X000500Y-016039D02*
X000000Y016039D01*
X000500Y-016039D02*
X000000Y016039D01*
X000500Y-016039D02*
X000000Y016039D01*
X000500Y-016039D02*
X000000Y016039D01*
X000500Y-016039D02*
X000000Y016039D01*
X000500Y-016039D02*
X000000Y016039D01*
X-114021Y-061035D02*
X023039Y-000004D01*
X000000Y-000000D02*
X000003Y016039D01*
X-023039Y000004*
X-000000Y000000D02*
X-000003Y-016039D01*
X-000000Y000017D02*
X023039Y000000D01*
X-023039Y000500D02*
X023039Y000000D01*
X-023039Y000500D02*
X023039Y000000D01*
X-023039Y000500D02*
X023039Y000000D01*
X-023039Y000500D02*
X023039Y000000D01*
X-023039Y000500D02*
X023040Y000000D01*
X-023039Y000500D02*
X023039Y000000D01*
X-023039Y000500D02*
X023039Y000000D01*
X-023039Y000500D02*
X023039Y000000D01*
X-023039Y000500D02*
X023039Y000000D01*
X-023039Y000500D02*
X023039Y000000D01*
X-023039Y000500D02*
X023039Y000000D01*
X-023039Y000500D02*
X023039Y000000D01*
X-023039Y000500D02*
X023039Y000000D01*
X-023039Y000500D02*
X023039Y000000D01*
X-023039Y000500D02*
X023039Y000000D01*
X-023039Y000500D02*
X023040Y000000D01*
X-023039Y000500D02*
X023039Y000000D01*
X-023039Y000500D02*
X023039Y000000D01*
X-023039Y000500D02*
X023039Y000000D01*
X-023039Y000500D02*
X023039Y000000D01*
X-023039Y000500D02*
X023039Y000000D01*
X-023039Y000500D02*
X023039Y000000D01*
X-023039Y000500D02*
X023039Y000000D01*
X-023039Y000500D02*
X023039Y000000D01*
X-023039Y000500D02*
X023039Y000000D01*
X-023039Y000500D02*
X023039Y000000D01*
X-023039Y000500D02*
X023039Y000000D01*
X-023039Y000500D02*
X023040Y000000D01*
X-023039Y000500D02*
X023039Y000000D01*
X-023039Y000500D02*
X023039Y000000D01*
X-023039Y000500D02*
X023039Y000000D01*
X-023039Y000500D02*
X023039Y000000D01*
X-023021Y-016017D02*
X000000Y016039D01*
X000500Y-016039D02*
X000000Y016039D01*
X000500Y-016040D02*
X000000Y016040D01*
X000500Y-016040D02*
X000000Y016039D01*
X000500Y-016039D02*
X000000Y016039D01*
X000500Y-016039D02*
X000000Y016039D01*
X000500Y-016039D02*
X000000Y016039D01*
X000500Y-016039D02*
X000000Y016039D01*
X000500Y-016039D02*
X000000Y016039D01*
X000500Y-016039D02*
X000000Y016039D01*
X000500Y-016039D02*
X000000Y016039D01*
X000500Y-016039D02*
X000000Y016039D01*
X000500Y-016039D02*
X000000Y016039D01*
X000500Y-016040D02*
X000000Y016040D01*
X000500Y-016040D02*
X000000Y016039D01*
X000500Y-016039D02*
X000000Y016039D01*
X000500Y-016039D02*
X000000Y016039D01*
X000500Y-016039D02*
X000000Y016039D01*
X000500Y-016039D02*
X000000Y016039D01*
X000500Y-016039D02*
X000000Y016039D01*
X000500Y-016039D02*
X000000Y016039D01*
X000500Y-016039D02*
X000000Y016039D01*
X000500Y-016039D02*
X000000Y016039D01*
X000500Y-016039D02*
X000000Y016039D01*
X000500Y-016039D02*
X000000Y016039D01*
X000500Y-016040D02*
X000000Y016040D01*
X000500Y-016040D02*
X000000Y016039D01*
X000500Y-016039D02*
X000000Y016039D01*
X000500Y-016039D02*
X000000Y016039D01*
X000500Y-016039D02*
X000000Y016039D01*
X000500Y-016039D02*
X000000Y016039D01*
X000500Y-016039D02*
X000000Y016039D01*
X000500Y-016039D02*
X000000Y016039D01*
X000500Y-016039D02*
X000000Y016039D01*
X000500Y-016039D02*
X000000Y016039D01*
X000500Y-016039D02*
X000000Y016039D01*
X000500Y-016040D02*
X000000Y016040D01*
X000500Y-016040D02*
X000000Y016039D01*
X000500Y-016039D02*
X000000Y016039D01*
X000500Y-016039D02*
X000000Y016039D01*
X000500Y-016039D02*
X000000Y016039D01*
X000500Y-016039D02*
X000000Y016039D01*
X000500Y-016039D02*
X000000Y016039D01*
X000500Y-016039D02*
X000000Y016039D01*
X000500Y-016039D02*
X000000Y016039D01*
X000500Y-016039D02*
X000000Y016039D01*
X000500Y-016039D02*
X000000Y016039D01*
X067978Y-016035D02*
X023040Y-000004D01*
X000000Y-000000D02*
X000003Y016039D01*
X-023039Y000004*
X-000000Y000000D02*
X-000003Y-016039D01*
X-000000Y000017D02*
X023039Y000000D01*
X-023039Y000500D02*
X023039Y000000D01*
X-023039Y000500D02*
X023039Y000000D01*
X-023039Y000500D02*
X023039Y000000D01*
X-023039Y000500D02*
X023040Y000000D01*
X-023039Y000500D02*
X023039Y000000D01*
X-023039Y000500D02*
X023039Y000000D01*
X-023039Y000500D02*
X023039Y000000D01*
X-023039Y000500D02*
X023039Y000000D01*
X-023039Y000500D02*
X023039Y000000D01*
X-023039Y000500D02*
X023039Y000000D01*
X-023039Y000500D02*
X023039Y000000D01*
X-023039Y000500D02*
X023039Y000000D01*
X-023039Y000500D02*
X023039Y000000D01*
X-023039Y000500D02*
X023039Y000000D01*
X-023039Y000500D02*
X023039Y000000D01*
X-023039Y000500D02*
X023040Y000000D01*
X-023039Y000500D02*
X023039Y000000D01*
X-023039Y000500D02*
X023039Y000000D01*
X-023039Y000500D02*
X023039Y000000D01*
X-023039Y000500D02*
X023039Y000000D01*
X-023039Y000500D02*
X023039Y000000D01*
X-023039Y000500D02*
X023039Y000000D01*
X-023039Y000500D02*
X023039Y000000D01*
X-023039Y000500D02*
X023039Y000000D01*
X-023039Y000500D02*
X023039Y000000D01*
X-023039Y000500D02*
X023039Y000000D01*
X-023039Y000500D02*
X023040Y000000D01*
X-023039Y000500D02*
X023039Y000000D01*
X-023039Y000500D02*
X023039Y000000D01*
X-023039Y000500D02*
X023039Y000000D01*
X-023039Y000500D02*
X023039Y000000D01*
X-023039Y000500D02*
X023039Y000000D01*
X-023021Y-016017D02*
X000000Y016039D01*
X000500Y-016039D02*
X000000Y016039D01*
X000500Y-016040D02*
X000000Y016040D01*
X000500Y-016040D02*
X000000Y016039D01*
X000500Y-016039D02*
X000000Y016039D01*
X000500Y-016039D02*
X000000Y016039D01*
X000500Y-016039D02*
X000000Y016039D01*
X000500Y-016039D02*
X000000Y016039D01*
X000500Y-016039D02*
X000000Y016039D01*
X000500Y-016039D02*
X000000Y016039D01*
X000500Y-016039D02*
X000000Y016039D01*
X000500Y-016039D02*
X000000Y016039D01*
X000500Y-016039D02*
X000000Y016039D01*
X000500Y-016040D02*
X000000Y016040D01*
X000500Y-016040D02*
X000000Y016039D01*
X000500Y-016039D02*
X000000Y016039D01*
X000500Y-016039D02*
X000000Y016039D01*
X000500Y-016039D02*
X000000Y016039D01*
X000500Y-016039D02*
X000000Y016039D01*
X000500Y-016039D02*
X000000Y016039D01*
X000500Y-016039D02*
X000000Y016039D01*
X000500Y-016039D02*
X000000Y016039D01*
X000500Y-016039D02*
X000000Y016039D01*
X000500Y-016039D02*
X000000Y016039D01*
X000500Y-016039D02*
X000000Y016039D01*
X000500Y-016040D02*
X000000Y016040D01*
X000500Y-016040D02*
X000000Y016039D01*
X000500Y-016039D02*
X000000Y016039D01*
X000500Y-016039D02*
X000000Y016039D01*
X000500Y-016039D02*
X000000Y016039D01*
X000500Y-016039D02*
X000000Y016039D01*
X000500Y-016039D02*
X000000Y016039D01*
X000500Y-016039D02*
X000000Y016039D01*
X000500Y-016039D02*
X000000Y016039D01*
X000500Y-016039D02*
X000000Y016039D01*
X000500Y-016039D02*
X000000Y016039D01*
X000500Y-016040D02*
X000000Y016040D01*
X000500Y-016040D02*
X000000Y016039D01*
X000500Y-016039D02*
X000000Y016039D01*
X000500Y-016039D02*
X000000Y016039D01*
X000500Y-016039D02*
X000000Y016039D01*
X000500Y-016039D02*
X000000Y016039D01*
X000500Y-016039D02*
X000000Y016039D01*
X000500Y-016039D02*
X000000Y016039D01*
X000500Y-016039D02*
X000000Y016039D01*
X000500Y-016039D02*
X000000Y016039D01*
X000500Y-016039D02*
X000000Y016039D01*
G54D66*
X-067499Y-418568D02*
X-008801Y-000000D01*
X-000000Y015100*
X008800Y000000*
X000000Y-015100*
X-008800Y000041D02*
X008800Y000000D01*
X-008800Y004739D02*
X008800Y000000D01*
X-008800Y004740D02*
X008800Y000000D01*
X-008800Y004740D02*
X008800Y000000D01*
X-005089Y-014260D02*
X-000000Y015100D01*
X004739Y-015100D02*
X000000Y015100D01*
X-029849Y-015100D02*
X-008801Y-000000D01*
X-000000Y015100*
X008800Y000000*
X000000Y-015100*
X-008800Y000041D02*
X008800Y000000D01*
X-008800Y004739D02*
X008800Y000000D01*
X-008800Y004740D02*
X008800Y000000D01*
X-008800Y004740D02*
X008800Y000000D01*
X-008066Y-014260D02*
X-000000Y015100D01*
X004739Y-015100D02*
X000000Y015100D01*
X033527Y054900D02*
X-008800Y-000000D01*
X-000000Y015100*
X008800Y000000*
X000000Y-015100*
X-008800Y001135D02*
X008800Y000000D01*
X-008800Y004740D02*
X008800Y000000D01*
X-008800Y004740D02*
X008800Y000000D01*
X-005089Y-010615D02*
X-000000Y015100D01*
X004739Y-015100D02*
X000000Y015100D01*
X-029849Y-015100D02*
X-008801Y-000000D01*
X-000000Y015100*
X008800Y000000*
X000000Y-015100*
X-008800Y001135D02*
X008800Y000000D01*
X-008800Y004740D02*
X008800Y000000D01*
X-008800Y004740D02*
X008800Y000000D01*
X-008066Y-010615D02*
X-000000Y015100D01*
X004739Y-015100D02*
X000000Y015100D01*
X033527Y100900D02*
X-008800Y-000000D01*
X-000000Y015100*
X008800Y000000*
X000000Y-015100*
X-008800Y003626D02*
X008800Y000000D01*
X-008800Y004740D02*
X008800Y000000D01*
X-008800Y004740D02*
X008800Y000000D01*
X-005089Y-013106D02*
X-000000Y015100D01*
X004739Y-015100D02*
X000000Y015100D01*
X-029849Y-015100D02*
X-008801Y-000000D01*
X-000000Y015100*
X008800Y000000*
X000000Y-015100*
X-008800Y003626D02*
X008800Y000000D01*
X-008800Y004740D02*
X008800Y000000D01*
X-008800Y004740D02*
X008800Y000000D01*
X-008066Y-013106D02*
X-000000Y015100D01*
X004739Y-015100D02*
X000000Y015100D01*
X033527Y054900D02*
X-008800Y-000000D01*
X-000000Y015100*
X008800Y000000*
X000000Y-015100*
X-008800Y004721D02*
X008800Y000000D01*
X-008800Y004740D02*
X008800Y-000000D01*
X-008800Y004739D02*
X008800Y000000D01*
X-005089Y-014200D02*
X-000000Y015100D01*
X004739Y-015100D02*
X000000Y015100D01*
X-029849Y-015100D02*
X-008801Y-000000D01*
X-000000Y015100*
X008800Y000000*
X000000Y-015100*
X-008800Y004721D02*
X008800Y000000D01*
X-008800Y004740D02*
X008800Y-000000D01*
X-008800Y004739D02*
X008800Y000000D01*
X-008066Y-014200D02*
X-000000Y015100D01*
X004739Y-015100D02*
X000000Y015100D01*
X033527Y054900D02*
X-008800Y-000000D01*
X-000000Y015100*
X008800Y000000*
X000000Y-015100*
X-008800Y001076D02*
X008800Y000000D01*
X-008800Y004740D02*
X008800Y-000000D01*
X-008800Y004739D02*
X008800Y000000D01*
X-005089Y-010555D02*
X-000000Y015100D01*
X004739Y-015100D02*
X000000Y015100D01*
X-029849Y-015100D02*
X-008801Y-000000D01*
X-000000Y015100*
X008800Y000000*
X000000Y-015100*
X-008800Y001076D02*
X008800Y000000D01*
X-008800Y004740D02*
X008800Y-000000D01*
X-008800Y004739D02*
X008800Y000000D01*
X-008066Y-010555D02*
X-000000Y015100D01*
X004739Y-015100D02*
X000000Y015100D01*
G74*
X-355600Y-459679D02*
M02*
